<svg width="90" height="89" viewBox="0 0 90 89" fill="none" xmlns="http://www.w3.org/2000/svg">
<rect width="89.6953" height="88.2249" rx="4" fill="#FFE8F1"/>
<g clip-path="url(#clip0_173_477)">
<path fill-rule="evenodd" clip-rule="evenodd" d="M48.1868 22.5968L24.209 47.1859L24.1644 47.2285C19.5977 41.7503 18.6895 33.7981 22.399 27.1956C27.0995 18.8282 37.5331 15.9683 45.6883 20.7959C46.5867 21.3286 47.4217 21.9333 48.1868 22.5968ZM62.4479 21.3874L60.2553 19.1387L52.1002 27.5029C51.6032 26.5746 51.023 25.692 50.3601 24.8618L53.5566 21.5835L51.3642 19.3347L48.1868 22.5935C48.9867 23.2864 49.7132 24.048 50.3601 24.8585V24.8618L26.4015 49.4346L26.3856 49.4643C27.0803 50.0491 27.8642 50.6212 28.6387 51.0854C28.7374 51.1442 28.8394 51.2027 28.9414 51.2586L52.1002 27.5029C52.6389 28.5096 53.0785 29.562 53.4131 30.6504L62.4445 21.3874H62.4479ZM69.3465 27.6776L71.5391 29.9264L39.4618 62.8264L37.2692 60.5775L69.3465 27.6776ZM68.775 37.1681L70.9676 39.4169L43.8003 67.2807L41.6077 65.0318L68.775 37.1681ZM30.7516 53.8964L28.559 51.6474L28.9383 51.2586C29.9326 51.8208 30.9587 52.2718 32.004 52.6116L30.7516 53.8964ZM32.8838 56.0795L35.5445 53.3505C34.3559 53.2327 33.1704 52.9877 32.0072 52.6085L53.4162 30.6506C53.7796 31.8273 54.0249 33.0464 54.1397 34.2787L35.5477 53.3472C37.1262 53.5004 38.7047 53.4248 40.2451 53.1345L53.9356 39.0931C53.5948 41.0118 52.9319 42.8977 51.9278 44.6822C49.3273 49.3007 44.987 52.2425 40.2451 53.138L35.1304 58.3838L32.8838 56.0795ZM53.9389 39.0963L53.9428 39.0923L53.9422 39.0963H53.9389ZM53.9428 39.0923L68.2382 24.4304L65.9914 22.1261L54.1428 34.2785C54.2926 35.8689 54.229 37.4888 53.9428 39.0923ZM137.883 18.5237L132.682 23.8547L132.675 23.858L132.72 35.6802C132.035 35.2259 130.996 34.7519 129.61 34.2551C128.22 33.7583 126.617 33.5099 124.807 33.5099C122.551 33.5099 120.546 33.9218 118.797 34.7487C117.044 35.5756 115.565 36.7327 114.358 38.2198C113.147 39.7037 112.232 41.4818 111.607 43.5475C110.983 45.6132 110.626 47.8195 110.626 50.4244C110.626 53.0296 110.999 55.373 111.745 57.4582C112.493 59.5437 113.548 61.312 114.919 62.7568C116.289 64.2047 117.94 65.319 119.874 66.1036C121.805 66.888 123.982 67.2805 126.397 67.2805C129.014 67.2805 131.33 67.0938 133.345 66.7212C135.362 66.3522 137.013 65.9792 138.3 65.6067V18.7002C138.3 18.478 138.036 18.3668 137.883 18.5237ZM129.766 39.3932C131.053 39.9292 132.038 40.4883 132.726 41.0667L132.723 41.07L132.678 61.5178C132.114 61.6846 131.318 61.8382 130.292 61.982C129.265 62.1259 127.984 62.1979 126.455 62.1979C123.437 62.1979 121.018 61.1781 119.208 59.1321C117.395 57.0857 116.49 54.1832 116.49 50.4244C116.49 48.7705 116.694 47.1625 117.019 45.7146C117.34 44.2698 117.866 43.0213 118.59 41.9657C119.316 40.9132 120.253 40.0862 121.4 39.4881C122.548 38.8898 123.928 38.5892 125.537 38.5892C127.067 38.5892 128.475 38.8572 129.766 39.3932ZM102.292 61.7957C102.898 63.5935 103.542 65.4208 104.227 67.2805V67.277H110.632C109.02 62.7337 107.509 58.5306 106.101 54.6671C104.689 50.8036 103.312 47.1398 101.961 43.6684C100.613 40.1973 99.2713 36.8831 97.9424 33.7225C97.4429 32.5345 96.9346 31.2456 96.4181 29.9353C95.5604 27.7595 94.679 25.5239 93.774 23.59H88.398C87.488 25.5302 86.6029 27.7741 85.7423 29.9566L85.7342 29.9768C85.2231 31.2729 84.7205 32.547 84.2262 33.7225C82.8974 36.8831 81.5589 40.1973 80.2078 43.6684C78.8598 47.1398 77.4798 50.8036 76.0712 54.6671C74.6596 58.5306 73.149 62.7337 71.5395 67.277H77.6424L81.4472 56.3113H100.418C101.065 58.171 101.687 59.9981 102.292 61.7957ZM94.8927 40.9165C96.1608 44.2831 97.4388 47.7639 98.7295 51.3562H98.7264H83.1395C84.3889 47.7639 85.6476 44.2831 86.9158 40.9165C87.2722 39.972 87.6342 38.9783 88.0013 37.97L88.0061 37.9571C88.9454 35.3789 89.9208 32.7013 90.9345 30.4768C91.8736 32.5983 92.7898 35.1361 93.6809 37.6057L93.6851 37.6176C94.0928 38.7465 94.495 39.8615 94.8927 40.9165ZM147.963 67.2797L151.946 63.1948C152.086 63.0508 152.007 62.8025 151.809 62.7697C151.133 62.6586 150.547 62.5279 150.056 62.3776C149.454 62.1913 148.97 61.9134 148.606 61.5409C148.243 61.1683 147.982 60.6747 147.819 60.0537C147.66 59.4326 147.58 58.1286 147.58 57.1773V18.7002C147.58 18.478 147.316 18.3668 147.163 18.5237L141.965 23.8547V58.6318C141.965 61.6879 142.688 63.9399 144.138 65.3847C145.03 66.2764 146.304 66.9071 147.963 67.2797ZM167.848 67.2805C168.629 67.2805 169.381 67.2508 170.101 67.1987H170.105L174.066 63.136C174.238 62.9561 174.075 62.6586 173.836 62.7142C165.184 64.685 160.719 59.5962 160.719 59.5962C159.068 57.8605 158.122 55.3207 157.88 51.9738H179.388C179.426 51.6438 179.448 51.281 179.448 50.8889V49.9278C179.448 44.3942 178.32 40.2725 176.064 37.5662C173.808 34.8599 170.566 33.5067 166.338 33.5067C164.528 33.5067 162.756 33.8564 161.022 34.5592C159.289 35.2619 157.759 36.3176 156.43 37.7199C155.101 39.1253 154.037 40.8903 153.23 43.0179C152.421 45.1493 152.019 47.6364 152.019 50.4867C152.019 52.9252 152.332 55.1641 152.956 57.2101C153.581 59.2563 154.537 61.0213 155.828 62.5084C157.115 63.9955 158.756 65.1625 160.751 66.0089C162.743 66.8554 165.111 67.2805 167.848 67.2805ZM171.685 40.9132C172.992 42.5866 173.626 44.7242 173.588 47.3261H158.001C158.122 46.2115 158.374 45.1165 158.756 44.0414C159.139 42.9691 159.671 42.018 160.356 41.1911C161.041 40.3674 161.876 39.6939 162.864 39.1777C163.852 38.6612 164.99 38.403 166.277 38.403C168.575 38.403 170.375 39.2398 171.685 40.9132ZM196.842 38.6972C195.994 38.5827 195.003 38.5272 193.865 38.5272C192.817 38.5272 191.778 38.6416 190.752 38.8672C189.726 39.0958 189.05 39.2495 188.728 39.3313V61.8513L183.527 67.2084C183.375 67.3654 183.11 67.2313 183.11 67.0091V35.5528C184.439 35.056 186.09 34.5919 188.066 34.1604C190.038 33.7257 192.253 33.51 194.71 33.51C195.194 33.51 195.746 33.5394 196.373 33.6048C196.995 33.6669 197.61 33.7486 198.216 33.8532C198.821 33.9578 199.376 34.0591 199.879 34.1637C200.153 34.2193 200.389 34.2748 200.587 34.3238C200.771 34.3696 200.835 34.6049 200.701 34.7455L196.842 38.7037V38.6972Z" fill="#FC2D7C"/>
</g>
<defs>
<clipPath id="clip0_173_477">
<rect width="50.8797" height="49.8414" fill="white" transform="translate(20.0977 17.9443)"/>
</clipPath>
</defs>
</svg>
