<svg width="120" height="120" viewBox="0 0 120 120" fill="none" xmlns="http://www.w3.org/2000/svg">
<path d="M74.9805 112.632H7.48047V35.0068C7.48047 30.2443 11.343 26.3818 16.1055 26.3818H64.0305C70.068 26.3818 74.9805 31.2943 74.9805 37.3318V112.632Z" fill="#99919F"/>
<path d="M74.9805 112.632H7.48047V35.0068C7.48047 30.2443 11.343 26.3818 16.1055 26.3818H64.0305C70.068 26.3818 74.9805 31.2943 74.9805 37.3318V112.632Z" fill="url(#paint0_linear_167_820)"/>
<path d="M74.9805 112.632H7.48047V35.0068C7.48047 30.2443 11.343 26.3818 16.1055 26.3818H64.0305C70.068 26.3818 74.9805 31.2943 74.9805 37.3318V112.632Z" fill="url(#paint1_linear_167_820)"/>
<path d="M74.9805 112.632H7.48047V35.0068C7.48047 30.2443 11.343 26.3818 16.1055 26.3818H64.0305C70.068 26.3818 74.9805 31.2943 74.9805 37.3318V112.632Z" fill="url(#paint2_linear_167_820)"/>
<path d="M112.48 112.632H44.9805V35.0068C44.9805 30.2443 48.843 26.3818 53.6055 26.3818H103.855C108.618 26.3818 112.48 30.2443 112.48 35.0068V112.632Z" fill="#B5AEBA"/>
<path d="M112.48 112.632H44.9805V35.0068C44.9805 30.2443 48.843 26.3818 53.6055 26.3818H103.855C108.618 26.3818 112.48 30.2443 112.48 35.0068V112.632Z" fill="url(#paint3_linear_167_820)"/>
<path d="M112.48 112.632H44.9805V35.0068C44.9805 30.2443 48.843 26.3818 53.6055 26.3818H103.855C108.618 26.3818 112.48 30.2443 112.48 35.0068V112.632Z" fill="url(#paint4_linear_167_820)"/>
<path d="M112.48 112.632H44.9805V35.0068C44.9805 30.2443 48.843 26.3818 53.6055 26.3818H103.855C108.618 26.3818 112.48 30.2443 112.48 35.0068V112.632Z" fill="url(#paint5_linear_167_820)"/>
<path d="M112.48 112.632H44.9805V35.0068C44.9805 30.2443 48.843 26.3818 53.6055 26.3818H103.855C108.618 26.3818 112.48 30.2443 112.48 35.0068V112.632Z" fill="url(#paint6_radial_167_820)"/>
<rect x="90.1055" y="41.4609" width="14.9404" height="11.2206" rx="0.5" fill="url(#paint7_linear_167_820)"/>
<rect x="90.1055" y="41.4609" width="14.9404" height="11.2206" rx="0.5" fill="url(#paint8_linear_167_820)"/>
<rect x="90.1055" y="41.4609" width="14.9404" height="11.2206" rx="0.5" fill="url(#paint9_linear_167_820)"/>
<rect x="90.1055" y="41.4609" width="14.9404" height="11.2206" rx="0.5" fill="url(#paint10_linear_167_820)"/>
<rect x="14.918" y="41.4609" width="14.9404" height="11.2206" rx="0.5" fill="url(#paint11_linear_167_820)"/>
<rect x="14.918" y="41.4609" width="14.9404" height="11.2206" rx="0.5" fill="url(#paint12_linear_167_820)"/>
<rect x="14.918" y="41.4609" width="14.9404" height="11.2206" rx="0.5" fill="url(#paint13_linear_167_820)"/>
<rect x="14.918" y="41.4609" width="14.9404" height="11.2206" rx="0.5" fill="url(#paint14_linear_167_820)"/>
<rect x="14.918" y="41.4609" width="14.9404" height="11.2206" rx="0.5" fill="url(#paint15_linear_167_820)"/>
<rect x="90.1055" y="60" width="14.9404" height="11.2206" rx="0.5" fill="url(#paint16_linear_167_820)"/>
<rect x="90.1055" y="60" width="14.9404" height="11.2206" rx="0.5" fill="url(#paint17_linear_167_820)"/>
<rect x="90.1055" y="60" width="14.9404" height="11.2206" rx="0.5" fill="url(#paint18_linear_167_820)"/>
<rect x="90.1055" y="60" width="14.9404" height="11.2206" rx="0.5" fill="url(#paint19_linear_167_820)"/>
<rect x="14.918" y="60" width="14.9404" height="11.2206" rx="0.5" fill="url(#paint20_linear_167_820)"/>
<rect x="14.918" y="60" width="14.9404" height="11.2206" rx="0.5" fill="url(#paint21_linear_167_820)"/>
<rect x="14.918" y="60" width="14.9404" height="11.2206" rx="0.5" fill="url(#paint22_linear_167_820)"/>
<rect x="14.918" y="60" width="14.9404" height="11.2206" rx="0.5" fill="url(#paint23_linear_167_820)"/>
<rect x="14.918" y="60" width="14.9404" height="11.2206" rx="0.5" fill="url(#paint24_linear_167_820)"/>
<rect x="90.1055" y="78.5781" width="14.9404" height="11.2206" rx="0.5" fill="url(#paint25_linear_167_820)"/>
<rect x="90.1055" y="78.5781" width="14.9404" height="11.2206" rx="0.5" fill="url(#paint26_linear_167_820)"/>
<rect x="90.1055" y="78.5781" width="14.9404" height="11.2206" rx="0.5" fill="url(#paint27_linear_167_820)"/>
<rect x="90.1055" y="78.5781" width="14.9404" height="11.2206" rx="0.5" fill="url(#paint28_linear_167_820)"/>
<rect x="14.918" y="78.5781" width="14.9404" height="11.2206" rx="0.5" fill="url(#paint29_linear_167_820)"/>
<rect x="14.918" y="78.5781" width="14.9404" height="11.2206" rx="0.5" fill="url(#paint30_linear_167_820)"/>
<rect x="14.918" y="78.5781" width="14.9404" height="11.2206" rx="0.5" fill="url(#paint31_linear_167_820)"/>
<rect x="14.918" y="78.5781" width="14.9404" height="11.2206" rx="0.5" fill="url(#paint32_linear_167_820)"/>
<rect x="14.918" y="78.5781" width="14.9404" height="11.2206" rx="0.5" fill="url(#paint33_linear_167_820)"/>
<path d="M97.4805 112.632H22.4805V16.8568C22.4805 11.7568 26.6055 7.63184 31.7055 7.63184H88.2555C93.3555 7.63184 97.4805 11.7568 97.4805 16.8568V112.632Z" fill="url(#paint34_linear_167_820)"/>
<path d="M97.4805 112.632H22.4805V16.8568C22.4805 11.7568 26.6055 7.63184 31.7055 7.63184H88.2555C93.3555 7.63184 97.4805 11.7568 97.4805 16.8568V112.632Z" fill="url(#paint35_linear_167_820)"/>
<path d="M97.4805 112.632H22.4805V16.8568C22.4805 11.7568 26.6055 7.63184 31.7055 7.63184H88.2555C93.3555 7.63184 97.4805 11.7568 97.4805 16.8568V112.632Z" fill="url(#paint36_linear_167_820)"/>
<path d="M97.4805 112.632H22.4805V16.8568C22.4805 11.7568 26.6055 7.63184 31.7055 7.63184H88.2555C93.3555 7.63184 97.4805 11.7568 97.4805 16.8568V112.632Z" fill="url(#paint37_radial_167_820)"/>
<path d="M97.4805 112.632H22.4805V16.8568C22.4805 11.7568 26.6055 7.63184 31.7055 7.63184H88.2555C93.3555 7.63184 97.4805 11.7568 97.4805 16.8568V112.632Z" fill="url(#paint38_radial_167_820)"/>
<path d="M97.4805 112.632H22.4805V16.8568C22.4805 11.7568 26.6055 7.63184 31.7055 7.63184H88.2555C93.3555 7.63184 97.4805 11.7568 97.4805 16.8568V112.632Z" fill="url(#paint39_linear_167_820)" fill-opacity="0.2"/>
<path d="M97.4805 112.632H22.4805V16.8568C22.4805 11.7568 26.6055 7.63184 31.7055 7.63184H88.2555C93.3555 7.63184 97.4805 11.7568 97.4805 16.8568V112.632Z" fill="url(#paint40_linear_167_820)" fill-opacity="0.4"/>
<path d="M97.4805 112.632H22.4805V16.8568C22.4805 11.7568 26.6055 7.63184 31.7055 7.63184H88.2555C93.3555 7.63184 97.4805 11.7568 97.4805 16.8568V112.632Z" fill="url(#paint41_radial_167_820)"/>
<path d="M71.2305 112.632H48.7305V98.5693C48.7305 95.9818 50.8305 93.8818 53.418 93.8818H66.543C69.1305 93.8818 71.268 95.9818 71.268 98.6068V112.632H71.2305Z" fill="url(#paint42_linear_167_820)"/>
<path d="M71.2305 112.632H48.7305V98.5693C48.7305 95.9818 50.8305 93.8818 53.418 93.8818H66.543C69.1305 93.8818 71.268 95.9818 71.268 98.6068V112.632H71.2305Z" fill="url(#paint43_linear_167_820)"/>
<path d="M71.2305 112.632H48.7305V98.5693C48.7305 95.9818 50.8305 93.8818 53.418 93.8818H66.543C69.1305 93.8818 71.268 95.9818 71.268 98.6068V112.632H71.2305Z" fill="url(#paint44_linear_167_820)"/>
<path d="M71.2305 112.632H48.7305V98.5693C48.7305 95.9818 50.8305 93.8818 53.418 93.8818H66.543C69.1305 93.8818 71.268 95.9818 71.268 98.6068V112.632H71.2305Z" fill="url(#paint45_linear_167_820)"/>
<path d="M41.2305 19.5195C41.2305 19.2434 41.4543 19.0195 41.7305 19.0195H55.6708C55.947 19.0195 56.1708 19.2434 56.1708 19.5195V29.7401C56.1708 30.0163 55.947 30.2401 55.6708 30.2401H41.7305C41.4543 30.2401 41.2305 30.0163 41.2305 29.7401V19.5195Z" fill="url(#paint46_linear_167_820)"/>
<path d="M41.2305 19.5195C41.2305 19.2434 41.4543 19.0195 41.7305 19.0195H55.6708C55.947 19.0195 56.1708 19.2434 56.1708 19.5195V29.7401C56.1708 30.0163 55.947 30.2401 55.6708 30.2401H41.7305C41.4543 30.2401 41.2305 30.0163 41.2305 29.7401V19.5195Z" fill="url(#paint47_linear_167_820)"/>
<path d="M41.2305 19.5195C41.2305 19.2434 41.4543 19.0195 41.7305 19.0195H55.6708C55.947 19.0195 56.1708 19.2434 56.1708 19.5195V29.7401C56.1708 30.0163 55.947 30.2401 55.6708 30.2401H41.7305C41.4543 30.2401 41.2305 30.0163 41.2305 29.7401V19.5195Z" fill="url(#paint48_linear_167_820)"/>
<path d="M41.2305 19.5195C41.2305 19.2434 41.4543 19.0195 41.7305 19.0195H55.6708C55.947 19.0195 56.1708 19.2434 56.1708 19.5195V29.7401C56.1708 30.0163 55.947 30.2401 55.6708 30.2401H41.7305C41.4543 30.2401 41.2305 30.0163 41.2305 29.7401V19.5195Z" fill="url(#paint49_linear_167_820)"/>
<path d="M41.2305 19.5195C41.2305 19.2434 41.4543 19.0195 41.7305 19.0195H55.6708C55.947 19.0195 56.1708 19.2434 56.1708 19.5195V29.7401C56.1708 30.0163 55.947 30.2401 55.6708 30.2401H41.7305C41.4543 30.2401 41.2305 30.0163 41.2305 29.7401V19.5195Z" fill="url(#paint50_linear_167_820)"/>
<rect x="41.2305" y="37.5781" width="14.9404" height="11.2206" rx="0.5" fill="url(#paint51_linear_167_820)"/>
<rect x="41.2305" y="37.5781" width="14.9404" height="11.2206" rx="0.5" fill="url(#paint52_linear_167_820)"/>
<rect x="41.2305" y="37.5781" width="14.9404" height="11.2206" rx="0.5" fill="url(#paint53_linear_167_820)"/>
<rect x="41.2305" y="37.5781" width="14.9404" height="11.2206" rx="0.5" fill="url(#paint54_linear_167_820)"/>
<rect x="41.2305" y="37.5781" width="14.9404" height="11.2206" rx="0.5" fill="url(#paint55_linear_167_820)"/>
<rect x="41.2305" y="56.1357" width="14.9404" height="11.2206" rx="0.5" fill="url(#paint56_linear_167_820)"/>
<rect x="41.2305" y="56.1357" width="14.9404" height="11.2206" rx="0.5" fill="url(#paint57_linear_167_820)"/>
<rect x="41.2305" y="56.1357" width="14.9404" height="11.2206" rx="0.5" fill="url(#paint58_linear_167_820)"/>
<rect x="41.2305" y="56.1357" width="14.9404" height="11.2206" rx="0.5" fill="url(#paint59_linear_167_820)"/>
<rect x="41.2305" y="56.1357" width="14.9404" height="11.2206" rx="0.5" fill="url(#paint60_linear_167_820)"/>
<rect x="41.2305" y="75.2656" width="14.9404" height="11.2206" rx="0.5" fill="url(#paint61_linear_167_820)"/>
<rect x="41.2305" y="75.2656" width="14.9404" height="11.2206" rx="0.5" fill="url(#paint62_linear_167_820)"/>
<rect x="41.2305" y="75.2656" width="14.9404" height="11.2206" rx="0.5" fill="url(#paint63_linear_167_820)"/>
<rect x="41.2305" y="75.2656" width="14.9404" height="11.2206" rx="0.5" fill="url(#paint64_linear_167_820)"/>
<rect x="41.2305" y="75.2656" width="14.9404" height="11.2206" rx="0.5" fill="url(#paint65_linear_167_820)"/>
<rect x="63.6719" y="19.0195" width="14.9404" height="11.2206" rx="0.5" fill="url(#paint66_linear_167_820)"/>
<rect x="63.6719" y="19.0195" width="14.9404" height="11.2206" rx="0.5" fill="url(#paint67_linear_167_820)"/>
<rect x="63.6719" y="19.0195" width="14.9404" height="11.2206" rx="0.5" fill="url(#paint68_linear_167_820)"/>
<rect x="63.6719" y="19.0195" width="14.9404" height="11.2206" rx="0.5" fill="url(#paint69_linear_167_820)"/>
<rect x="63.6719" y="19.0195" width="14.9404" height="11.2206" rx="0.5" fill="url(#paint70_linear_167_820)"/>
<rect x="63.6719" y="37.5781" width="14.9404" height="11.2206" rx="0.5" fill="url(#paint71_linear_167_820)"/>
<rect x="63.6719" y="37.5781" width="14.9404" height="11.2206" rx="0.5" fill="url(#paint72_linear_167_820)"/>
<rect x="63.6719" y="37.5781" width="14.9404" height="11.2206" rx="0.5" fill="url(#paint73_linear_167_820)"/>
<rect x="63.6719" y="37.5781" width="14.9404" height="11.2206" rx="0.5" fill="url(#paint74_linear_167_820)"/>
<rect x="63.6719" y="37.5781" width="14.9404" height="11.2206" rx="0.5" fill="url(#paint75_linear_167_820)"/>
<rect x="63.6719" y="56.1357" width="14.9404" height="11.2206" rx="0.5" fill="url(#paint76_linear_167_820)"/>
<rect x="63.6719" y="56.1357" width="14.9404" height="11.2206" rx="0.5" fill="url(#paint77_linear_167_820)"/>
<rect x="63.6719" y="56.1357" width="14.9404" height="11.2206" rx="0.5" fill="url(#paint78_linear_167_820)"/>
<rect x="63.6719" y="56.1357" width="14.9404" height="11.2206" rx="0.5" fill="url(#paint79_linear_167_820)"/>
<rect x="63.6719" y="56.1357" width="14.9404" height="11.2206" rx="0.5" fill="url(#paint80_linear_167_820)"/>
<rect x="63.6719" y="75.2656" width="14.9404" height="11.2206" rx="0.5" fill="url(#paint81_linear_167_820)"/>
<rect x="63.6719" y="75.2656" width="14.9404" height="11.2206" rx="0.5" fill="url(#paint82_linear_167_820)"/>
<rect x="63.6719" y="75.2656" width="14.9404" height="11.2206" rx="0.5" fill="url(#paint83_linear_167_820)"/>
<rect x="63.6719" y="75.2656" width="14.9404" height="11.2206" rx="0.5" fill="url(#paint84_linear_167_820)"/>
<rect x="63.6719" y="75.2656" width="14.9404" height="11.2206" rx="0.5" fill="url(#paint85_linear_167_820)"/>
<defs>
<linearGradient id="paint0_linear_167_820" x1="24.6206" y1="83.3284" x2="17.4208" y2="83.3284" gradientUnits="userSpaceOnUse">
<stop stop-color="#605965"/>
<stop offset="1" stop-color="#605965" stop-opacity="0"/>
</linearGradient>
<linearGradient id="paint1_linear_167_820" x1="25.8098" y1="24.2538" x2="25.8098" y2="36.2758" gradientUnits="userSpaceOnUse">
<stop stop-color="#959595"/>
<stop offset="1" stop-color="#959595" stop-opacity="0"/>
</linearGradient>
<linearGradient id="paint2_linear_167_820" x1="7.48047" y1="87.2144" x2="11.9013" y2="87.2144" gradientUnits="userSpaceOnUse">
<stop stop-color="#7B777E"/>
<stop offset="1" stop-color="#7B777E" stop-opacity="0"/>
</linearGradient>
<linearGradient id="paint3_linear_167_820" x1="96.8695" y1="91.538" x2="99.3305" y2="91.538" gradientUnits="userSpaceOnUse">
<stop stop-color="#A59FA9"/>
<stop offset="1" stop-color="#A59FA9" stop-opacity="0"/>
</linearGradient>
<linearGradient id="paint4_linear_167_820" x1="97.5727" y1="25.913" x2="97.5727" y2="30.8349" gradientUnits="userSpaceOnUse">
<stop stop-color="#B3B3B3"/>
<stop offset="1" stop-color="#B3B3B3" stop-opacity="0"/>
</linearGradient>
<linearGradient id="paint5_linear_167_820" x1="113.745" y1="86.3818" x2="106.245" y2="86.3818" gradientUnits="userSpaceOnUse">
<stop stop-color="#D2CFD4"/>
<stop offset="1" stop-color="#D2CFD4" stop-opacity="0"/>
</linearGradient>
<radialGradient id="paint6_radial_167_820" cx="0" cy="0" r="1" gradientUnits="userSpaceOnUse" gradientTransform="translate(111.752 27.5537) rotate(138.18) scale(8.96313 8.20112)">
<stop offset="0.214067" stop-color="#D7D6D8"/>
<stop offset="1" stop-color="#D7D6D8" stop-opacity="0"/>
</radialGradient>
<linearGradient id="paint7_linear_167_820" x1="91.2626" y1="47.0712" x2="105.046" y2="47.0712" gradientUnits="userSpaceOnUse">
<stop stop-color="#58E6FF"/>
<stop offset="1" stop-color="#44B8FF"/>
</linearGradient>
<linearGradient id="paint8_linear_167_820" x1="109.498" y1="45.2271" x2="99.2958" y2="45.2271" gradientUnits="userSpaceOnUse">
<stop offset="0.43825" stop-color="#1E8DDC"/>
<stop offset="0.598779" stop-color="#2EB4FF"/>
<stop offset="0.701518" stop-color="#41B8FB" stop-opacity="0"/>
</linearGradient>
<linearGradient id="paint9_linear_167_820" x1="97.5757" y1="38.0251" x2="97.5757" y2="45.1952" gradientUnits="userSpaceOnUse">
<stop offset="0.466484" stop-color="#2CA5EB"/>
<stop offset="0.46875" stop-color="#36AEF1"/>
<stop offset="0.604167" stop-color="#36AEF1" stop-opacity="0.7"/>
<stop offset="0.807292" stop-color="#36AEF1" stop-opacity="0.15"/>
<stop offset="0.95701" stop-color="#36AEF1" stop-opacity="0"/>
</linearGradient>
<linearGradient id="paint10_linear_167_820" x1="94.3374" y1="47.6249" x2="85.271" y2="47.5756" gradientUnits="userSpaceOnUse">
<stop offset="0.19012" stop-color="#BAF7FB" stop-opacity="0"/>
<stop offset="0.594617" stop-color="#80FFFF"/>
</linearGradient>
<linearGradient id="paint11_linear_167_820" x1="16.0751" y1="47.0712" x2="29.8583" y2="47.0712" gradientUnits="userSpaceOnUse">
<stop stop-color="#47ABE5"/>
<stop offset="1" stop-color="#44B8FF"/>
</linearGradient>
<linearGradient id="paint12_linear_167_820" x1="34.3103" y1="45.2271" x2="24.1083" y2="45.2271" gradientUnits="userSpaceOnUse">
<stop offset="0.43825" stop-color="#1E8DDC"/>
<stop offset="0.598779" stop-color="#2EB4FF"/>
<stop offset="0.701518" stop-color="#41B8FB" stop-opacity="0"/>
</linearGradient>
<linearGradient id="paint13_linear_167_820" x1="22.3882" y1="38.0251" x2="22.3882" y2="45.1952" gradientUnits="userSpaceOnUse">
<stop offset="0.264268" stop-color="#228EE3"/>
<stop offset="0.46875" stop-color="#228EE3"/>
<stop offset="0.604167" stop-color="#228EE3" stop-opacity="0.7"/>
<stop offset="0.807292" stop-color="#228EE3" stop-opacity="0.15"/>
<stop offset="0.95701" stop-color="#228EE3" stop-opacity="0"/>
</linearGradient>
<linearGradient id="paint14_linear_167_820" x1="23.2209" y1="50.4291" x2="23.2193" y2="57.7983" gradientUnits="userSpaceOnUse">
<stop stop-color="#228EE3" stop-opacity="0"/>
<stop offset="0.185088" stop-color="#228EE3" stop-opacity="0.2"/>
<stop offset="0.466383" stop-color="#228EE3"/>
</linearGradient>
<linearGradient id="paint15_linear_167_820" x1="19.1499" y1="47.6249" x2="10.0835" y2="47.5756" gradientUnits="userSpaceOnUse">
<stop offset="0.289255" stop-color="#228EE3" stop-opacity="0"/>
<stop offset="0.774692" stop-color="#228EE3"/>
</linearGradient>
<linearGradient id="paint16_linear_167_820" x1="91.2626" y1="65.6103" x2="105.046" y2="65.6103" gradientUnits="userSpaceOnUse">
<stop stop-color="#58E6FF"/>
<stop offset="1" stop-color="#44B8FF"/>
</linearGradient>
<linearGradient id="paint17_linear_167_820" x1="109.498" y1="63.7662" x2="99.2958" y2="63.7662" gradientUnits="userSpaceOnUse">
<stop offset="0.43825" stop-color="#1E8DDC"/>
<stop offset="0.598779" stop-color="#2EB4FF"/>
<stop offset="0.701518" stop-color="#41B8FB" stop-opacity="0"/>
</linearGradient>
<linearGradient id="paint18_linear_167_820" x1="97.5757" y1="56.5641" x2="97.5757" y2="63.7343" gradientUnits="userSpaceOnUse">
<stop offset="0.466484" stop-color="#2CA5EB"/>
<stop offset="0.46875" stop-color="#36AEF1"/>
<stop offset="0.604167" stop-color="#36AEF1" stop-opacity="0.7"/>
<stop offset="0.807292" stop-color="#36AEF1" stop-opacity="0.15"/>
<stop offset="0.95701" stop-color="#36AEF1" stop-opacity="0"/>
</linearGradient>
<linearGradient id="paint19_linear_167_820" x1="94.3374" y1="66.164" x2="85.271" y2="66.1146" gradientUnits="userSpaceOnUse">
<stop offset="0.19012" stop-color="#BAF7FB" stop-opacity="0"/>
<stop offset="0.594617" stop-color="#80FFFF"/>
</linearGradient>
<linearGradient id="paint20_linear_167_820" x1="16.0751" y1="65.6103" x2="29.8583" y2="65.6103" gradientUnits="userSpaceOnUse">
<stop stop-color="#47ABE5"/>
<stop offset="1" stop-color="#44B8FF"/>
</linearGradient>
<linearGradient id="paint21_linear_167_820" x1="34.3103" y1="63.7662" x2="24.1083" y2="63.7662" gradientUnits="userSpaceOnUse">
<stop offset="0.43825" stop-color="#1E8DDC"/>
<stop offset="0.598779" stop-color="#2EB4FF"/>
<stop offset="0.701518" stop-color="#41B8FB" stop-opacity="0"/>
</linearGradient>
<linearGradient id="paint22_linear_167_820" x1="22.3882" y1="56.5641" x2="22.3882" y2="63.7343" gradientUnits="userSpaceOnUse">
<stop offset="0.264268" stop-color="#228EE3"/>
<stop offset="0.46875" stop-color="#228EE3"/>
<stop offset="0.604167" stop-color="#228EE3" stop-opacity="0.7"/>
<stop offset="0.807292" stop-color="#228EE3" stop-opacity="0.15"/>
<stop offset="0.95701" stop-color="#228EE3" stop-opacity="0"/>
</linearGradient>
<linearGradient id="paint23_linear_167_820" x1="23.2209" y1="68.9682" x2="23.2193" y2="76.3374" gradientUnits="userSpaceOnUse">
<stop stop-color="#228EE3" stop-opacity="0"/>
<stop offset="0.185088" stop-color="#228EE3" stop-opacity="0.2"/>
<stop offset="0.466383" stop-color="#228EE3"/>
</linearGradient>
<linearGradient id="paint24_linear_167_820" x1="19.1499" y1="66.164" x2="10.0835" y2="66.1146" gradientUnits="userSpaceOnUse">
<stop offset="0.289255" stop-color="#228EE3" stop-opacity="0"/>
<stop offset="0.774692" stop-color="#228EE3"/>
</linearGradient>
<linearGradient id="paint25_linear_167_820" x1="91.2626" y1="84.1884" x2="105.046" y2="84.1884" gradientUnits="userSpaceOnUse">
<stop stop-color="#58E6FF"/>
<stop offset="1" stop-color="#44B8FF"/>
</linearGradient>
<linearGradient id="paint26_linear_167_820" x1="109.498" y1="82.3443" x2="99.2958" y2="82.3443" gradientUnits="userSpaceOnUse">
<stop offset="0.43825" stop-color="#1E8DDC"/>
<stop offset="0.598779" stop-color="#2EB4FF"/>
<stop offset="0.701518" stop-color="#41B8FB" stop-opacity="0"/>
</linearGradient>
<linearGradient id="paint27_linear_167_820" x1="97.5757" y1="75.1422" x2="97.5757" y2="82.3124" gradientUnits="userSpaceOnUse">
<stop offset="0.466484" stop-color="#2CA5EB"/>
<stop offset="0.46875" stop-color="#36AEF1"/>
<stop offset="0.604167" stop-color="#36AEF1" stop-opacity="0.7"/>
<stop offset="0.807292" stop-color="#36AEF1" stop-opacity="0.15"/>
<stop offset="0.95701" stop-color="#36AEF1" stop-opacity="0"/>
</linearGradient>
<linearGradient id="paint28_linear_167_820" x1="94.3374" y1="84.7421" x2="85.271" y2="84.6927" gradientUnits="userSpaceOnUse">
<stop offset="0.19012" stop-color="#BAF7FB" stop-opacity="0"/>
<stop offset="0.594617" stop-color="#80FFFF"/>
</linearGradient>
<linearGradient id="paint29_linear_167_820" x1="16.0751" y1="84.1884" x2="29.8583" y2="84.1884" gradientUnits="userSpaceOnUse">
<stop stop-color="#47ABE5"/>
<stop offset="1" stop-color="#44B8FF"/>
</linearGradient>
<linearGradient id="paint30_linear_167_820" x1="34.3103" y1="82.3443" x2="24.1083" y2="82.3443" gradientUnits="userSpaceOnUse">
<stop offset="0.43825" stop-color="#1E8DDC"/>
<stop offset="0.598779" stop-color="#2EB4FF"/>
<stop offset="0.701518" stop-color="#41B8FB" stop-opacity="0"/>
</linearGradient>
<linearGradient id="paint31_linear_167_820" x1="22.3882" y1="75.1422" x2="22.3882" y2="82.3124" gradientUnits="userSpaceOnUse">
<stop offset="0.264268" stop-color="#228EE3"/>
<stop offset="0.46875" stop-color="#228EE3"/>
<stop offset="0.604167" stop-color="#228EE3" stop-opacity="0.7"/>
<stop offset="0.807292" stop-color="#228EE3" stop-opacity="0.15"/>
<stop offset="0.95701" stop-color="#228EE3" stop-opacity="0"/>
</linearGradient>
<linearGradient id="paint32_linear_167_820" x1="23.2209" y1="87.5463" x2="23.2193" y2="94.9155" gradientUnits="userSpaceOnUse">
<stop stop-color="#228EE3" stop-opacity="0"/>
<stop offset="0.185088" stop-color="#228EE3" stop-opacity="0.2"/>
<stop offset="0.466383" stop-color="#228EE3"/>
</linearGradient>
<linearGradient id="paint33_linear_167_820" x1="19.1499" y1="84.7421" x2="10.0835" y2="84.6927" gradientUnits="userSpaceOnUse">
<stop offset="0.289255" stop-color="#228EE3" stop-opacity="0"/>
<stop offset="0.774692" stop-color="#228EE3"/>
</linearGradient>
<linearGradient id="paint34_linear_167_820" x1="29.1475" y1="103.084" x2="86.34" y2="103.084" gradientUnits="userSpaceOnUse">
<stop stop-color="#ACA3B3"/>
<stop offset="1" stop-color="#BEB3C4"/>
</linearGradient>
<linearGradient id="paint35_linear_167_820" x1="59.9805" y1="6.68924" x2="59.9805" y2="16.6241" gradientUnits="userSpaceOnUse">
<stop stop-color="#B8B7B8"/>
<stop offset="1" stop-color="#B8B7B8" stop-opacity="0"/>
</linearGradient>
<linearGradient id="paint36_linear_167_820" x1="97.4805" y1="66.8354" x2="89.2936" y2="66.8354" gradientUnits="userSpaceOnUse">
<stop stop-color="#E0DDE2"/>
<stop offset="1" stop-color="#E0DDE2" stop-opacity="0"/>
</linearGradient>
<radialGradient id="paint37_radial_167_820" cx="0" cy="0" r="1" gradientUnits="userSpaceOnUse" gradientTransform="translate(98.96 7.63184) rotate(136.93) scale(14.151 10.4153)">
<stop stop-color="#E8E7E9"/>
<stop offset="1" stop-color="#E8E7E9" stop-opacity="0"/>
</radialGradient>
<radialGradient id="paint38_radial_167_820" cx="0" cy="0" r="1" gradientUnits="userSpaceOnUse" gradientTransform="translate(59.9805 112.632) rotate(-90) scale(13.7096 33.2066)">
<stop offset="0.216577" stop-color="#AFA5B7"/>
<stop offset="1" stop-color="#AFA5B7" stop-opacity="0"/>
</radialGradient>
<linearGradient id="paint39_linear_167_820" x1="59.9805" y1="4.87155" x2="59.9805" y2="12.4694" gradientUnits="userSpaceOnUse">
<stop offset="0.34375"/>
<stop offset="0.5625" stop-opacity="0.3"/>
<stop offset="0.765625" stop-opacity="0.167857"/>
<stop offset="1" stop-opacity="0"/>
</linearGradient>
<linearGradient id="paint40_linear_167_820" x1="17.5968" y1="12.4691" x2="47.5692" y2="12.4691" gradientUnits="userSpaceOnUse">
<stop offset="0.0807326"/>
<stop offset="0.364583" stop-opacity="0.6"/>
<stop offset="0.494792" stop-opacity="0.3"/>
<stop offset="0.567708" stop-opacity="0.167857"/>
<stop offset="1" stop-opacity="0"/>
</linearGradient>
<radialGradient id="paint41_radial_167_820" cx="0" cy="0" r="1" gradientUnits="userSpaceOnUse" gradientTransform="translate(8.2257 -1.55812) rotate(32.8481) scale(30.9622 25.6229)">
<stop offset="0.128801" stop-opacity="0.25"/>
<stop offset="0.456546" stop-opacity="0.25"/>
<stop offset="0.857943" stop-opacity="0"/>
</radialGradient>
<linearGradient id="paint42_linear_167_820" x1="48.7305" y1="103.268" x2="73.0629" y2="103.268" gradientUnits="userSpaceOnUse">
<stop stop-color="#4E405B"/>
<stop offset="1" stop-color="#3F324C"/>
</linearGradient>
<linearGradient id="paint43_linear_167_820" x1="46.2735" y1="112.632" x2="55.1521" y2="112.632" gradientUnits="userSpaceOnUse">
<stop offset="0.244792" stop-color="#574C64"/>
<stop offset="0.90625" stop-color="#574C64" stop-opacity="0"/>
</linearGradient>
<linearGradient id="paint44_linear_167_820" x1="65.5675" y1="112.632" x2="82.8979" y2="112.632" gradientUnits="userSpaceOnUse">
<stop stop-color="#2D1E3C" stop-opacity="0"/>
<stop offset="0.0989583" stop-color="#2D1E3C" stop-opacity="0.15"/>
<stop offset="0.280788" stop-color="#2D1E3C" stop-opacity="0.75"/>
<stop offset="0.399015" stop-color="#2D1E3C"/>
</linearGradient>
<linearGradient id="paint45_linear_167_820" x1="65.5675" y1="97.427" x2="65.5675" y2="87.3678" gradientUnits="userSpaceOnUse">
<stop stop-color="#2D1E3C" stop-opacity="0"/>
<stop offset="0.0989583" stop-color="#2D1E3C" stop-opacity="0.15"/>
<stop offset="0.280788" stop-color="#2D1E3C" stop-opacity="0.75"/>
<stop offset="0.399015" stop-color="#2D1E3C"/>
</linearGradient>
<linearGradient id="paint46_linear_167_820" x1="42.3876" y1="24.6298" x2="56.1708" y2="24.6298" gradientUnits="userSpaceOnUse">
<stop stop-color="#58E6FF"/>
<stop offset="1" stop-color="#44B8FF"/>
</linearGradient>
<linearGradient id="paint47_linear_167_820" x1="60.6228" y1="22.7857" x2="50.4208" y2="22.7857" gradientUnits="userSpaceOnUse">
<stop offset="0.43825" stop-color="#1E8DDC"/>
<stop offset="0.598779" stop-color="#2EB4FF"/>
<stop offset="0.701518" stop-color="#41B8FB" stop-opacity="0"/>
</linearGradient>
<linearGradient id="paint48_linear_167_820" x1="48.7007" y1="15.5836" x2="48.7007" y2="22.7538" gradientUnits="userSpaceOnUse">
<stop offset="0.466484" stop-color="#2CA5EB"/>
<stop offset="0.46875" stop-color="#36AEF1"/>
<stop offset="0.604167" stop-color="#36AEF1" stop-opacity="0.7"/>
<stop offset="0.807292" stop-color="#36AEF1" stop-opacity="0.15"/>
<stop offset="0.95701" stop-color="#36AEF1" stop-opacity="0"/>
</linearGradient>
<linearGradient id="paint49_linear_167_820" x1="49.5334" y1="27.9877" x2="49.5318" y2="35.3569" gradientUnits="userSpaceOnUse">
<stop stop-color="#FAFAFA" stop-opacity="0"/>
<stop offset="0.161013" stop-color="#80FFFF" stop-opacity="0.2"/>
<stop offset="0.564552" stop-color="#80FFFF"/>
</linearGradient>
<linearGradient id="paint50_linear_167_820" x1="45.4624" y1="25.1835" x2="36.396" y2="25.1341" gradientUnits="userSpaceOnUse">
<stop offset="0.19012" stop-color="#BAF7FB" stop-opacity="0"/>
<stop offset="0.594617" stop-color="#80FFFF"/>
</linearGradient>
<linearGradient id="paint51_linear_167_820" x1="42.3876" y1="43.1884" x2="56.1708" y2="43.1884" gradientUnits="userSpaceOnUse">
<stop stop-color="#58E6FF"/>
<stop offset="1" stop-color="#44B8FF"/>
</linearGradient>
<linearGradient id="paint52_linear_167_820" x1="60.6228" y1="41.3443" x2="50.4208" y2="41.3443" gradientUnits="userSpaceOnUse">
<stop offset="0.43825" stop-color="#1E8DDC"/>
<stop offset="0.598779" stop-color="#2EB4FF"/>
<stop offset="0.701518" stop-color="#41B8FB" stop-opacity="0"/>
</linearGradient>
<linearGradient id="paint53_linear_167_820" x1="48.7007" y1="34.1422" x2="48.7007" y2="41.3124" gradientUnits="userSpaceOnUse">
<stop offset="0.466484" stop-color="#2CA5EB"/>
<stop offset="0.46875" stop-color="#36AEF1"/>
<stop offset="0.604167" stop-color="#36AEF1" stop-opacity="0.7"/>
<stop offset="0.807292" stop-color="#36AEF1" stop-opacity="0.15"/>
<stop offset="0.95701" stop-color="#36AEF1" stop-opacity="0"/>
</linearGradient>
<linearGradient id="paint54_linear_167_820" x1="49.5334" y1="46.5463" x2="49.5318" y2="53.9155" gradientUnits="userSpaceOnUse">
<stop stop-color="#FAFAFA" stop-opacity="0"/>
<stop offset="0.161013" stop-color="#80FFFF" stop-opacity="0.2"/>
<stop offset="0.564552" stop-color="#80FFFF"/>
</linearGradient>
<linearGradient id="paint55_linear_167_820" x1="45.4624" y1="43.7421" x2="36.396" y2="43.6927" gradientUnits="userSpaceOnUse">
<stop offset="0.19012" stop-color="#BAF7FB" stop-opacity="0"/>
<stop offset="0.594617" stop-color="#80FFFF"/>
</linearGradient>
<linearGradient id="paint56_linear_167_820" x1="42.3876" y1="61.746" x2="56.1708" y2="61.746" gradientUnits="userSpaceOnUse">
<stop stop-color="#58E6FF"/>
<stop offset="1" stop-color="#44B8FF"/>
</linearGradient>
<linearGradient id="paint57_linear_167_820" x1="60.6228" y1="59.9019" x2="50.4208" y2="59.9019" gradientUnits="userSpaceOnUse">
<stop offset="0.43825" stop-color="#1E8DDC"/>
<stop offset="0.598779" stop-color="#2EB4FF"/>
<stop offset="0.701518" stop-color="#41B8FB" stop-opacity="0"/>
</linearGradient>
<linearGradient id="paint58_linear_167_820" x1="48.7007" y1="52.6999" x2="48.7007" y2="59.87" gradientUnits="userSpaceOnUse">
<stop offset="0.466484" stop-color="#2CA5EB"/>
<stop offset="0.46875" stop-color="#36AEF1"/>
<stop offset="0.604167" stop-color="#36AEF1" stop-opacity="0.7"/>
<stop offset="0.807292" stop-color="#36AEF1" stop-opacity="0.15"/>
<stop offset="0.95701" stop-color="#36AEF1" stop-opacity="0"/>
</linearGradient>
<linearGradient id="paint59_linear_167_820" x1="49.5334" y1="65.1039" x2="49.5318" y2="72.4731" gradientUnits="userSpaceOnUse">
<stop stop-color="#FAFAFA" stop-opacity="0"/>
<stop offset="0.161013" stop-color="#80FFFF" stop-opacity="0.2"/>
<stop offset="0.564552" stop-color="#80FFFF"/>
</linearGradient>
<linearGradient id="paint60_linear_167_820" x1="45.4624" y1="62.2997" x2="36.396" y2="62.2504" gradientUnits="userSpaceOnUse">
<stop offset="0.19012" stop-color="#BAF7FB" stop-opacity="0"/>
<stop offset="0.594617" stop-color="#80FFFF"/>
</linearGradient>
<linearGradient id="paint61_linear_167_820" x1="42.3876" y1="80.8759" x2="56.1708" y2="80.8759" gradientUnits="userSpaceOnUse">
<stop stop-color="#58E6FF"/>
<stop offset="1" stop-color="#44B8FF"/>
</linearGradient>
<linearGradient id="paint62_linear_167_820" x1="60.6228" y1="79.0318" x2="50.4208" y2="79.0318" gradientUnits="userSpaceOnUse">
<stop offset="0.43825" stop-color="#1E8DDC"/>
<stop offset="0.598779" stop-color="#2EB4FF"/>
<stop offset="0.701518" stop-color="#41B8FB" stop-opacity="0"/>
</linearGradient>
<linearGradient id="paint63_linear_167_820" x1="48.7007" y1="71.8297" x2="48.7007" y2="78.9999" gradientUnits="userSpaceOnUse">
<stop offset="0.466484" stop-color="#2CA5EB"/>
<stop offset="0.46875" stop-color="#36AEF1"/>
<stop offset="0.604167" stop-color="#36AEF1" stop-opacity="0.7"/>
<stop offset="0.807292" stop-color="#36AEF1" stop-opacity="0.15"/>
<stop offset="0.95701" stop-color="#36AEF1" stop-opacity="0"/>
</linearGradient>
<linearGradient id="paint64_linear_167_820" x1="49.5334" y1="84.2338" x2="49.5318" y2="91.603" gradientUnits="userSpaceOnUse">
<stop stop-color="#FAFAFA" stop-opacity="0"/>
<stop offset="0.161013" stop-color="#80FFFF" stop-opacity="0.2"/>
<stop offset="0.564552" stop-color="#80FFFF"/>
</linearGradient>
<linearGradient id="paint65_linear_167_820" x1="45.4624" y1="81.4296" x2="36.396" y2="81.3802" gradientUnits="userSpaceOnUse">
<stop offset="0.19012" stop-color="#BAF7FB" stop-opacity="0"/>
<stop offset="0.594617" stop-color="#80FFFF"/>
</linearGradient>
<linearGradient id="paint66_linear_167_820" x1="64.829" y1="24.6298" x2="78.6123" y2="24.6298" gradientUnits="userSpaceOnUse">
<stop stop-color="#58E6FF"/>
<stop offset="1" stop-color="#44B8FF"/>
</linearGradient>
<linearGradient id="paint67_linear_167_820" x1="83.0642" y1="22.7857" x2="72.8622" y2="22.7857" gradientUnits="userSpaceOnUse">
<stop offset="0.43825" stop-color="#1E8DDC"/>
<stop offset="0.598779" stop-color="#2EB4FF"/>
<stop offset="0.701518" stop-color="#41B8FB" stop-opacity="0"/>
</linearGradient>
<linearGradient id="paint68_linear_167_820" x1="71.1421" y1="15.5836" x2="71.1421" y2="22.7538" gradientUnits="userSpaceOnUse">
<stop offset="0.466484" stop-color="#2CA5EB"/>
<stop offset="0.46875" stop-color="#36AEF1"/>
<stop offset="0.604167" stop-color="#36AEF1" stop-opacity="0.7"/>
<stop offset="0.807292" stop-color="#36AEF1" stop-opacity="0.15"/>
<stop offset="0.95701" stop-color="#36AEF1" stop-opacity="0"/>
</linearGradient>
<linearGradient id="paint69_linear_167_820" x1="71.9748" y1="27.9877" x2="71.9732" y2="35.3569" gradientUnits="userSpaceOnUse">
<stop stop-color="#FAFAFA" stop-opacity="0"/>
<stop offset="0.161013" stop-color="#80FFFF" stop-opacity="0.2"/>
<stop offset="0.564552" stop-color="#80FFFF"/>
</linearGradient>
<linearGradient id="paint70_linear_167_820" x1="67.9038" y1="25.1835" x2="58.8374" y2="25.1341" gradientUnits="userSpaceOnUse">
<stop offset="0.19012" stop-color="#BAF7FB" stop-opacity="0"/>
<stop offset="0.594617" stop-color="#80FFFF"/>
</linearGradient>
<linearGradient id="paint71_linear_167_820" x1="64.829" y1="43.1884" x2="78.6123" y2="43.1884" gradientUnits="userSpaceOnUse">
<stop stop-color="#58E6FF"/>
<stop offset="1" stop-color="#44B8FF"/>
</linearGradient>
<linearGradient id="paint72_linear_167_820" x1="83.0642" y1="41.3443" x2="72.8622" y2="41.3443" gradientUnits="userSpaceOnUse">
<stop offset="0.43825" stop-color="#1E8DDC"/>
<stop offset="0.598779" stop-color="#2EB4FF"/>
<stop offset="0.701518" stop-color="#41B8FB" stop-opacity="0"/>
</linearGradient>
<linearGradient id="paint73_linear_167_820" x1="71.1421" y1="34.1422" x2="71.1421" y2="41.3124" gradientUnits="userSpaceOnUse">
<stop offset="0.466484" stop-color="#2CA5EB"/>
<stop offset="0.46875" stop-color="#36AEF1"/>
<stop offset="0.604167" stop-color="#36AEF1" stop-opacity="0.7"/>
<stop offset="0.807292" stop-color="#36AEF1" stop-opacity="0.15"/>
<stop offset="0.95701" stop-color="#36AEF1" stop-opacity="0"/>
</linearGradient>
<linearGradient id="paint74_linear_167_820" x1="71.9748" y1="46.5463" x2="71.9732" y2="53.9155" gradientUnits="userSpaceOnUse">
<stop stop-color="#FAFAFA" stop-opacity="0"/>
<stop offset="0.161013" stop-color="#80FFFF" stop-opacity="0.2"/>
<stop offset="0.564552" stop-color="#80FFFF"/>
</linearGradient>
<linearGradient id="paint75_linear_167_820" x1="67.9038" y1="43.7421" x2="58.8374" y2="43.6927" gradientUnits="userSpaceOnUse">
<stop offset="0.19012" stop-color="#BAF7FB" stop-opacity="0"/>
<stop offset="0.594617" stop-color="#80FFFF"/>
</linearGradient>
<linearGradient id="paint76_linear_167_820" x1="64.829" y1="61.746" x2="78.6123" y2="61.746" gradientUnits="userSpaceOnUse">
<stop stop-color="#58E6FF"/>
<stop offset="1" stop-color="#44B8FF"/>
</linearGradient>
<linearGradient id="paint77_linear_167_820" x1="83.0642" y1="59.9019" x2="72.8622" y2="59.9019" gradientUnits="userSpaceOnUse">
<stop offset="0.43825" stop-color="#1E8DDC"/>
<stop offset="0.598779" stop-color="#2EB4FF"/>
<stop offset="0.701518" stop-color="#41B8FB" stop-opacity="0"/>
</linearGradient>
<linearGradient id="paint78_linear_167_820" x1="71.1421" y1="52.6999" x2="71.1421" y2="59.87" gradientUnits="userSpaceOnUse">
<stop offset="0.466484" stop-color="#2CA5EB"/>
<stop offset="0.46875" stop-color="#36AEF1"/>
<stop offset="0.604167" stop-color="#36AEF1" stop-opacity="0.7"/>
<stop offset="0.807292" stop-color="#36AEF1" stop-opacity="0.15"/>
<stop offset="0.95701" stop-color="#36AEF1" stop-opacity="0"/>
</linearGradient>
<linearGradient id="paint79_linear_167_820" x1="71.9748" y1="65.1039" x2="71.9732" y2="72.4731" gradientUnits="userSpaceOnUse">
<stop stop-color="#FAFAFA" stop-opacity="0"/>
<stop offset="0.161013" stop-color="#80FFFF" stop-opacity="0.2"/>
<stop offset="0.564552" stop-color="#80FFFF"/>
</linearGradient>
<linearGradient id="paint80_linear_167_820" x1="67.9038" y1="62.2997" x2="58.8374" y2="62.2504" gradientUnits="userSpaceOnUse">
<stop offset="0.19012" stop-color="#BAF7FB" stop-opacity="0"/>
<stop offset="0.594617" stop-color="#80FFFF"/>
</linearGradient>
<linearGradient id="paint81_linear_167_820" x1="64.829" y1="80.8759" x2="78.6123" y2="80.8759" gradientUnits="userSpaceOnUse">
<stop stop-color="#58E6FF"/>
<stop offset="1" stop-color="#44B8FF"/>
</linearGradient>
<linearGradient id="paint82_linear_167_820" x1="83.0642" y1="79.0318" x2="72.8622" y2="79.0318" gradientUnits="userSpaceOnUse">
<stop offset="0.43825" stop-color="#1E8DDC"/>
<stop offset="0.598779" stop-color="#2EB4FF"/>
<stop offset="0.701518" stop-color="#41B8FB" stop-opacity="0"/>
</linearGradient>
<linearGradient id="paint83_linear_167_820" x1="71.1421" y1="71.8297" x2="71.1421" y2="78.9999" gradientUnits="userSpaceOnUse">
<stop offset="0.466484" stop-color="#2CA5EB"/>
<stop offset="0.46875" stop-color="#36AEF1"/>
<stop offset="0.604167" stop-color="#36AEF1" stop-opacity="0.7"/>
<stop offset="0.807292" stop-color="#36AEF1" stop-opacity="0.15"/>
<stop offset="0.95701" stop-color="#36AEF1" stop-opacity="0"/>
</linearGradient>
<linearGradient id="paint84_linear_167_820" x1="71.9748" y1="84.2338" x2="71.9732" y2="91.603" gradientUnits="userSpaceOnUse">
<stop stop-color="#FAFAFA" stop-opacity="0"/>
<stop offset="0.161013" stop-color="#80FFFF" stop-opacity="0.2"/>
<stop offset="0.564552" stop-color="#80FFFF"/>
</linearGradient>
<linearGradient id="paint85_linear_167_820" x1="67.9038" y1="81.4296" x2="58.8374" y2="81.3802" gradientUnits="userSpaceOnUse">
<stop offset="0.19012" stop-color="#BAF7FB" stop-opacity="0"/>
<stop offset="0.594617" stop-color="#80FFFF"/>
</linearGradient>
</defs>
</svg>
