<svg width="297" height="297" viewBox="0 0 297 297" fill="none" xmlns="http://www.w3.org/2000/svg">
<path fill-rule="evenodd" clip-rule="evenodd" d="M114.469 37.125C64.9192 37.125 24.75 77.2942 24.75 126.844C24.75 238.219 173.25 259.875 173.25 259.875V216.562H182.531C232.081 216.562 272.25 176.393 272.25 126.844C272.25 77.2942 232.081 37.125 182.531 37.125H114.469ZM148.5 145.406C152.603 145.406 156.537 143.777 159.438 140.876C162.339 137.975 163.969 134.04 163.969 129.938C163.969 125.835 162.339 121.9 159.438 118.999C156.537 116.098 152.603 114.469 148.5 114.469C144.397 114.469 140.463 116.098 137.562 118.999C134.661 121.9 133.031 125.835 133.031 129.938C133.031 134.04 134.661 137.975 137.562 140.876C140.463 143.777 144.397 145.406 148.5 145.406ZM213.469 129.938C213.469 134.04 211.839 137.975 208.938 140.876C206.037 143.777 202.103 145.406 198 145.406C193.897 145.406 189.963 143.777 187.062 140.876C184.161 137.975 182.531 134.04 182.531 129.938C182.531 125.835 184.161 121.9 187.062 118.999C189.963 116.098 193.897 114.469 198 114.469C202.103 114.469 206.037 116.098 208.938 118.999C211.839 121.9 213.469 125.835 213.469 129.938ZM99 145.406C103.103 145.406 107.037 143.777 109.938 140.876C112.839 137.975 114.469 134.04 114.469 129.938C114.469 125.835 112.839 121.9 109.938 118.999C107.037 116.098 103.103 114.469 99 114.469C94.8974 114.469 90.9629 116.098 88.0619 118.999C85.161 121.9 83.5312 125.835 83.5312 129.938C83.5312 134.04 85.161 137.975 88.0619 140.876C90.9629 143.777 94.8974 145.406 99 145.406Z" fill="white"/>
</svg>
