<svg width="48" height="48" viewBox="0 0 48 48" fill="none" xmlns="http://www.w3.org/2000/svg">
<path d="M24 28.308C23.5867 28.308 23.2267 28.1547 22.92 27.848C22.6133 27.5414 22.46 27.1814 22.46 26.768C22.46 26.3547 22.6133 25.9954 22.92 25.69C23.2267 25.3847 23.5867 25.2314 24 25.23C24.4133 25.2287 24.7733 25.382 25.08 25.69C25.3867 25.998 25.54 26.358 25.54 26.77C25.54 27.182 25.3867 27.5414 25.08 27.848C24.7733 28.1547 24.4133 28.308 24 28.308ZM16 28.308C15.5867 28.308 15.2267 28.1547 14.92 27.848C14.6133 27.5414 14.46 27.1814 14.46 26.768C14.46 26.3547 14.6133 25.9954 14.92 25.69C15.2267 25.3847 15.5867 25.2314 16 25.23C16.4133 25.2287 16.7733 25.382 17.08 25.69C17.3867 25.998 17.54 26.358 17.54 26.77C17.54 27.182 17.3867 27.5414 17.08 27.848C16.7733 28.1547 16.4133 28.308 16 28.308ZM32 28.308C31.5867 28.308 31.2267 28.1547 30.92 27.848C30.6133 27.5414 30.46 27.1814 30.46 26.768C30.46 26.3547 30.6133 25.9954 30.92 25.69C31.2267 25.3847 31.5867 25.2314 32 25.23C32.4133 25.2287 32.7733 25.382 33.08 25.69C33.3867 25.998 33.54 26.358 33.54 26.77C33.54 27.182 33.3867 27.5414 33.08 27.848C32.7733 28.1547 32.4133 28.308 32 28.308ZM24 36C23.5867 36 23.2267 35.8467 22.92 35.54C22.6133 35.2334 22.46 34.8734 22.46 34.46C22.46 34.0467 22.6133 33.6874 22.92 33.382C23.2267 33.0767 23.5867 32.9234 24 32.922C24.4133 32.9207 24.7733 33.074 25.08 33.382C25.3867 33.69 25.54 34.05 25.54 34.462C25.54 34.874 25.3867 35.234 25.08 35.542C24.7733 35.85 24.4133 36.0027 24 36ZM16 36C15.5867 36 15.2267 35.8467 14.92 35.54C14.6133 35.2334 14.46 34.8734 14.46 34.46C14.46 34.0467 14.6133 33.6874 14.92 33.382C15.2267 33.0767 15.5867 32.9234 16 32.922C16.4133 32.9207 16.7733 33.074 17.08 33.382C17.3867 33.69 17.54 34.05 17.54 34.462C17.54 34.874 17.3867 35.234 17.08 35.542C16.7733 35.85 16.4133 36.0027 16 36ZM32 36C31.5867 36 31.2267 35.8467 30.92 35.54C30.6133 35.2334 30.46 34.8734 30.46 34.46C30.46 34.0467 30.6133 33.6874 30.92 33.382C31.2267 33.0767 31.5867 32.9234 32 32.922C32.4133 32.9207 32.7733 33.074 33.08 33.382C33.3867 33.69 33.54 34.05 33.54 34.462C33.54 34.874 33.3867 35.234 33.08 35.542C32.7733 35.85 32.4133 36.0027 32 36ZM11.232 42C10.3107 42 9.542 41.692 8.926 41.076C8.31 40.46 8.00133 39.6914 8 38.77V13.23C8 12.31 8.30867 11.542 8.926 10.926C9.54333 10.31 10.312 10.0014 11.232 10H14.77V5.54004H16.924V10H31.232V5.54004H33.232V10H36.77C37.69 10 38.4587 10.3087 39.076 10.926C39.6933 11.5434 40.0013 12.312 40 13.232V38.77C40 39.69 39.692 40.4587 39.076 41.076C38.46 41.6934 37.6907 42.0014 36.768 42H11.232ZM11.232 40H36.77C37.0767 40 37.3587 39.872 37.616 39.616C37.8733 39.36 38.0013 39.0774 38 38.768V21.232H10V38.77C10 39.0767 10.128 39.3587 10.384 39.616C10.64 39.8734 10.922 40.0014 11.23 40" fill="black"/>
</svg>
