<svg width="297" height="297" viewBox="0 0 297 297" fill="none" xmlns="http://www.w3.org/2000/svg">
<path d="M94.3903 37.125C96.3105 31.694 99.8678 26.9923 104.572 23.6677C109.276 20.3432 114.896 18.5595 120.656 18.5625H176.344C182.104 18.5595 187.724 20.3432 192.428 23.6677C197.132 26.9923 200.69 31.694 202.61 37.125H213.469C220.853 37.125 227.936 40.0585 233.157 45.2802C238.379 50.502 241.312 57.5841 241.312 64.9687V139.144C238.169 139.144 235.094 139.664 232.087 140.704C232.448 133.872 230.282 127.146 226.001 121.81C221.721 116.474 215.625 112.9 208.878 111.771C202.13 110.642 195.203 112.036 189.419 115.688C183.634 119.34 179.396 124.994 177.513 131.571L171.369 153.066H154.069C151.845 149.206 148.728 145.936 144.979 143.531C141.229 141.125 136.958 139.654 132.522 139.241C128.087 138.829 123.617 139.486 119.489 141.158C115.36 142.831 111.693 145.469 108.795 148.853L80.9511 181.337C76.6224 186.384 74.2429 192.814 74.2429 199.463C74.2429 206.113 76.6224 212.542 80.9511 217.59L108.795 250.074C112.738 254.674 118.074 257.863 123.993 259.156C129.913 260.449 136.092 259.776 141.595 257.239L140.37 261.508C138.718 267.3 139.033 273.166 140.889 278.437H83.5312C76.1466 278.437 69.0645 275.504 63.8427 270.282C58.621 265.061 55.6875 257.978 55.6875 250.594V64.9687C55.6875 57.5841 58.621 50.502 63.8427 45.2802C69.0645 40.0585 76.1466 37.125 83.5312 37.125H94.3903ZM120.656 37.125C118.195 37.125 115.834 38.1028 114.093 39.8434C112.353 41.584 111.375 43.9447 111.375 46.4063C111.375 48.8678 112.353 51.2285 114.093 52.9691C115.834 54.7097 118.195 55.6875 120.656 55.6875H176.344C178.805 55.6875 181.166 54.7097 182.907 52.9691C184.647 51.2285 185.625 48.8678 185.625 46.4063C185.625 43.9447 184.647 41.584 182.907 39.8434C181.166 38.1028 178.805 37.125 176.344 37.125H120.656ZM114.326 199.473L136.973 225.906C138.544 227.778 139.313 230.194 139.113 232.63C138.913 235.066 137.76 237.325 135.905 238.916C134.05 240.507 131.642 241.302 129.204 241.129C126.766 240.956 124.495 239.828 122.884 237.99L95.04 205.505C93.6021 203.824 92.8119 201.685 92.8119 199.473C92.8119 197.26 93.6021 195.121 95.04 193.44L122.884 160.955C124.484 159.085 126.761 157.926 129.216 157.735C131.67 157.543 134.1 158.334 135.97 159.934C137.841 161.534 139 163.812 139.191 166.266C139.383 168.721 138.591 171.15 136.991 173.021L114.326 199.473ZM213.209 141.78L213.395 140.908C213.804 138.573 213.304 136.171 211.999 134.193C210.693 132.214 208.68 130.811 206.372 130.27C204.065 129.728 201.637 130.09 199.588 131.281C197.539 132.473 196.023 134.403 195.352 136.676L158.227 266.613C157.893 267.786 157.793 269.012 157.933 270.224C158.073 271.435 158.451 272.606 159.044 273.671C160.241 275.823 162.244 277.41 164.612 278.085C166.98 278.759 169.519 278.465 171.671 277.268C173.822 276.07 175.409 274.067 176.084 271.699L213.209 141.78ZM235.28 238.992C234.353 238.2 233.592 237.233 233.039 236.147C232.487 235.06 232.154 233.876 232.059 232.66C231.964 231.445 232.109 230.223 232.487 229.064C232.864 227.905 233.466 226.832 234.259 225.906L256.942 199.473L234.259 173.002C232.659 171.132 231.867 168.702 232.059 166.248C232.25 163.794 233.409 161.516 235.28 159.916C237.15 158.316 239.58 157.525 242.034 157.716C244.489 157.908 246.766 159.066 248.366 160.937L276.21 193.421C277.648 195.102 278.438 197.242 278.438 199.454C278.438 201.666 277.648 203.806 276.21 205.487L248.366 237.971C246.764 239.839 244.485 240.995 242.031 241.183C239.576 241.37 237.148 240.576 235.28 238.974" fill="white"/>
</svg>
