<svg width="297" height="297" viewBox="0 0 297 297" fill="none" xmlns="http://www.w3.org/2000/svg">
<path d="M27.8438 69.6094C27.8437 58.5324 32.244 47.9092 40.0766 40.0766C47.9092 32.244 58.5324 27.8438 69.6094 27.8438H227.391C238.468 27.8438 249.091 32.244 256.923 40.0766C264.756 47.9092 269.156 58.5324 269.156 69.6094V227.391C269.156 238.468 264.756 249.091 256.923 256.923C249.091 264.756 238.468 269.156 227.391 269.156H69.6094C58.5324 269.156 47.9092 264.756 40.0766 256.923C32.244 249.091 27.8438 238.468 27.8438 227.391V69.6094ZM127.218 95.5319C125.478 93.7919 123.117 92.8145 120.656 92.8145C118.195 92.8145 115.835 93.7919 114.094 95.5319L67.6882 141.938C65.9482 143.679 64.9707 146.039 64.9707 148.5C64.9707 150.961 65.9482 153.321 67.6882 155.062L114.094 201.468C115.845 203.159 118.189 204.094 120.623 204.073C123.056 204.052 125.384 203.076 127.105 201.355C128.826 199.634 129.802 197.306 129.823 194.873C129.844 192.439 128.909 190.095 127.218 188.344L87.3737 148.5L127.218 108.656C128.958 106.915 129.936 104.555 129.936 102.094C129.936 99.6327 128.958 97.2724 127.218 95.5319ZM169.782 108.656L209.626 148.5L169.782 188.344C168.091 190.095 167.156 192.439 167.177 194.873C167.198 197.306 168.174 199.634 169.895 201.355C171.616 203.076 173.944 204.052 176.377 204.073C178.811 204.094 181.155 203.159 182.906 201.468L229.312 155.062C231.052 153.321 232.029 150.961 232.029 148.5C232.029 146.039 231.052 143.679 229.312 141.938L182.906 95.5319C182.049 94.6455 181.025 93.9384 179.893 93.452C178.761 92.9655 177.543 92.7095 176.31 92.6988C175.078 92.6881 173.856 92.9229 172.715 93.3896C171.575 93.8563 170.538 94.5454 169.667 95.4169C168.795 96.2883 168.106 97.3246 167.64 98.4652C167.173 99.6058 166.938 100.828 166.949 102.06C166.96 103.293 167.216 104.511 167.702 105.643C168.188 106.775 168.895 107.799 169.782 108.656Z" fill="white"/>
</svg>
