<svg width="48" height="48" viewBox="0 0 48 48" fill="none" xmlns="http://www.w3.org/2000/svg">
<path d="M9.232 38C8.31067 38 7.542 37.692 6.926 37.076C6.31 36.46 6.00133 35.6907 6 34.768V13.232C6 12.3107 6.30867 11.542 6.926 10.926C7.54333 10.31 8.31133 10.0013 9.23 10H19.192L23.192 14H38.77C39.69 14 40.4587 14.3087 41.076 14.926C41.6933 15.5433 42.0013 16.312 42 17.232V21.946C41.6747 21.834 41.3433 21.762 41.006 21.73C40.6687 21.698 40.3333 21.6933 40 21.716V17.232C40 16.924 39.872 16.6413 39.616 16.384C39.36 16.1267 39.078 15.9987 38.77 16H22.39L18.39 12H9.23C8.87133 12 8.57667 12.1153 8.346 12.346C8.11533 12.5767 8 12.872 8 13.232V34.77C8 35.0767 8.128 35.3587 8.384 35.616C8.64 35.8733 8.922 36.0013 9.23 36H23.738L23.692 36.046V38H9.232ZM28.462 42V37.58L39.128 26.966C39.3253 26.7687 39.53 26.6353 39.742 26.566C39.9553 26.4967 40.1687 26.462 40.382 26.462C40.602 26.462 40.8247 26.5047 41.05 26.59C41.2767 26.6767 41.4753 26.806 41.646 26.978L43.496 28.866C43.66 29.0633 43.7847 29.2687 43.87 29.482C43.9567 29.694 44 29.9067 44 30.12C44 30.3333 43.9593 30.548 43.878 30.764C43.7967 30.98 43.6693 31.1867 43.496 31.384L32.88 42H28.462ZM30.232 40.232H32.132L39.066 33.284L38.126 32.334L37.216 31.358L30.232 38.33V40.232ZM38.126 32.334L37.216 31.358L39.066 33.284L38.126 32.334Z" fill="black"/>
</svg>
