<svg width="87" height="87" viewBox="0 0 87 87" fill="none" xmlns="http://www.w3.org/2000/svg">
<rect width="20.426" height="33.1922" rx="5" transform="matrix(-0.707107 -0.707107 -0.707107 0.707107 39.6555 62.1699)" fill="url(#paint0_linear_207_3057)"/>
<rect width="20.426" height="33.1922" rx="5" transform="matrix(-0.707107 -0.707107 -0.707107 0.707107 39.6555 62.1699)" fill="url(#paint1_linear_207_3057)"/>
<rect width="20.426" height="33.1922" rx="5" transform="matrix(-0.707107 -0.707107 -0.707107 0.707107 39.6555 62.1699)" fill="url(#paint2_linear_207_3057)"/>
<rect width="20.426" height="33.1922" rx="5" transform="matrix(-0.707107 -0.707107 -0.707107 0.707107 39.6555 62.1699)" fill="url(#paint3_radial_207_3057)"/>
<path fill-rule="evenodd" clip-rule="evenodd" d="M51.9111 64.6973C35.6759 64.6973 22.5146 51.536 22.5146 35.3008C22.5146 19.0655 35.6759 5.9043 51.9111 5.9043C68.1464 5.9043 81.3076 19.0655 81.3076 35.3008C81.3076 51.536 68.1464 64.6973 51.9111 64.6973ZM51.9111 59.9395C38.3036 59.9395 27.2725 48.9083 27.2725 35.3008C27.2725 21.6933 38.3036 10.6621 51.9111 10.6621C65.5187 10.6621 76.5498 21.6933 76.5498 35.3008C76.5498 48.9083 65.5187 59.9395 51.9111 59.9395Z" fill="url(#paint4_linear_207_3057)"/>
<path fill-rule="evenodd" clip-rule="evenodd" d="M51.9108 64.0327C36.0427 64.0327 23.1791 51.1691 23.1791 35.301C23.1791 19.4329 36.0427 6.56934 51.9108 6.56934C67.7789 6.56934 80.6425 19.4329 80.6425 35.301C80.6425 51.1691 67.7789 64.0327 51.9108 64.0327ZM51.9108 59.3825C38.611 59.3825 27.8293 48.6008 27.8293 35.301C27.8293 22.0012 38.611 11.2196 51.9108 11.2196C65.2106 11.2196 75.9923 22.0012 75.9923 35.301C75.9923 48.6008 65.2106 59.3825 51.9108 59.3825Z" fill="url(#paint5_linear_207_3057)"/>
<path fill-rule="evenodd" clip-rule="evenodd" d="M51.9108 64.0327C36.0427 64.0327 23.1791 51.1691 23.1791 35.301C23.1791 19.4329 36.0427 6.56934 51.9108 6.56934C67.7789 6.56934 80.6425 19.4329 80.6425 35.301C80.6425 51.1691 67.7789 64.0327 51.9108 64.0327ZM51.9108 59.3825C38.611 59.3825 27.8293 48.6008 27.8293 35.301C27.8293 22.0012 38.611 11.2196 51.9108 11.2196C65.2106 11.2196 75.9923 22.0012 75.9923 35.301C75.9923 48.6008 65.2106 59.3825 51.9108 59.3825Z" fill="url(#paint6_radial_207_3057)"/>
<circle cx="25.2709" cy="25.2709" r="25.2709" transform="matrix(-1 0 0 1 77.1817 10.0303)" fill="url(#paint7_linear_207_3057)"/>
<circle cx="24.6387" cy="24.6387" r="24.6387" transform="matrix(-1 0 0 1 76.5498 10.6621)" fill="#64D0EA"/>
<circle cx="24.6387" cy="24.6387" r="24.6387" transform="matrix(-1 0 0 1 76.5498 10.6621)" fill="url(#paint8_radial_207_3057)"/>
<ellipse cx="63.4092" cy="24.8217" rx="4.48931" ry="5.52839" transform="rotate(-38.8957 63.4092 24.8217)" fill="url(#paint9_linear_207_3057)"/>
<defs>
<linearGradient id="paint0_linear_207_3057" x1="1.71218" y1="28.1759" x2="13.4872" y2="4.98635" gradientUnits="userSpaceOnUse">
<stop stop-color="#A0659C"/>
<stop offset="1" stop-color="#895792"/>
</linearGradient>
<linearGradient id="paint1_linear_207_3057" x1="10.183" y1="1.44183" x2="10.213" y2="13.0967" gradientUnits="userSpaceOnUse">
<stop stop-color="#6C3B74"/>
<stop offset="1" stop-color="#845590" stop-opacity="0"/>
</linearGradient>
<linearGradient id="paint2_linear_207_3057" x1="20.6963" y1="22.6488" x2="6.69852" y2="22.2283" gradientUnits="userSpaceOnUse">
<stop offset="0.115168" stop-color="#703D7A"/>
<stop offset="1" stop-color="#703D7A" stop-opacity="0"/>
</linearGradient>
<radialGradient id="paint3_radial_207_3057" cx="0" cy="0" r="1" gradientUnits="userSpaceOnUse" gradientTransform="translate(10.3331 -0.51065) rotate(92.4424) scale(6.34383 14.7434)">
<stop stop-color="#2F1A3D"/>
<stop offset="1" stop-color="#532D64" stop-opacity="0"/>
</radialGradient>
<linearGradient id="paint4_linear_207_3057" x1="51.9111" y1="5.9043" x2="51.9111" y2="64.6973" gradientUnits="userSpaceOnUse">
<stop offset="0.378529" stop-color="#344A7D"/>
<stop offset="0.633316" stop-color="#785790"/>
<stop offset="0.837142" stop-color="#785790"/>
<stop offset="1" stop-color="#9872A2"/>
</linearGradient>
<linearGradient id="paint5_linear_207_3057" x1="51.9108" y1="6.56934" x2="51.9108" y2="64.0327" gradientUnits="userSpaceOnUse">
<stop stop-color="#475890"/>
<stop offset="1" stop-color="#7A4D87"/>
</linearGradient>
<radialGradient id="paint6_radial_207_3057" cx="0" cy="0" r="1" gradientUnits="userSpaceOnUse" gradientTransform="translate(51.9108 20.1355) rotate(-89.9999) scale(13.9336 25.913)">
<stop offset="0.704268" stop-color="#566298"/>
<stop offset="0.786585" stop-color="#566298" stop-opacity="0"/>
</radialGradient>
<linearGradient id="paint7_linear_207_3057" x1="25.2709" y1="0" x2="25.2709" y2="50.5418" gradientUnits="userSpaceOnUse">
<stop stop-color="#204083"/>
<stop offset="1" stop-color="#523573"/>
</linearGradient>
<radialGradient id="paint8_radial_207_3057" cx="0" cy="0" r="1" gradientUnits="userSpaceOnUse" gradientTransform="translate(24.6387 26.0405) rotate(90) scale(29.9063)">
<stop offset="0.651103" stop-color="#33A2F3" stop-opacity="0"/>
<stop offset="1" stop-color="#33A2F3"/>
</radialGradient>
<linearGradient id="paint9_linear_207_3057" x1="63.4092" y1="19.2933" x2="63.4092" y2="30.3501" gradientUnits="userSpaceOnUse">
<stop stop-color="#DCDBF2"/>
<stop offset="0.209118" stop-color="#DCDBF2" stop-opacity="0.84797"/>
<stop offset="1" stop-color="#DCDBF2" stop-opacity="0"/>
</linearGradient>
</defs>
</svg>
