<svg width="40" height="40" viewBox="0 0 40 40" fill="none" xmlns="http://www.w3.org/2000/svg">
<path d="M32.3914 6.7749H7.60807C6.503 6.7749 5.4432 7.21389 4.66179 7.99529C3.88039 8.77669 3.44141 9.8365 3.44141 10.9416V29.0582C3.44141 30.1633 3.88039 31.2231 4.66179 32.0045C5.4432 32.7859 6.503 33.2249 7.60807 33.2249H32.3914C33.4965 33.2249 34.5563 32.7859 35.3377 32.0045C36.1191 31.2231 36.5581 30.1633 36.5581 29.0582V10.9416C36.5581 9.8365 36.1191 8.77669 35.3377 7.99529C34.5563 7.21389 33.4965 6.7749 32.3914 6.7749ZM7.60807 8.44157H32.3914C33.0221 8.44015 33.6298 8.67878 34.091 9.10904C34.5522 9.53929 34.8324 10.1289 34.8747 10.7582C30.7581 12.9582 26.6247 15.1416 22.4914 17.3416C21.9331 17.6936 21.3413 17.9895 20.7247 18.2249C20.2413 18.3206 19.7429 18.3122 19.263 18.2001C18.783 18.088 18.3325 17.8749 17.9414 17.5749C15.5747 16.3249 13.2081 15.0582 10.8581 13.8082C8.95807 12.8082 7.02474 11.7916 5.12474 10.7749C5.163 10.1426 5.44143 9.54886 5.90307 9.11511C6.3647 8.68136 6.97464 8.44041 7.60807 8.44157ZM34.8914 29.0582C34.8914 29.7213 34.628 30.3572 34.1592 30.826C33.6903 31.2948 33.0544 31.5582 32.3914 31.5582H7.60807C6.94503 31.5582 6.30915 31.2948 5.84031 30.826C5.37147 30.3572 5.10807 29.7213 5.10807 29.0582V12.6666C9.04141 14.7332 12.9581 16.8332 16.8914 18.9166C17.594 19.3478 18.3505 19.6841 19.1414 19.9166C20.2987 20.105 21.4849 19.8619 22.4747 19.2332C24.8914 17.9666 27.2914 16.6832 29.7081 15.4166C31.4414 14.4832 33.1581 13.5832 34.8914 12.6666V29.0582Z" fill="black"/>
</svg>
