<svg width="62" height="62" viewBox="0 0 62 62" fill="none" xmlns="http://www.w3.org/2000/svg">
<path d="M6.2002 31.0002C6.2002 24.4228 8.81305 18.1148 13.4639 13.4639C18.1148 8.81305 24.4228 6.2002 31.0002 6.2002C37.5776 6.2002 43.8855 8.81305 48.5364 13.4639C53.1873 18.1148 55.8002 24.4228 55.8002 31.0002C55.8002 37.5776 53.1873 43.8855 48.5364 48.5364C43.8855 53.1873 37.5776 55.8002 31.0002 55.8002C24.4228 55.8002 18.1148 53.1873 13.4639 48.5364C8.81305 43.8855 6.2002 37.5776 6.2002 31.0002ZM27.2802 18.6002C26.8981 18.6003 26.5296 18.7414 26.2452 18.9966C25.9608 19.2518 25.7808 19.603 25.7395 19.9828L24.8095 28.5078C24.7855 28.7276 24.8089 28.95 24.878 29.16C24.947 29.37 25.0603 29.5628 25.21 29.7255C25.3598 29.8882 25.5426 30.0169 25.7462 30.1031C25.9498 30.1893 26.1695 30.2309 26.3905 30.2252H26.4432L26.5889 30.219C27.3462 30.2014 28.1037 30.191 28.8612 30.188C30.2376 30.1787 31.6264 30.2004 32.1968 30.281C33.1878 30.4205 34.1261 30.8135 34.9207 31.422C35.7152 32.0305 36.3392 32.8338 36.7322 33.7543C37.1252 34.6747 37.2739 35.681 37.1639 36.6757C37.0539 37.6705 36.6889 38.62 36.1043 39.4322C35.5196 40.2445 34.7351 40.8921 33.8268 41.3123C32.9184 41.7324 31.917 41.9109 30.9194 41.8304C29.9219 41.75 28.962 41.4133 28.1327 40.8531C27.3034 40.2928 26.6328 39.5279 26.1859 38.6324C26.0957 38.4488 25.97 38.2849 25.8161 38.1501C25.6622 38.0153 25.4832 37.9123 25.2893 37.8471C25.0955 37.7818 24.8906 37.7556 24.6865 37.7698C24.4825 37.7841 24.2833 37.8387 24.1004 37.9303C23.9175 38.022 23.7546 38.1489 23.621 38.3038C23.4874 38.4587 23.3858 38.6386 23.322 38.8329C23.2583 39.0273 23.2336 39.2324 23.2495 39.4363C23.2654 39.6402 23.3214 39.839 23.4145 40.0212C24.1003 41.3939 25.129 42.5662 26.4008 43.4248C27.6727 44.2833 29.1446 44.7989 30.6742 44.9217C32.2038 45.0444 33.7391 44.7702 35.1316 44.1255C36.5241 43.4809 37.7266 42.4876 38.6226 41.2419C39.5186 39.9961 40.0778 38.5402 40.246 37.0149C40.4143 35.4897 40.1859 33.9469 39.5829 32.5358C38.98 31.1247 38.0229 29.8932 36.8044 28.9605C35.5859 28.0279 34.1472 27.4256 32.6277 27.212C31.7876 27.0942 30.1477 27.0787 28.8457 27.088C28.5791 27.088 28.3249 27.0901 28.0831 27.0942L28.6721 21.7002H37.2002C37.6113 21.7002 38.0055 21.5369 38.2962 21.2462C38.5869 20.9555 38.7502 20.5613 38.7502 20.1502C38.7502 19.7391 38.5869 19.3449 38.2962 19.0542C38.0055 18.7635 37.6113 18.6002 37.2002 18.6002H27.2802Z" fill="white"/>
</svg>
