<svg width="62" height="62" viewBox="0 0 62 62" fill="none" xmlns="http://www.w3.org/2000/svg">
<path d="M4.42847 31.0001C4.42847 16.3261 16.3258 4.42871 30.9999 4.42871C45.674 4.42871 57.5713 16.3261 57.5713 31.0001C57.5713 45.6742 45.674 57.5716 30.9999 57.5716C16.3258 57.5716 4.42847 45.6742 4.42847 31.0001ZM36.5356 18.6422C36.5356 16.2242 33.3913 15.2831 32.0628 17.3026L20.099 35.4907C19.8903 35.8079 19.7715 36.1757 19.7549 36.555C19.7384 36.9343 19.8249 37.3111 20.0051 37.6452C20.1854 37.9794 20.4527 38.2585 20.7787 38.4531C21.1048 38.6476 21.4774 38.7502 21.8571 38.7501H33.212V42.6251C33.212 43.0656 33.3869 43.488 33.6984 43.7994C34.0098 44.1109 34.4322 44.2859 34.8727 44.2859C35.3131 44.2859 35.7355 44.1109 36.047 43.7994C36.3584 43.488 36.5334 43.0656 36.5334 42.6251V38.7501H38.7499C39.1903 38.7501 39.6128 38.5752 39.9242 38.2637C40.2356 37.9523 40.4106 37.5299 40.4106 37.0894C40.4106 36.649 40.2356 36.2266 39.9242 35.9151C39.6128 35.6037 39.1903 35.4287 38.7499 35.4287H36.5356V18.6422ZM33.2142 21.6005V35.4287H24.1135L33.2142 21.6005Z" fill="white"/>
</svg>
