<svg width="48" height="48" viewBox="0 0 48 48" fill="none" xmlns="http://www.w3.org/2000/svg">
<path d="M32.232 20C32.516 20 32.7533 19.9047 32.944 19.714C33.136 19.5233 33.232 19.2853 33.232 19C33.232 18.7147 33.136 18.4767 32.944 18.286C32.752 18.0953 32.514 18 32.23 18H25C24.716 18 24.478 18.0953 24.286 18.286C24.094 18.4767 23.9987 18.7147 24 19C24.0013 19.2853 24.0967 19.5233 24.286 19.714C24.4753 19.9047 24.7133 20 25 20H32.232ZM32.232 30C32.516 30 32.7533 29.9047 32.944 29.714C33.136 29.5233 33.232 29.2853 33.232 29C33.232 28.7147 33.136 28.4767 32.944 28.286C32.752 28.0953 32.514 28 32.23 28H25C24.716 28 24.478 28.0953 24.286 28.286C24.094 28.4767 23.9987 28.7147 24 29C24.0013 29.2853 24.0967 29.5233 24.286 29.714C24.4753 29.9047 24.7133 30 25 30H32.232ZM18 21.46C18.6893 21.46 19.272 21.2227 19.748 20.748C20.224 20.2733 20.462 19.6907 20.462 19C20.462 18.3093 20.224 17.7267 19.748 17.252C19.272 16.7773 18.6893 16.5393 18 16.538C17.3107 16.5367 16.728 16.7747 16.252 17.252C15.776 17.7293 15.538 18.312 15.538 19C15.538 19.688 15.776 20.2707 16.252 20.748C16.728 21.2253 17.3107 21.4633 18 21.462M18 31.462C18.6893 31.462 19.272 31.224 19.748 30.748C20.224 30.272 20.462 29.6893 20.462 29C20.462 28.3107 20.224 27.728 19.748 27.252C19.272 26.776 18.6893 26.538 18 26.538C17.3107 26.538 16.728 26.776 16.252 27.252C15.776 27.728 15.538 28.3107 15.538 29C15.538 29.6893 15.776 30.272 16.252 30.748C16.728 31.224 17.3107 31.462 18 31.462ZM11.232 40C10.3107 40 9.542 39.692 8.926 39.076C8.31 38.46 8.00133 37.6907 8 36.768V11.232C8 10.3107 8.30867 9.542 8.926 8.926C9.54333 8.31 10.312 8.00133 11.232 8H36.77C37.69 8 38.4587 8.30867 39.076 8.926C39.6933 9.54333 40.0013 10.312 40 11.232V36.77C40 37.69 39.692 38.4587 39.076 39.076C38.46 39.6933 37.6907 40.0013 36.768 40H11.232ZM11.232 38H36.77C37.0767 38 37.3587 37.872 37.616 37.616C37.8733 37.36 38.0013 37.0773 38 36.768V11.232C38 10.924 37.872 10.6413 37.616 10.384C37.36 10.1267 37.0773 9.99867 36.768 10H11.232C10.924 10 10.6413 10.128 10.384 10.384C10.1267 10.64 9.99867 10.9227 10 11.232V36.77C10 37.0767 10.128 37.3587 10.384 37.616C10.64 37.8733 10.922 38.0013 11.23 38" fill="black"/>
</svg>
