<svg width="62" height="62" viewBox="0 0 62 62" fill="none" xmlns="http://www.w3.org/2000/svg">
<path d="M56.8334 31.0003C56.8334 45.2681 45.2678 56.8337 31 56.8337C16.7323 56.8337 5.16669 45.2681 5.16669 31.0003C5.16669 16.7326 16.7323 5.16699 31 5.16699C45.2678 5.16699 56.8334 16.7326 56.8334 31.0003ZM26.7401 23.1212L26.7918 23.0643C26.84 23.0023 26.9201 22.9119 27.032 22.7931C27.2594 22.5554 27.6004 22.2325 28.0447 21.9096C28.9411 21.2586 30.163 20.667 31.6433 20.667C34.1414 20.667 36.1641 22.6897 36.1641 25.1878C36.1641 26.5673 35.6629 27.4147 34.8027 28.1767C33.976 28.9052 32.9272 29.4736 31.5994 30.1917L30.7133 30.6748C29.0754 31.5738 27.1741 32.7105 25.7094 34.493C24.1904 36.3401 23.25 38.74 23.25 41.9795C23.25 43.049 24.118 43.917 25.1875 43.917H38.1042C38.618 43.917 39.1109 43.7129 39.4742 43.3495C39.8376 42.9862 40.0417 42.4933 40.0417 41.9795C40.0417 41.4656 39.8376 40.9728 39.4742 40.6095C39.1109 40.2461 38.618 40.042 38.1042 40.042H27.2929C27.5487 38.6987 28.0679 37.7247 28.7034 36.9523C29.6593 35.7898 30.9871 34.9451 32.5784 34.0693L33.3173 33.6715C34.6477 32.9559 36.177 32.1318 37.3679 31.0804C38.9283 29.7009 40.0417 27.8435 40.0391 25.1878C40.0391 24.0853 39.8219 22.9935 39.4 21.9749C38.9781 20.9562 38.3596 20.0307 37.58 19.2511C36.8004 18.4714 35.8748 17.853 34.8562 17.4311C33.8376 17.0092 32.7458 16.792 31.6433 16.792C29.0935 16.792 27.0863 17.815 25.7636 18.7786C25.0488 19.3018 24.3961 19.9051 23.8184 20.5766L23.6453 20.791V20.7962H23.6375C23.3282 21.2069 23.1947 21.7237 23.2664 22.2329C23.3381 22.7421 23.6091 23.2019 24.0199 23.5112C24.4306 23.8206 24.9474 23.9541 25.4566 23.8824C25.9658 23.8107 26.4256 23.5397 26.7349 23.1289L26.7401 23.1212Z" fill="white"/>
</svg>
