<svg width="62" height="62" viewBox="0 0 62 62" fill="none" xmlns="http://www.w3.org/2000/svg">
<path d="M31.0001 5.16699C45.2678 5.16699 56.8334 16.7326 56.8334 31.0003C56.8334 45.2681 45.2678 56.8337 31.0001 56.8337C16.7323 56.8337 5.16675 45.2681 5.16675 31.0003C5.16675 16.7326 16.7323 5.16699 31.0001 5.16699ZM33.5679 20.3725C33.3535 18.3652 30.9639 17.3758 29.3907 18.6417L29.1737 18.8406L24.007 24.0072L23.7926 24.2501C23.4411 24.7031 23.2503 25.2602 23.2503 25.8337C23.2503 26.4071 23.4411 26.9642 23.7926 27.4172L24.007 27.6601L24.2498 27.8745C24.7029 28.226 25.26 28.4168 25.8334 28.4168C26.4068 28.4168 26.964 28.226 27.417 27.8745L27.6598 27.6601L28.4167 26.9032V41.3337L28.4348 41.6359C28.5095 42.2638 28.8119 42.8425 29.2847 43.2623C29.7574 43.6822 30.3678 43.9141 31.0001 43.9141C31.6324 43.9141 32.2427 43.6822 32.7155 43.2623C33.1883 42.8425 33.4906 42.2638 33.5653 41.6359L33.5834 41.3337V20.667L33.5679 20.3725Z" fill="white"/>
</svg>
