<svg width="62" height="62" viewBox="0 0 62 62" fill="none" xmlns="http://www.w3.org/2000/svg">
<path d="M31 6.2002C24.4226 6.2002 18.1146 8.81305 13.4637 13.4639C8.8128 18.1148 6.19995 24.4228 6.19995 31.0002C6.19995 37.5776 8.8128 43.8855 13.4637 48.5364C18.1146 53.1873 24.4226 55.8002 31 55.8002C37.5773 55.8002 43.8853 53.1873 48.5362 48.5364C53.1871 43.8855 55.7999 37.5776 55.7999 31.0002C55.7999 24.4228 53.1871 18.1148 48.5362 13.4639C43.8853 8.81305 37.5773 6.2002 31 6.2002ZM27.9 31.0002C27.9 30.5891 28.0633 30.1949 28.3539 29.9042C28.6446 29.6135 29.0389 29.4502 29.45 29.4502H30.9968C34.1712 29.4502 36.425 27.1996 36.425 24.8002C36.425 22.4008 34.1712 20.1502 30.9968 20.1502C29.1988 20.1502 27.7419 20.7888 26.7189 21.4522C26.1715 21.8086 25.6661 22.2256 25.2123 22.6953L25.206 22.7046C25.0744 22.8599 24.9134 22.9878 24.7323 23.0808C24.5511 23.1739 24.3535 23.2304 24.1505 23.2471C23.7407 23.2808 23.3342 23.1504 23.0206 22.8844C22.7069 22.6184 22.5117 22.2387 22.478 21.8289C22.4443 21.419 22.5748 21.0126 22.8408 20.6989L22.8501 20.6896L22.8625 20.6772L22.8997 20.6338L23.0206 20.5036C23.1218 20.392 23.2644 20.2504 23.4484 20.0789C23.8142 19.7379 24.3474 19.2946 25.0356 18.8482C26.8075 17.6837 28.8796 17.059 31 17.0502C35.5322 17.0502 39.5281 20.3517 39.5281 24.8002C39.5281 27.4042 38.1578 29.6145 36.1149 31.0002C38.1609 32.3859 39.5281 34.5962 39.5281 37.2002C39.5281 41.6487 35.5322 44.9502 31 44.9502C28.4425 44.9502 26.4119 44.0388 25.0386 43.1522C24.3078 42.6767 23.632 42.1215 23.0237 41.4968L22.8997 41.3666L22.8656 41.3232L22.8532 41.3108L22.847 41.3046V41.3015C22.5956 40.9869 22.4765 40.5868 22.515 40.1859C22.5534 39.7851 22.7464 39.4149 23.053 39.1538C23.3596 38.8927 23.7558 38.7612 24.1576 38.7872C24.5595 38.8131 24.9355 38.9944 25.206 39.2927L25.2154 39.3051L25.2774 39.3671C25.3373 39.4332 25.4303 39.5262 25.5564 39.6461C25.8199 39.8879 26.2105 40.2196 26.722 40.5482C27.745 41.2116 29.202 41.8502 31 41.8502C34.1744 41.8502 36.4281 39.5996 36.4281 37.2002C36.4281 34.8008 34.1744 32.5502 31 32.5502H29.45C29.0389 32.5502 28.6446 32.3869 28.3539 32.0962C28.0633 31.8055 27.9 31.4113 27.9 31.0002Z" fill="white"/>
</svg>
