<svg width="40" height="40" viewBox="0 0 40 40" fill="none" xmlns="http://www.w3.org/2000/svg">
<g clip-path="url(#clip0_174_1022)">
<path d="M23.1469 7.34364C23.1885 7.18368 23.2917 7.04669 23.434 6.96265C23.5763 6.87861 23.7461 6.85436 23.9063 6.8952C26.119 7.47152 28.1379 8.62782 29.7546 10.2448C31.3712 11.8618 32.5272 13.8808 33.1031 16.0936C33.1456 16.2536 33.1229 16.4239 33.04 16.5671C32.9571 16.7103 32.8208 16.8148 32.661 16.8577C32.6101 16.8721 32.5575 16.8795 32.5047 16.8796C32.3665 16.8791 32.2323 16.8329 32.1232 16.7481C32.0141 16.6632 31.9361 16.5446 31.9016 16.4108C31.3802 14.4126 30.3356 12.5895 28.8753 11.1293C27.4151 9.66901 25.592 8.6244 23.5938 8.10301C23.4341 8.06111 23.2975 7.95774 23.2138 7.81547C23.13 7.67319 23.106 7.50357 23.1469 7.34364ZM22.3438 13.103C24.6875 13.7327 26.2672 15.3124 26.8969 17.6561C26.9314 17.79 27.0094 17.9086 27.1185 17.9934C27.2276 18.0782 27.3618 18.1244 27.5 18.1249C27.5529 18.1248 27.6054 18.1174 27.6563 18.103C27.8161 18.0601 27.9524 17.9556 28.0353 17.8124C28.1182 17.6692 28.1409 17.4989 28.0985 17.339C27.3485 14.5265 25.4656 12.6515 22.6563 11.8952C22.5001 11.865 22.3383 11.8955 22.2039 11.9804C22.0694 12.0653 21.9724 12.1983 21.9325 12.3523C21.8927 12.5062 21.9131 12.6696 21.9895 12.8091C22.0659 12.9486 22.1926 13.0537 22.3438 13.103ZM34.3656 28.528C34.1063 30.4951 33.1395 32.3004 31.6459 33.6065C30.1523 34.9127 28.2341 35.6301 26.25 35.6249C14.1875 35.6249 4.37502 25.8124 4.37502 13.7499C4.37091 11.7666 5.08891 9.84959 6.39491 8.35698C7.70091 6.86436 9.5056 5.8982 11.4719 5.63895C11.8747 5.58998 12.2826 5.67301 12.6342 5.87559C12.9858 6.07816 13.2622 6.38934 13.4219 6.76239L16.7188 14.128C16.842 14.4136 16.8922 14.7254 16.865 15.0353C16.8377 15.3451 16.7338 15.6433 16.5625 15.903C16.5485 15.9233 16.5344 15.9436 16.5188 15.9624L13.2063 19.9015C13.1543 19.9877 13.1245 20.0856 13.1196 20.1862C13.1147 20.2868 13.1348 20.3871 13.1781 20.478C14.4031 22.9858 17.0297 25.5921 19.5672 26.8171C19.6588 26.8596 19.7595 26.8788 19.8604 26.8731C19.9612 26.8674 20.0591 26.8369 20.1453 26.7843L24.0313 23.4843L24.0906 23.4389C24.3507 23.2672 24.6495 23.1629 24.9599 23.1357C25.2704 23.1084 25.5827 23.1589 25.8688 23.2827L33.2469 26.5889C33.6162 26.7496 33.924 27.025 34.1247 27.3742C34.3253 27.7234 34.4082 28.128 34.361 28.528H34.3656ZM32.7485 27.728L25.3672 24.4218C25.2775 24.3841 25.1802 24.3683 25.0832 24.3756C24.9862 24.383 24.8924 24.4132 24.8094 24.464L20.9375 27.7639L20.8797 27.8077C20.6105 27.9874 20.2993 28.0944 19.9765 28.1183C19.6537 28.1421 19.3302 28.0819 19.0375 27.9436C16.225 26.5858 13.4266 23.8061 12.0688 21.0265C11.9291 20.736 11.8667 20.4145 11.8875 20.0929C11.9083 19.7713 12.0116 19.4605 12.1875 19.1905C12.2016 19.1686 12.2172 19.1499 12.2328 19.1296L15.5438 15.1921C15.5934 15.1077 15.6225 15.0128 15.6287 14.9151C15.635 14.8174 15.6182 14.7196 15.5797 14.6296L12.2766 7.26395C12.23 7.14977 12.1508 7.0519 12.0487 6.98267C11.9467 6.91344 11.8264 6.87594 11.7031 6.87489C11.6782 6.87339 11.6531 6.87339 11.6281 6.87489C9.96292 7.09553 8.43506 7.91512 7.33022 9.18043C6.22538 10.4457 5.6192 12.0701 5.62502 13.7499C5.62502 25.1218 14.8781 34.3749 26.25 34.3749C27.9298 34.3807 29.5542 33.7745 30.8195 32.6697C32.0848 31.5648 32.9044 30.037 33.125 28.3718C33.1394 28.2377 33.1101 28.1026 33.0414 27.9865C32.9726 27.8705 32.8683 27.7798 32.7438 27.728H32.7485Z" fill="black"/>
</g>
<defs>
<clipPath id="clip0_174_1022">
<rect width="40" height="40" fill="white"/>
</clipPath>
</defs>
</svg>
