<svg width="323" height="323" viewBox="0 0 323 323" fill="none" xmlns="http://www.w3.org/2000/svg">
<path d="M282.163 40.8509C278.724 37.4108 274.64 34.6819 270.146 32.8201C265.652 30.9583 260.835 30 255.97 30C251.105 30 246.288 30.9583 241.794 32.8201C237.3 34.6819 233.216 37.4108 229.777 40.8509L214.073 56.5689L266.444 108.952L282.148 93.2342C285.589 89.795 288.318 85.7117 290.18 81.2177C292.042 76.7237 293 71.907 293 67.0426C293 62.1781 292.042 57.3614 290.18 52.8674C288.318 48.3734 285.604 44.2901 282.163 40.8509ZM203.583 67.0426L255.97 119.426L125.018 250.354C123.987 251.388 122.672 252.095 121.24 252.384L68.8539 262.857C67.659 263.095 66.4238 263.035 65.2578 262.681C64.0919 262.328 63.0312 261.692 62.1696 260.83C61.3081 259.969 60.6724 258.908 60.3188 257.742C59.9652 256.577 59.9047 255.342 60.1426 254.147L70.6169 201.763C70.9062 200.332 71.6123 199.017 72.6466 197.986L203.583 67.0426Z" fill="white"/>
</svg>
