<svg width="90" height="89" viewBox="0 0 90 89" fill="none" xmlns="http://www.w3.org/2000/svg">
<rect width="89.6953" height="88.2249" rx="4" fill="#FFE8D7"/>
<g clip-path="url(#clip0_173_608)">
<path d="M26.7188 22.9668C26.7188 21.448 27.95 20.2168 29.4688 20.2168H61.5328C63.0516 20.2168 64.2828 21.448 64.2828 22.9668V63.7589C64.2828 65.2777 63.0516 66.5089 61.5328 66.5089H29.4687C27.95 66.5089 26.7188 65.2777 26.7188 63.7589V22.9668Z" fill="url(#paint0_linear_173_608)"/>
<path d="M26.7188 22.9668C26.7188 21.448 27.95 20.2168 29.4688 20.2168H61.5328C63.0516 20.2168 64.2828 21.448 64.2828 22.9668V63.7589C64.2828 65.2777 63.0516 66.5089 61.5328 66.5089H29.4687C27.95 66.5089 26.7188 65.2777 26.7188 63.7589V22.9668Z" fill="url(#paint1_linear_173_608)"/>
<path d="M26.7188 22.9668C26.7188 21.448 27.95 20.2168 29.4688 20.2168H61.5328C63.0516 20.2168 64.2828 21.448 64.2828 22.9668V63.7589C64.2828 65.2777 63.0516 66.5089 61.5328 66.5089H29.4687C27.95 66.5089 26.7188 65.2777 26.7188 63.7589V22.9668Z" fill="url(#paint2_linear_173_608)"/>
<path d="M26.7188 22.9668C26.7188 21.448 27.95 20.2168 29.4688 20.2168H61.5328C63.0516 20.2168 64.2828 21.448 64.2828 22.9668V63.7589C64.2828 65.2777 63.0516 66.5089 61.5328 66.5089H29.4687C27.95 66.5089 26.7188 65.2777 26.7188 63.7589V22.9668Z" fill="url(#paint3_radial_173_608)"/>
<path d="M26.7188 22.9668C26.7188 21.448 27.95 20.2168 29.4688 20.2168H61.5328C63.0516 20.2168 64.2828 21.448 64.2828 22.9668V63.7589C64.2828 65.2777 63.0516 66.5089 61.5328 66.5089H29.4687C27.95 66.5089 26.7188 65.2777 26.7188 63.7589V22.9668Z" fill="url(#paint4_radial_173_608)"/>
<path d="M26.7188 22.9668C26.7188 21.448 27.95 20.2168 29.4688 20.2168H61.5328C63.0516 20.2168 64.2828 21.448 64.2828 22.9668V63.7589C64.2828 65.2777 63.0516 66.5089 61.5328 66.5089H29.4687C27.95 66.5089 26.7188 65.2777 26.7188 63.7589V22.9668Z" fill="url(#paint5_linear_173_608)"/>
<path d="M26.7188 22.9668C26.7188 21.448 27.95 20.2168 29.4688 20.2168H61.5328C63.0516 20.2168 64.2828 21.448 64.2828 22.9668V63.7589C64.2828 65.2777 63.0516 66.5089 61.5328 66.5089H29.4687C27.95 66.5089 26.7188 65.2777 26.7188 63.7589V22.9668Z" fill="url(#paint6_radial_173_608)"/>
<path d="M26.7188 22.9668C26.7188 21.448 27.95 20.2168 29.4688 20.2168H61.5328C63.0516 20.2168 64.2828 21.448 64.2828 22.9668V63.7589C64.2828 65.2777 63.0516 66.5089 61.5328 66.5089H29.4687C27.95 66.5089 26.7188 65.2777 26.7188 63.7589V22.9668Z" fill="url(#paint7_radial_173_608)"/>
<path d="M26.7188 22.9668C26.7188 21.448 27.95 20.2168 29.4688 20.2168H61.5328C63.0516 20.2168 64.2828 21.448 64.2828 22.9668V63.7589C64.2828 65.2777 63.0516 66.5089 61.5328 66.5089H29.4687C27.95 66.5089 26.7188 65.2777 26.7188 63.7589V22.9668Z" fill="url(#paint8_radial_173_608)"/>
<path d="M26.7188 22.9668C26.7188 21.448 27.95 20.2168 29.4688 20.2168H61.5328C63.0516 20.2168 64.2828 21.448 64.2828 22.9668V63.7589C64.2828 65.2777 63.0516 66.5089 61.5328 66.5089H29.4687C27.95 66.5089 26.7188 65.2777 26.7188 63.7589V22.9668Z" fill="url(#paint9_radial_173_608)"/>
<path d="M26.7188 22.9668C26.7188 21.448 27.95 20.2168 29.4688 20.2168H61.5328C63.0516 20.2168 64.2828 21.448 64.2828 22.9668V63.7589C64.2828 65.2777 63.0516 66.5089 61.5328 66.5089H29.4687C27.95 66.5089 26.7188 65.2777 26.7188 63.7589V22.9668Z" fill="url(#paint10_radial_173_608)"/>
<path d="M26.7188 22.9668C26.7188 21.448 27.95 20.2168 29.4688 20.2168H61.5328C63.0516 20.2168 64.2828 21.448 64.2828 22.9668V63.7589C64.2828 65.2777 63.0516 66.5089 61.5328 66.5089H29.4687C27.95 66.5089 26.7188 65.2777 26.7188 63.7589V22.9668Z" fill="url(#paint11_radial_173_608)"/>
<path d="M26.7188 22.9668C26.7188 21.448 27.95 20.2168 29.4688 20.2168H61.5328C63.0516 20.2168 64.2828 21.448 64.2828 22.9668V63.7589C64.2828 65.2777 63.0516 66.5089 61.5328 66.5089H29.4687C27.95 66.5089 26.7188 65.2777 26.7188 63.7589V22.9668Z" fill="url(#paint12_radial_173_608)"/>
<path d="M26.7188 22.9668C26.7188 21.448 27.95 20.2168 29.4688 20.2168H61.5328C63.0516 20.2168 64.2828 21.448 64.2828 22.9668V63.7589C64.2828 65.2777 63.0516 66.5089 61.5328 66.5089H29.4687C27.95 66.5089 26.7188 65.2777 26.7188 63.7589V22.9668Z" fill="url(#paint13_radial_173_608)"/>
<path d="M26.7188 22.9668C26.7188 21.448 27.95 20.2168 29.4688 20.2168H61.5328C63.0516 20.2168 64.2828 21.448 64.2828 22.9668V63.7589C64.2828 65.2777 63.0516 66.5089 61.5328 66.5089H29.4687C27.95 66.5089 26.7188 65.2777 26.7188 63.7589V22.9668Z" fill="url(#paint14_radial_173_608)"/>
<path d="M26.7188 22.9668C26.7188 21.448 27.95 20.2168 29.4688 20.2168H61.5328C63.0516 20.2168 64.2828 21.448 64.2828 22.9668V63.7589C64.2828 65.2777 63.0516 66.5089 61.5328 66.5089H29.4687C27.95 66.5089 26.7188 65.2777 26.7188 63.7589V22.9668Z" fill="url(#paint15_radial_173_608)"/>
<path d="M26.7188 22.9668C26.7188 21.448 27.95 20.2168 29.4688 20.2168H61.5328C63.0516 20.2168 64.2828 21.448 64.2828 22.9668V63.7589C64.2828 65.2777 63.0516 66.5089 61.5328 66.5089H29.4687C27.95 66.5089 26.7188 65.2777 26.7188 63.7589V22.9668Z" fill="url(#paint16_radial_173_608)"/>
<path d="M26.7188 22.9668C26.7188 21.448 27.95 20.2168 29.4688 20.2168H61.5328C63.0516 20.2168 64.2828 21.448 64.2828 22.9668V63.7589C64.2828 65.2777 63.0516 66.5089 61.5328 66.5089H29.4687C27.95 66.5089 26.7188 65.2777 26.7188 63.7589V22.9668Z" fill="url(#paint17_linear_173_608)"/>
<path d="M26.7188 22.9668C26.7188 21.448 27.95 20.2168 29.4688 20.2168H61.5328C63.0516 20.2168 64.2828 21.448 64.2828 22.9668V63.7589C64.2828 65.2777 63.0516 66.5089 61.5328 66.5089H29.4687C27.95 66.5089 26.7188 65.2777 26.7188 63.7589V22.9668Z" fill="url(#paint18_linear_173_608)"/>
<path d="M26.7188 22.9668C26.7188 21.448 27.95 20.2168 29.4688 20.2168H61.5328C63.0516 20.2168 64.2828 21.448 64.2828 22.9668V63.7589C64.2828 65.2777 63.0516 66.5089 61.5328 66.5089H29.4687C27.95 66.5089 26.7188 65.2777 26.7188 63.7589V22.9668Z" fill="url(#paint19_linear_173_608)"/>
<path d="M26.7188 22.9668C26.7188 21.448 27.95 20.2168 29.4688 20.2168H61.5328C63.0516 20.2168 64.2828 21.448 64.2828 22.9668V63.7589C64.2828 65.2777 63.0516 66.5089 61.5328 66.5089H29.4687C27.95 66.5089 26.7188 65.2777 26.7188 63.7589V22.9668Z" fill="url(#paint20_linear_173_608)"/>
<path d="M26.7188 22.9668C26.7188 21.448 27.95 20.2168 29.4688 20.2168H61.5328C63.0516 20.2168 64.2828 21.448 64.2828 22.9668V63.7589C64.2828 65.2777 63.0516 66.5089 61.5328 66.5089H29.4687C27.95 66.5089 26.7188 65.2777 26.7188 63.7589V22.9668Z" fill="url(#paint21_radial_173_608)"/>
<path d="M26.7188 22.9668C26.7188 21.448 27.95 20.2168 29.4688 20.2168H61.5328C63.0516 20.2168 64.2828 21.448 64.2828 22.9668V63.7589C64.2828 65.2777 63.0516 66.5089 61.5328 66.5089H29.4687C27.95 66.5089 26.7188 65.2777 26.7188 63.7589V22.9668Z" fill="url(#paint22_radial_173_608)"/>
<path d="M26.7188 22.9668C26.7188 21.448 27.95 20.2168 29.4688 20.2168H61.5328C63.0516 20.2168 64.2828 21.448 64.2828 22.9668V63.7589C64.2828 65.2777 63.0516 66.5089 61.5328 66.5089H29.4687C27.95 66.5089 26.7188 65.2777 26.7188 63.7589V22.9668Z" fill="url(#paint23_radial_173_608)"/>
<path d="M26.7188 22.9668C26.7188 21.448 27.95 20.2168 29.4688 20.2168H61.5328C63.0516 20.2168 64.2828 21.448 64.2828 22.9668V63.7589C64.2828 65.2777 63.0516 66.5089 61.5328 66.5089H29.4687C27.95 66.5089 26.7188 65.2777 26.7188 63.7589V22.9668Z" fill="url(#paint24_linear_173_608)"/>
<path d="M26.7188 22.9668C26.7188 21.448 27.95 20.2168 29.4688 20.2168H61.5328C63.0516 20.2168 64.2828 21.448 64.2828 22.9668V63.7589C64.2828 65.2777 63.0516 66.5089 61.5328 66.5089H29.4687C27.95 66.5089 26.7188 65.2777 26.7188 63.7589V22.9668Z" fill="url(#paint25_linear_173_608)"/>
<path d="M26.7188 22.9668C26.7188 21.448 27.95 20.2168 29.4688 20.2168H61.5328C63.0516 20.2168 64.2828 21.448 64.2828 22.9668V63.7589C64.2828 65.2777 63.0516 66.5089 61.5328 66.5089H29.4687C27.95 66.5089 26.7188 65.2777 26.7188 63.7589V22.9668Z" fill="url(#paint26_radial_173_608)"/>
<path d="M26.7188 22.9668C26.7188 21.448 27.95 20.2168 29.4688 20.2168H61.5328C63.0516 20.2168 64.2828 21.448 64.2828 22.9668V63.7589C64.2828 65.2777 63.0516 66.5089 61.5328 66.5089H29.4687C27.95 66.5089 26.7188 65.2777 26.7188 63.7589V22.9668Z" fill="url(#paint27_radial_173_608)"/>
<path d="M32.2969 23.8623C31.1103 23.8623 30.1484 24.8242 30.1484 26.0107V60.7147C30.1484 61.9013 31.1103 62.8632 32.2969 62.8632H50.5504C50.6311 62.8632 50.7115 62.8505 50.7878 62.8238C51.053 62.7311 51.2719 62.6326 51.4837 62.4208L60.4398 53.6296C60.6816 53.3879 60.8174 53.06 60.8174 52.7181V26.0107C60.8174 24.8242 59.8555 23.8623 58.6689 23.8623H32.2969Z" fill="url(#paint28_linear_173_608)"/>
<path d="M32.2969 23.8623C31.1103 23.8623 30.1484 24.8242 30.1484 26.0107V60.7147C30.1484 61.9013 31.1103 62.8632 32.2969 62.8632H50.5504C50.6311 62.8632 50.7115 62.8505 50.7878 62.8238C51.053 62.7311 51.2719 62.6326 51.4837 62.4208L60.4398 53.6296C60.6816 53.3879 60.8174 53.06 60.8174 52.7181V26.0107C60.8174 24.8242 59.8555 23.8623 58.6689 23.8623H32.2969Z" fill="url(#paint29_linear_173_608)"/>
<path d="M32.2969 23.8623C31.1103 23.8623 30.1484 24.8242 30.1484 26.0107V60.7147C30.1484 61.9013 31.1103 62.8632 32.2969 62.8632H50.5504C50.6311 62.8632 50.7115 62.8505 50.7878 62.8238C51.053 62.7311 51.2719 62.6326 51.4837 62.4208L60.4398 53.6296C60.6816 53.3879 60.8174 53.06 60.8174 52.7181V26.0107C60.8174 24.8242 59.8555 23.8623 58.6689 23.8623H32.2969Z" fill="url(#paint30_linear_173_608)"/>
<path d="M32.2969 23.8623C31.1103 23.8623 30.1484 24.8242 30.1484 26.0107V60.7147C30.1484 61.9013 31.1103 62.8632 32.2969 62.8632H50.5504C50.6311 62.8632 50.7115 62.8505 50.7878 62.8238C51.053 62.7311 51.2719 62.6326 51.4837 62.4208L60.4398 53.6296C60.6816 53.3879 60.8174 53.06 60.8174 52.7181V26.0107C60.8174 24.8242 59.8555 23.8623 58.6689 23.8623H32.2969Z" fill="url(#paint31_linear_173_608)"/>
<path d="M32.2969 23.8623C31.1103 23.8623 30.1484 24.8242 30.1484 26.0107V60.7147C30.1484 61.9013 31.1103 62.8632 32.2969 62.8632H50.5504C50.6311 62.8632 50.7115 62.8505 50.7878 62.8238C51.053 62.7311 51.2719 62.6326 51.4837 62.4208L60.4398 53.6296C60.6816 53.3879 60.8174 53.06 60.8174 52.7181V26.0107C60.8174 24.8242 59.8555 23.8623 58.6689 23.8623H32.2969Z" fill="url(#paint32_linear_173_608)"/>
<path d="M32.2969 23.8623C31.1103 23.8623 30.1484 24.8242 30.1484 26.0107V60.7147C30.1484 61.9013 31.1103 62.8632 32.2969 62.8632H50.5504C50.6311 62.8632 50.7115 62.8505 50.7878 62.8238C51.053 62.7311 51.2719 62.6326 51.4837 62.4208L60.4398 53.6296C60.6816 53.3879 60.8174 53.06 60.8174 52.7181V26.0107C60.8174 24.8242 59.8555 23.8623 58.6689 23.8623H32.2969Z" fill="url(#paint33_linear_173_608)"/>
<path d="M32.2969 23.8623C31.1103 23.8623 30.1484 24.8242 30.1484 26.0107V60.7147C30.1484 61.9013 31.1103 62.8632 32.2969 62.8632H50.5504C50.6311 62.8632 50.7115 62.8505 50.7878 62.8238C51.053 62.7311 51.2719 62.6326 51.4837 62.4208L60.4398 53.6296C60.6816 53.3879 60.8174 53.06 60.8174 52.7181V26.0107C60.8174 24.8242 59.8555 23.8623 58.6689 23.8623H32.2969Z" fill="url(#paint34_radial_173_608)"/>
<path d="M32.2969 23.8623C31.1103 23.8623 30.1484 24.8242 30.1484 26.0107V60.7147C30.1484 61.9013 31.1103 62.8632 32.2969 62.8632H50.5504C50.6311 62.8632 50.7115 62.8505 50.7878 62.8238C51.053 62.7311 51.2719 62.6326 51.4837 62.4208L60.4398 53.6296C60.6816 53.3879 60.8174 53.06 60.8174 52.7181V26.0107C60.8174 24.8242 59.8555 23.8623 58.6689 23.8623H32.2969Z" fill="url(#paint35_radial_173_608)"/>
<path d="M32.2969 23.8623C31.1103 23.8623 30.1484 24.8242 30.1484 26.0107V60.7147C30.1484 61.9013 31.1103 62.8632 32.2969 62.8632H50.5504C50.6311 62.8632 50.7115 62.8505 50.7878 62.8238C51.053 62.7311 51.2719 62.6326 51.4837 62.4208L60.4398 53.6296C60.6816 53.3879 60.8174 53.06 60.8174 52.7181V26.0107C60.8174 24.8242 59.8555 23.8623 58.6689 23.8623H32.2969Z" fill="url(#paint36_radial_173_608)"/>
<path d="M32.2969 23.8623C31.1103 23.8623 30.1484 24.8242 30.1484 26.0107V60.7147C30.1484 61.9013 31.1103 62.8632 32.2969 62.8632H50.5504C50.6311 62.8632 50.7115 62.8505 50.7878 62.8238C51.053 62.7311 51.2719 62.6326 51.4837 62.4208L60.4398 53.6296C60.6816 53.3879 60.8174 53.06 60.8174 52.7181V26.0107C60.8174 24.8242 59.8555 23.8623 58.6689 23.8623H32.2969Z" fill="url(#paint37_radial_173_608)"/>
<path d="M32.2969 23.8623C31.1103 23.8623 30.1484 24.8242 30.1484 26.0107V60.7147C30.1484 61.9013 31.1103 62.8632 32.2969 62.8632H50.5504C50.6311 62.8632 50.7115 62.8505 50.7878 62.8238C51.053 62.7311 51.2719 62.6326 51.4837 62.4208L60.4398 53.6296C60.6816 53.3879 60.8174 53.06 60.8174 52.7181V26.0107C60.8174 24.8242 59.8555 23.8623 58.6689 23.8623H32.2969Z" fill="url(#paint38_radial_173_608)"/>
<path d="M32.2969 23.8623C31.1103 23.8623 30.1484 24.8242 30.1484 26.0107V60.7147C30.1484 61.9013 31.1103 62.8632 32.2969 62.8632H50.5504C50.6311 62.8632 50.7115 62.8505 50.7878 62.8238C51.053 62.7311 51.2719 62.6326 51.4837 62.4208L60.4398 53.6296C60.6816 53.3879 60.8174 53.06 60.8174 52.7181V26.0107C60.8174 24.8242 59.8555 23.8623 58.6689 23.8623H32.2969Z" fill="url(#paint39_radial_173_608)"/>
<path d="M32.2969 23.8623C31.1103 23.8623 30.1484 24.8242 30.1484 26.0107V60.7147C30.1484 61.9013 31.1103 62.8632 32.2969 62.8632H50.5504C50.6311 62.8632 50.7115 62.8505 50.7878 62.8238C51.053 62.7311 51.2719 62.6326 51.4837 62.4208L60.4398 53.6296C60.6816 53.3879 60.8174 53.06 60.8174 52.7181V26.0107C60.8174 24.8242 59.8555 23.8623 58.6689 23.8623H32.2969Z" fill="url(#paint40_radial_173_608)"/>
<path d="M32.2969 23.8623C31.1103 23.8623 30.1484 24.8242 30.1484 26.0107V60.7147C30.1484 61.9013 31.1103 62.8632 32.2969 62.8632H50.5504C50.6311 62.8632 50.7115 62.8505 50.7878 62.8238C51.053 62.7311 51.2719 62.6326 51.4837 62.4208L60.4398 53.6296C60.6816 53.3879 60.8174 53.06 60.8174 52.7181V26.0107C60.8174 24.8242 59.8555 23.8623 58.6689 23.8623H32.2969Z" fill="url(#paint41_radial_173_608)"/>
<path d="M32.2969 23.8623C31.1103 23.8623 30.1484 24.8242 30.1484 26.0107V60.7147C30.1484 61.9013 31.1103 62.8632 32.2969 62.8632H50.5504C50.6311 62.8632 50.7115 62.8505 50.7878 62.8238C51.053 62.7311 51.2719 62.6326 51.4837 62.4208L60.4398 53.6296C60.6816 53.3879 60.8174 53.06 60.8174 52.7181V26.0107C60.8174 24.8242 59.8555 23.8623 58.6689 23.8623H32.2969Z" fill="url(#paint42_radial_173_608)"/>
<path d="M34.3705 35.6519C33.907 35.6519 33.5312 36.0276 33.5312 36.4911C33.5312 36.9546 33.907 37.3303 34.3705 37.3303H56.6068C57.0703 37.3303 57.446 36.9546 57.446 36.4911C57.446 36.0276 57.0703 35.6519 56.6068 35.6519H34.3705Z" fill="#9B96A2"/>
<path d="M34.3705 40.8215C33.907 40.8215 33.5312 41.1973 33.5312 41.6608C33.5312 42.1243 33.907 42.5 34.3705 42.5H56.6068C57.0703 42.5 57.446 42.1243 57.446 41.6608C57.446 41.1973 57.0703 40.8215 56.6068 40.8215H34.3705Z" fill="#9B96A2"/>
<path d="M33.5312 46.8304C33.5312 46.3669 33.907 45.9912 34.3705 45.9912H56.6068C57.0703 45.9912 57.446 46.3669 57.446 46.8304C57.446 47.2939 57.0703 47.6697 56.6068 47.6697H34.3705C33.907 47.6697 33.5312 47.2939 33.5312 46.8304Z" fill="#9B96A2"/>
<path d="M34.3705 51.1609C33.907 51.1609 33.5312 51.5366 33.5312 52.0001C33.5312 52.4636 33.907 52.8394 34.3705 52.8394H48.1071C48.5706 52.8394 48.9463 52.4636 48.9463 52.0001C48.9463 51.5366 48.5706 51.1609 48.1071 51.1609H34.3705Z" fill="#9B96A2"/>
<path d="M60.1105 53.1953C60.3384 53.1953 60.7603 53.0096 60.825 52.6577C60.8229 52.843 60.7885 53.0243 60.7245 53.1953C60.6422 53.4152 60.5112 53.6176 60.3384 53.7863L51.503 62.4063C51.3451 62.5604 51.1587 62.6802 50.9559 62.761C50.8253 62.813 50.6879 62.8488 50.5469 62.8671C50.7009 62.8297 50.8669 62.7208 50.9143 62.4688C50.9131 62.443 50.9124 62.417 50.9124 62.3909V54.8166C50.9124 53.9212 51.6564 53.1953 52.5742 53.1953H60.1105Z" fill="url(#paint43_linear_173_608)"/>
<path d="M60.1105 53.1953C60.3384 53.1953 60.7603 53.0096 60.825 52.6577C60.8229 52.843 60.7885 53.0243 60.7245 53.1953C60.6422 53.4152 60.5112 53.6176 60.3384 53.7863L51.503 62.4063C51.3451 62.5604 51.1587 62.6802 50.9559 62.761C50.8253 62.813 50.6879 62.8488 50.5469 62.8671C50.7009 62.8297 50.8669 62.7208 50.9143 62.4688C50.9131 62.443 50.9124 62.417 50.9124 62.3909V54.8166C50.9124 53.9212 51.6564 53.1953 52.5742 53.1953H60.1105Z" fill="url(#paint44_linear_173_608)"/>
<path d="M60.1105 53.1953C60.3384 53.1953 60.7603 53.0096 60.825 52.6577C60.8229 52.843 60.7885 53.0243 60.7245 53.1953C60.6422 53.4152 60.5112 53.6176 60.3384 53.7863L51.503 62.4063C51.3451 62.5604 51.1587 62.6802 50.9559 62.761C50.8253 62.813 50.6879 62.8488 50.5469 62.8671C50.7009 62.8297 50.8669 62.7208 50.9143 62.4688C50.9131 62.443 50.9124 62.417 50.9124 62.3909V54.8166C50.9124 53.9212 51.6564 53.1953 52.5742 53.1953H60.1105Z" fill="url(#paint45_linear_173_608)"/>
<path d="M60.1105 53.1953C60.3384 53.1953 60.7603 53.0096 60.825 52.6577C60.8229 52.843 60.7885 53.0243 60.7245 53.1953C60.6422 53.4152 60.5112 53.6176 60.3384 53.7863L51.503 62.4063C51.3451 62.5604 51.1587 62.6802 50.9559 62.761C50.8253 62.813 50.6879 62.8488 50.5469 62.8671C50.7009 62.8297 50.8669 62.7208 50.9143 62.4688C50.9131 62.443 50.9124 62.417 50.9124 62.3909V54.8166C50.9124 53.9212 51.6564 53.1953 52.5742 53.1953H60.1105Z" fill="url(#paint46_linear_173_608)"/>
<path d="M60.1105 53.1953C60.3384 53.1953 60.7603 53.0096 60.825 52.6577C60.8229 52.843 60.7885 53.0243 60.7245 53.1953C60.6422 53.4152 60.5112 53.6176 60.3384 53.7863L51.503 62.4063C51.3451 62.5604 51.1587 62.6802 50.9559 62.761C50.8253 62.813 50.6879 62.8488 50.5469 62.8671C50.7009 62.8297 50.8669 62.7208 50.9143 62.4688C50.9131 62.443 50.9124 62.417 50.9124 62.3909V54.8166C50.9124 53.9212 51.6564 53.1953 52.5742 53.1953H60.1105Z" fill="url(#paint47_radial_173_608)"/>
<path fill-rule="evenodd" clip-rule="evenodd" d="M45.4836 18.4106C47.3505 18.4106 48.8671 19.9106 48.8939 21.7711C48.8943 21.7987 48.9167 21.8213 48.9443 21.8213H50.5996C52.4981 21.8213 54.0371 23.3603 54.0371 25.2588V27.951C54.0371 28.4294 53.6494 28.8171 53.171 28.8171H37.8231C37.3448 28.8171 36.957 28.4294 36.957 27.951V25.2588C36.957 23.3603 38.4961 21.8213 40.3945 21.8213H42.023C42.0506 21.8213 42.073 21.7987 42.0734 21.7711C42.1002 19.9106 43.6167 18.4106 45.4836 18.4106ZM45.4836 23.3655C46.3365 23.3655 47.0278 22.6741 47.0278 21.8213C47.0278 20.9685 46.3365 20.2771 45.4836 20.2771C44.6308 20.2771 43.9395 20.9685 43.9395 21.8213C43.9395 22.6741 44.6308 23.3655 45.4836 23.3655Z" fill="url(#paint48_linear_173_608)"/>
<path fill-rule="evenodd" clip-rule="evenodd" d="M45.4836 18.4106C47.3505 18.4106 48.8671 19.9106 48.8939 21.7711C48.8943 21.7987 48.9167 21.8213 48.9443 21.8213H50.5996C52.4981 21.8213 54.0371 23.3603 54.0371 25.2588V27.951C54.0371 28.4294 53.6494 28.8171 53.171 28.8171H37.8231C37.3448 28.8171 36.957 28.4294 36.957 27.951V25.2588C36.957 23.3603 38.4961 21.8213 40.3945 21.8213H42.023C42.0506 21.8213 42.073 21.7987 42.0734 21.7711C42.1002 19.9106 43.6167 18.4106 45.4836 18.4106ZM45.4836 23.3655C46.3365 23.3655 47.0278 22.6741 47.0278 21.8213C47.0278 20.9685 46.3365 20.2771 45.4836 20.2771C44.6308 20.2771 43.9395 20.9685 43.9395 21.8213C43.9395 22.6741 44.6308 23.3655 45.4836 23.3655Z" fill="url(#paint49_radial_173_608)"/>
<path fill-rule="evenodd" clip-rule="evenodd" d="M45.4836 18.4106C47.3505 18.4106 48.8671 19.9106 48.8939 21.7711C48.8943 21.7987 48.9167 21.8213 48.9443 21.8213H50.5996C52.4981 21.8213 54.0371 23.3603 54.0371 25.2588V27.951C54.0371 28.4294 53.6494 28.8171 53.171 28.8171H37.8231C37.3448 28.8171 36.957 28.4294 36.957 27.951V25.2588C36.957 23.3603 38.4961 21.8213 40.3945 21.8213H42.023C42.0506 21.8213 42.073 21.7987 42.0734 21.7711C42.1002 19.9106 43.6167 18.4106 45.4836 18.4106ZM45.4836 23.3655C46.3365 23.3655 47.0278 22.6741 47.0278 21.8213C47.0278 20.9685 46.3365 20.2771 45.4836 20.2771C44.6308 20.2771 43.9395 20.9685 43.9395 21.8213C43.9395 22.6741 44.6308 23.3655 45.4836 23.3655Z" fill="url(#paint50_radial_173_608)"/>
<path fill-rule="evenodd" clip-rule="evenodd" d="M45.4836 18.4106C47.3505 18.4106 48.8671 19.9106 48.8939 21.7711C48.8943 21.7987 48.9167 21.8213 48.9443 21.8213H50.5996C52.4981 21.8213 54.0371 23.3603 54.0371 25.2588V27.951C54.0371 28.4294 53.6494 28.8171 53.171 28.8171H37.8231C37.3448 28.8171 36.957 28.4294 36.957 27.951V25.2588C36.957 23.3603 38.4961 21.8213 40.3945 21.8213H42.023C42.0506 21.8213 42.073 21.7987 42.0734 21.7711C42.1002 19.9106 43.6167 18.4106 45.4836 18.4106ZM45.4836 23.3655C46.3365 23.3655 47.0278 22.6741 47.0278 21.8213C47.0278 20.9685 46.3365 20.2771 45.4836 20.2771C44.6308 20.2771 43.9395 20.9685 43.9395 21.8213C43.9395 22.6741 44.6308 23.3655 45.4836 23.3655Z" fill="url(#paint51_linear_173_608)"/>
<path fill-rule="evenodd" clip-rule="evenodd" d="M45.4836 18.4106C47.3505 18.4106 48.8671 19.9106 48.8939 21.7711C48.8943 21.7987 48.9167 21.8213 48.9443 21.8213H50.5996C52.4981 21.8213 54.0371 23.3603 54.0371 25.2588V27.951C54.0371 28.4294 53.6494 28.8171 53.171 28.8171H37.8231C37.3448 28.8171 36.957 28.4294 36.957 27.951V25.2588C36.957 23.3603 38.4961 21.8213 40.3945 21.8213H42.023C42.0506 21.8213 42.073 21.7987 42.0734 21.7711C42.1002 19.9106 43.6167 18.4106 45.4836 18.4106ZM45.4836 23.3655C46.3365 23.3655 47.0278 22.6741 47.0278 21.8213C47.0278 20.9685 46.3365 20.2771 45.4836 20.2771C44.6308 20.2771 43.9395 20.9685 43.9395 21.8213C43.9395 22.6741 44.6308 23.3655 45.4836 23.3655Z" fill="url(#paint52_linear_173_608)"/>
<path fill-rule="evenodd" clip-rule="evenodd" d="M45.4836 18.4106C47.3505 18.4106 48.8671 19.9106 48.8939 21.7711C48.8943 21.7987 48.9167 21.8213 48.9443 21.8213H50.5996C52.4981 21.8213 54.0371 23.3603 54.0371 25.2588V27.951C54.0371 28.4294 53.6494 28.8171 53.171 28.8171H37.8231C37.3448 28.8171 36.957 28.4294 36.957 27.951V25.2588C36.957 23.3603 38.4961 21.8213 40.3945 21.8213H42.023C42.0506 21.8213 42.073 21.7987 42.0734 21.7711C42.1002 19.9106 43.6167 18.4106 45.4836 18.4106ZM45.4836 23.3655C46.3365 23.3655 47.0278 22.6741 47.0278 21.8213C47.0278 20.9685 46.3365 20.2771 45.4836 20.2771C44.6308 20.2771 43.9395 20.9685 43.9395 21.8213C43.9395 22.6741 44.6308 23.3655 45.4836 23.3655Z" fill="url(#paint53_radial_173_608)"/>
<path fill-rule="evenodd" clip-rule="evenodd" d="M45.4836 18.4106C47.3505 18.4106 48.8671 19.9106 48.8939 21.7711C48.8943 21.7987 48.9167 21.8213 48.9443 21.8213H50.5996C52.4981 21.8213 54.0371 23.3603 54.0371 25.2588V27.951C54.0371 28.4294 53.6494 28.8171 53.171 28.8171H37.8231C37.3448 28.8171 36.957 28.4294 36.957 27.951V25.2588C36.957 23.3603 38.4961 21.8213 40.3945 21.8213H42.023C42.0506 21.8213 42.073 21.7987 42.0734 21.7711C42.1002 19.9106 43.6167 18.4106 45.4836 18.4106ZM45.4836 23.3655C46.3365 23.3655 47.0278 22.6741 47.0278 21.8213C47.0278 20.9685 46.3365 20.2771 45.4836 20.2771C44.6308 20.2771 43.9395 20.9685 43.9395 21.8213C43.9395 22.6741 44.6308 23.3655 45.4836 23.3655Z" fill="url(#paint54_radial_173_608)"/>
<path fill-rule="evenodd" clip-rule="evenodd" d="M45.4836 18.4106C47.3505 18.4106 48.8671 19.9106 48.8939 21.7711C48.8943 21.7987 48.9167 21.8213 48.9443 21.8213H50.5996C52.4981 21.8213 54.0371 23.3603 54.0371 25.2588V27.951C54.0371 28.4294 53.6494 28.8171 53.171 28.8171H37.8231C37.3448 28.8171 36.957 28.4294 36.957 27.951V25.2588C36.957 23.3603 38.4961 21.8213 40.3945 21.8213H42.023C42.0506 21.8213 42.073 21.7987 42.0734 21.7711C42.1002 19.9106 43.6167 18.4106 45.4836 18.4106ZM45.4836 23.3655C46.3365 23.3655 47.0278 22.6741 47.0278 21.8213C47.0278 20.9685 46.3365 20.2771 45.4836 20.2771C44.6308 20.2771 43.9395 20.9685 43.9395 21.8213C43.9395 22.6741 44.6308 23.3655 45.4836 23.3655Z" fill="url(#paint55_linear_173_608)"/>
<path fill-rule="evenodd" clip-rule="evenodd" d="M45.4836 18.4106C47.3505 18.4106 48.8671 19.9106 48.8939 21.7711C48.8943 21.7987 48.9167 21.8213 48.9443 21.8213H50.5996C52.4981 21.8213 54.0371 23.3603 54.0371 25.2588V27.951C54.0371 28.4294 53.6494 28.8171 53.171 28.8171H37.8231C37.3448 28.8171 36.957 28.4294 36.957 27.951V25.2588C36.957 23.3603 38.4961 21.8213 40.3945 21.8213H42.023C42.0506 21.8213 42.073 21.7987 42.0734 21.7711C42.1002 19.9106 43.6167 18.4106 45.4836 18.4106ZM45.4836 23.3655C46.3365 23.3655 47.0278 22.6741 47.0278 21.8213C47.0278 20.9685 46.3365 20.2771 45.4836 20.2771C44.6308 20.2771 43.9395 20.9685 43.9395 21.8213C43.9395 22.6741 44.6308 23.3655 45.4836 23.3655Z" fill="url(#paint56_radial_173_608)"/>
<path fill-rule="evenodd" clip-rule="evenodd" d="M45.4836 18.4106C47.3505 18.4106 48.8671 19.9106 48.8939 21.7711C48.8943 21.7987 48.9167 21.8213 48.9443 21.8213H50.5996C52.4981 21.8213 54.0371 23.3603 54.0371 25.2588V27.951C54.0371 28.4294 53.6494 28.8171 53.171 28.8171H37.8231C37.3448 28.8171 36.957 28.4294 36.957 27.951V25.2588C36.957 23.3603 38.4961 21.8213 40.3945 21.8213H42.023C42.0506 21.8213 42.073 21.7987 42.0734 21.7711C42.1002 19.9106 43.6167 18.4106 45.4836 18.4106ZM45.4836 23.3655C46.3365 23.3655 47.0278 22.6741 47.0278 21.8213C47.0278 20.9685 46.3365 20.2771 45.4836 20.2771C44.6308 20.2771 43.9395 20.9685 43.9395 21.8213C43.9395 22.6741 44.6308 23.3655 45.4836 23.3655Z" fill="url(#paint57_radial_173_608)"/>
<path fill-rule="evenodd" clip-rule="evenodd" d="M45.4836 18.4106C47.3505 18.4106 48.8671 19.9106 48.8939 21.7711C48.8943 21.7987 48.9167 21.8213 48.9443 21.8213H50.5996C52.4981 21.8213 54.0371 23.3603 54.0371 25.2588V27.951C54.0371 28.4294 53.6494 28.8171 53.171 28.8171H37.8231C37.3448 28.8171 36.957 28.4294 36.957 27.951V25.2588C36.957 23.3603 38.4961 21.8213 40.3945 21.8213H42.023C42.0506 21.8213 42.073 21.7987 42.0734 21.7711C42.1002 19.9106 43.6167 18.4106 45.4836 18.4106ZM45.4836 23.3655C46.3365 23.3655 47.0278 22.6741 47.0278 21.8213C47.0278 20.9685 46.3365 20.2771 45.4836 20.2771C44.6308 20.2771 43.9395 20.9685 43.9395 21.8213C43.9395 22.6741 44.6308 23.3655 45.4836 23.3655Z" fill="url(#paint58_radial_173_608)"/>
<path fill-rule="evenodd" clip-rule="evenodd" d="M45.4836 18.4106C47.3505 18.4106 48.8671 19.9106 48.8939 21.7711C48.8943 21.7987 48.9167 21.8213 48.9443 21.8213H50.5996C52.4981 21.8213 54.0371 23.3603 54.0371 25.2588V27.951C54.0371 28.4294 53.6494 28.8171 53.171 28.8171H37.8231C37.3448 28.8171 36.957 28.4294 36.957 27.951V25.2588C36.957 23.3603 38.4961 21.8213 40.3945 21.8213H42.023C42.0506 21.8213 42.073 21.7987 42.0734 21.7711C42.1002 19.9106 43.6167 18.4106 45.4836 18.4106ZM45.4836 23.3655C46.3365 23.3655 47.0278 22.6741 47.0278 21.8213C47.0278 20.9685 46.3365 20.2771 45.4836 20.2771C44.6308 20.2771 43.9395 20.9685 43.9395 21.8213C43.9395 22.6741 44.6308 23.3655 45.4836 23.3655Z" fill="url(#paint59_radial_173_608)"/>
<path fill-rule="evenodd" clip-rule="evenodd" d="M45.4836 18.4106C47.3505 18.4106 48.8671 19.9106 48.8939 21.7711C48.8943 21.7987 48.9167 21.8213 48.9443 21.8213H50.5996C52.4981 21.8213 54.0371 23.3603 54.0371 25.2588V27.951C54.0371 28.4294 53.6494 28.8171 53.171 28.8171H37.8231C37.3448 28.8171 36.957 28.4294 36.957 27.951V25.2588C36.957 23.3603 38.4961 21.8213 40.3945 21.8213H42.023C42.0506 21.8213 42.073 21.7987 42.0734 21.7711C42.1002 19.9106 43.6167 18.4106 45.4836 18.4106ZM45.4836 23.3655C46.3365 23.3655 47.0278 22.6741 47.0278 21.8213C47.0278 20.9685 46.3365 20.2771 45.4836 20.2771C44.6308 20.2771 43.9395 20.9685 43.9395 21.8213C43.9395 22.6741 44.6308 23.3655 45.4836 23.3655Z" fill="url(#paint60_radial_173_608)"/>
<path fill-rule="evenodd" clip-rule="evenodd" d="M45.4836 18.4106C47.3505 18.4106 48.8671 19.9106 48.8939 21.7711C48.8943 21.7987 48.9167 21.8213 48.9443 21.8213H50.5996C52.4981 21.8213 54.0371 23.3603 54.0371 25.2588V27.951C54.0371 28.4294 53.6494 28.8171 53.171 28.8171H37.8231C37.3448 28.8171 36.957 28.4294 36.957 27.951V25.2588C36.957 23.3603 38.4961 21.8213 40.3945 21.8213H42.023C42.0506 21.8213 42.073 21.7987 42.0734 21.7711C42.1002 19.9106 43.6167 18.4106 45.4836 18.4106ZM45.4836 23.3655C46.3365 23.3655 47.0278 22.6741 47.0278 21.8213C47.0278 20.9685 46.3365 20.2771 45.4836 20.2771C44.6308 20.2771 43.9395 20.9685 43.9395 21.8213C43.9395 22.6741 44.6308 23.3655 45.4836 23.3655Z" fill="url(#paint61_radial_173_608)"/>
<path fill-rule="evenodd" clip-rule="evenodd" d="M45.4836 18.4106C47.3505 18.4106 48.8671 19.9106 48.8939 21.7711C48.8943 21.7987 48.9167 21.8213 48.9443 21.8213H50.5996C52.4981 21.8213 54.0371 23.3603 54.0371 25.2588V27.951C54.0371 28.4294 53.6494 28.8171 53.171 28.8171H37.8231C37.3448 28.8171 36.957 28.4294 36.957 27.951V25.2588C36.957 23.3603 38.4961 21.8213 40.3945 21.8213H42.023C42.0506 21.8213 42.073 21.7987 42.0734 21.7711C42.1002 19.9106 43.6167 18.4106 45.4836 18.4106ZM45.4836 23.3655C46.3365 23.3655 47.0278 22.6741 47.0278 21.8213C47.0278 20.9685 46.3365 20.2771 45.4836 20.2771C44.6308 20.2771 43.9395 20.9685 43.9395 21.8213C43.9395 22.6741 44.6308 23.3655 45.4836 23.3655Z" fill="url(#paint62_radial_173_608)"/>
<path fill-rule="evenodd" clip-rule="evenodd" d="M45.4836 18.4106C47.3505 18.4106 48.8671 19.9106 48.8939 21.7711C48.8943 21.7987 48.9167 21.8213 48.9443 21.8213H50.5996C52.4981 21.8213 54.0371 23.3603 54.0371 25.2588V27.951C54.0371 28.4294 53.6494 28.8171 53.171 28.8171H37.8231C37.3448 28.8171 36.957 28.4294 36.957 27.951V25.2588C36.957 23.3603 38.4961 21.8213 40.3945 21.8213H42.023C42.0506 21.8213 42.073 21.7987 42.0734 21.7711C42.1002 19.9106 43.6167 18.4106 45.4836 18.4106ZM45.4836 23.3655C46.3365 23.3655 47.0278 22.6741 47.0278 21.8213C47.0278 20.9685 46.3365 20.2771 45.4836 20.2771C44.6308 20.2771 43.9395 20.9685 43.9395 21.8213C43.9395 22.6741 44.6308 23.3655 45.4836 23.3655Z" fill="url(#paint63_radial_173_608)"/>
</g>
<defs>
<linearGradient id="paint0_linear_173_608" x1="45.5008" y1="20.2168" x2="45.5008" y2="66.5089" gradientUnits="userSpaceOnUse">
<stop stop-color="#E8A874"/>
<stop offset="1" stop-color="#DB925D"/>
</linearGradient>
<linearGradient id="paint1_linear_173_608" x1="30.3725" y1="42.0259" x2="28.8219" y2="42.0259" gradientUnits="userSpaceOnUse">
<stop stop-color="#CD7D52" stop-opacity="0"/>
<stop offset="0.105083" stop-color="#CD7D52"/>
<stop offset="0.791667" stop-color="#CD7D52" stop-opacity="0.116398"/>
<stop offset="1" stop-color="#CD7D52" stop-opacity="0"/>
</linearGradient>
<linearGradient id="paint2_linear_173_608" x1="42.1518" y1="62.665" x2="42.1518" y2="64.0365" gradientUnits="userSpaceOnUse">
<stop stop-color="#CD7D52" stop-opacity="0"/>
<stop offset="0.105083" stop-color="#CD7D52"/>
<stop offset="0.791667" stop-color="#CD7D52" stop-opacity="0.116398"/>
<stop offset="1" stop-color="#CD7D52" stop-opacity="0"/>
</linearGradient>
<radialGradient id="paint3_radial_173_608" cx="0" cy="0" r="1" gradientUnits="userSpaceOnUse" gradientTransform="translate(28.5287 64.3304) rotate(-45) scale(4.86467 6.30516)">
<stop offset="0.652657" stop-color="#DB925D"/>
<stop offset="1" stop-color="#DB925D" stop-opacity="0"/>
</radialGradient>
<radialGradient id="paint4_radial_173_608" cx="0" cy="0" r="1" gradientUnits="userSpaceOnUse" gradientTransform="translate(63.8187 63.8004) rotate(-171.2) scale(14.2793 10.3002)">
<stop offset="0.856502" stop-color="#DB925D"/>
<stop offset="0.952476" stop-color="#DB925D" stop-opacity="0.291083"/>
<stop offset="1" stop-color="#DB925D" stop-opacity="0"/>
</radialGradient>
<linearGradient id="paint5_linear_173_608" x1="55.1949" y1="58.4067" x2="55.938" y2="59.1443" gradientUnits="userSpaceOnUse">
<stop stop-color="#CD7D52" stop-opacity="0"/>
<stop offset="0.105083" stop-color="#CD7D52"/>
<stop offset="0.791667" stop-color="#CD7D52" stop-opacity="0.116398"/>
<stop offset="1" stop-color="#CD7D52" stop-opacity="0"/>
</linearGradient>
<radialGradient id="paint6_radial_173_608" cx="0" cy="0" r="1" gradientUnits="userSpaceOnUse" gradientTransform="translate(51.0736 67.1028) rotate(-88.1045) scale(4.45301 4.91795)">
<stop offset="0.856502" stop-color="#DB925D"/>
<stop offset="0.952476" stop-color="#DB925D" stop-opacity="0.291083"/>
<stop offset="1" stop-color="#DB925D" stop-opacity="0"/>
</radialGradient>
<radialGradient id="paint7_radial_173_608" cx="0" cy="0" r="1" gradientUnits="userSpaceOnUse" gradientTransform="translate(65.3166 50.4899) rotate(157.353) scale(7.25332 4.12915)">
<stop offset="0.674511" stop-color="#DB925D"/>
<stop offset="0.886621" stop-color="#DB925D" stop-opacity="0.207805"/>
<stop offset="1" stop-color="#DB925D" stop-opacity="0"/>
</radialGradient>
<radialGradient id="paint8_radial_173_608" cx="0" cy="0" r="1" gradientUnits="userSpaceOnUse" gradientTransform="translate(31.5639 61.287) rotate(149.534) scale(2.69736 2.97213)">
<stop offset="0.429764" stop-color="#CD7D52"/>
<stop offset="0.791667" stop-color="#CD7D52" stop-opacity="0.116398"/>
<stop offset="1" stop-color="#CD7D52" stop-opacity="0"/>
</radialGradient>
<radialGradient id="paint9_radial_173_608" cx="0" cy="0" r="1" gradientUnits="userSpaceOnUse" gradientTransform="translate(49.881 60.6359) rotate(63.7833) scale(3.81395 3.33776)">
<stop offset="0.603005" stop-color="#CD7D52"/>
<stop offset="0.711247" stop-color="#CD7D52" stop-opacity="0.395219"/>
<stop offset="0.79003" stop-color="#CD7D52" stop-opacity="0.116398"/>
<stop offset="1" stop-color="#CD7D52" stop-opacity="0"/>
</radialGradient>
<radialGradient id="paint10_radial_173_608" cx="0" cy="0" r="1" gradientUnits="userSpaceOnUse" gradientTransform="translate(65.5246 54.0667) rotate(179.474) scale(7.438 15.7569)">
<stop stop-color="#E8A874"/>
<stop offset="0.661458" stop-color="#E8A874" stop-opacity="0.177083"/>
<stop offset="1" stop-color="#E8A874" stop-opacity="0"/>
</radialGradient>
<radialGradient id="paint11_radial_173_608" cx="0" cy="0" r="1" gradientUnits="userSpaceOnUse" gradientTransform="translate(63.1454 44.4391) rotate(121.449) scale(8.20187 17.3751)">
<stop stop-color="#E8A874"/>
<stop offset="0.661458" stop-color="#E8A874" stop-opacity="0.177083"/>
<stop offset="1" stop-color="#E8A874" stop-opacity="0"/>
</radialGradient>
<radialGradient id="paint12_radial_173_608" cx="0" cy="0" r="1" gradientUnits="userSpaceOnUse" gradientTransform="translate(30.3447 20.6838) rotate(76.0366) scale(5.35409 11.3422)">
<stop stop-color="#E8A874"/>
<stop offset="0.744173" stop-color="#E8A874"/>
<stop offset="1" stop-color="#E8A874" stop-opacity="0"/>
</radialGradient>
<radialGradient id="paint13_radial_173_608" cx="0" cy="0" r="1" gradientUnits="userSpaceOnUse" gradientTransform="translate(44.9603 24.131) rotate(-90) scale(4.29687 3.48673)">
<stop stop-color="#D79769"/>
<stop offset="1" stop-color="#D79769" stop-opacity="0"/>
</radialGradient>
<radialGradient id="paint14_radial_173_608" cx="0" cy="0" r="1" gradientUnits="userSpaceOnUse" gradientTransform="translate(31.7148 25.7317) rotate(-120.619) scale(2.3676 2.37635)">
<stop offset="0.595767" stop-color="#CD7D52"/>
<stop offset="0.800492" stop-color="#CD7D52" stop-opacity="0.395219"/>
<stop offset="0.906903" stop-color="#CD7D52" stop-opacity="0.116398"/>
<stop offset="1" stop-color="#CD7D52" stop-opacity="0"/>
</radialGradient>
<radialGradient id="paint15_radial_173_608" cx="0" cy="0" r="1" gradientUnits="userSpaceOnUse" gradientTransform="translate(33.1325 24.6673) rotate(-90) scale(1.3381 2.985)">
<stop offset="0.527329" stop-color="#CD7D52"/>
<stop offset="0.739134" stop-color="#CD7D52" stop-opacity="0.395219"/>
<stop offset="0.858764" stop-color="#CD7D52" stop-opacity="0.116398"/>
<stop offset="1" stop-color="#CD7D52" stop-opacity="0"/>
</radialGradient>
<radialGradient id="paint16_radial_173_608" cx="0" cy="0" r="1" gradientUnits="userSpaceOnUse" gradientTransform="translate(35.326 24.4945) rotate(-90) scale(1.07845 2.97712)">
<stop offset="0.527329" stop-color="#CD7D52"/>
<stop offset="0.739134" stop-color="#CD7D52" stop-opacity="0.395219"/>
<stop offset="0.858764" stop-color="#CD7D52" stop-opacity="0.116398"/>
<stop offset="1" stop-color="#CD7D52" stop-opacity="0"/>
</radialGradient>
<linearGradient id="paint17_linear_173_608" x1="44.168" y1="20.2212" x2="44.168" y2="21.5888" gradientUnits="userSpaceOnUse">
<stop stop-color="#FFC287"/>
<stop offset="0.797338" stop-color="#FFC287" stop-opacity="0.133148"/>
<stop offset="1" stop-color="#FFC287" stop-opacity="0"/>
</linearGradient>
<linearGradient id="paint18_linear_173_608" x1="64.2828" y1="41.7244" x2="63.0508" y2="41.7244" gradientUnits="userSpaceOnUse">
<stop stop-color="#FFC287"/>
<stop offset="0.776079" stop-color="#FFC287" stop-opacity="0.114357"/>
<stop offset="1" stop-color="#FFC287" stop-opacity="0"/>
</linearGradient>
<linearGradient id="paint19_linear_173_608" x1="45.5008" y1="67.1465" x2="45.5008" y2="65.1447" gradientUnits="userSpaceOnUse">
<stop offset="0.0882706" stop-color="#A4545D"/>
<stop offset="0.823892" stop-color="#A4545D" stop-opacity="0.12"/>
<stop offset="1" stop-color="#A4545D" stop-opacity="0"/>
</linearGradient>
<linearGradient id="paint20_linear_173_608" x1="26.3994" y1="43.3629" x2="27.8491" y2="43.3629" gradientUnits="userSpaceOnUse">
<stop stop-color="#A4545D"/>
<stop offset="0.787277" stop-color="#A4545D" stop-opacity="0.12292"/>
<stop offset="1" stop-color="#A4545D" stop-opacity="0"/>
</linearGradient>
<radialGradient id="paint21_radial_173_608" cx="0" cy="0" r="1" gradientUnits="userSpaceOnUse" gradientTransform="translate(23.8646 65.9195) rotate(-48.7591) scale(60.0225 33.3212)">
<stop offset="0.53417" stop-color="#FFC287" stop-opacity="0"/>
<stop offset="0.954962" stop-color="#FFC287" stop-opacity="0"/>
<stop offset="0.968283" stop-color="#FFC287" stop-opacity="0.093854"/>
<stop offset="0.97518" stop-color="#FFC287" stop-opacity="0.269784"/>
<stop offset="0.984482" stop-color="#FFC287" stop-opacity="0.56"/>
<stop offset="0.994408" stop-color="#FFC287" stop-opacity="0.83"/>
</radialGradient>
<radialGradient id="paint22_radial_173_608" cx="0" cy="0" r="1" gradientUnits="userSpaceOnUse" gradientTransform="translate(55.3617 33.6601) rotate(130.872) scale(43.0492 30.5355)">
<stop offset="0.53417" stop-color="#A4545D" stop-opacity="0"/>
<stop offset="0.954962" stop-color="#A4545D" stop-opacity="0"/>
<stop offset="0.963192" stop-color="#A4545D" stop-opacity="0.093854"/>
<stop offset="0.971887" stop-color="#A4545D" stop-opacity="0.269784"/>
<stop offset="0.983579" stop-color="#A4545D" stop-opacity="0.56"/>
<stop offset="1" stop-color="#A4545D" stop-opacity="0.83"/>
</radialGradient>
<radialGradient id="paint23_radial_173_608" cx="0" cy="0" r="1" gradientUnits="userSpaceOnUse" gradientTransform="translate(20.4874 68.4558) rotate(-47.6345) scale(64.0397 34.3261)">
<stop offset="0.53417" stop-color="#D08F65" stop-opacity="0"/>
<stop offset="0.990296" stop-color="#D08F65" stop-opacity="0"/>
<stop offset="0.994174" stop-color="#D08F65" stop-opacity="0.093854"/>
<stop offset="0.996487" stop-color="#D08F65" stop-opacity="0.36"/>
<stop offset="0.999217" stop-color="#D08F65" stop-opacity="0.83"/>
</radialGradient>
<linearGradient id="paint24_linear_173_608" x1="45.5008" y1="20.2168" x2="45.5008" y2="20.5799" gradientUnits="userSpaceOnUse">
<stop stop-color="#D08F65"/>
<stop offset="0.786458" stop-color="#D08F65" stop-opacity="0.114583"/>
<stop offset="1" stop-color="#D08F65" stop-opacity="0"/>
</linearGradient>
<linearGradient id="paint25_linear_173_608" x1="64.2828" y1="43.7085" x2="64.051" y2="43.7085" gradientUnits="userSpaceOnUse">
<stop stop-color="#D08F65"/>
<stop offset="0.796875" stop-color="#D08F65" stop-opacity="0.09375"/>
<stop offset="1" stop-color="#D08F65" stop-opacity="0"/>
</linearGradient>
<radialGradient id="paint26_radial_173_608" cx="0" cy="0" r="1" gradientUnits="userSpaceOnUse" gradientTransform="translate(64.1653 21.9825) rotate(158.888) scale(0.414644 3.49282)">
<stop stop-color="#D08F65"/>
<stop offset="0.796875" stop-color="#D08F65" stop-opacity="0.09375"/>
<stop offset="1" stop-color="#D08F65" stop-opacity="0"/>
</radialGradient>
<radialGradient id="paint27_radial_173_608" cx="0" cy="0" r="1" gradientUnits="userSpaceOnUse" gradientTransform="translate(62.4884 20.2762) rotate(113.963) scale(0.522201 4.39884)">
<stop stop-color="#D08F65"/>
<stop offset="0.796875" stop-color="#D08F65" stop-opacity="0.09375"/>
<stop offset="1" stop-color="#D08F65" stop-opacity="0"/>
</radialGradient>
<linearGradient id="paint28_linear_173_608" x1="45.4829" y1="23.8623" x2="45.4829" y2="62.8632" gradientUnits="userSpaceOnUse">
<stop stop-color="#EAE2F4"/>
<stop offset="1" stop-color="#E4DAEF"/>
</linearGradient>
<linearGradient id="paint29_linear_173_608" x1="45.4829" y1="23.8623" x2="45.4829" y2="24.7504" gradientUnits="userSpaceOnUse">
<stop stop-color="white"/>
<stop offset="0.75044" stop-color="white" stop-opacity="0.163437"/>
<stop offset="1" stop-color="white" stop-opacity="0"/>
</linearGradient>
<linearGradient id="paint30_linear_173_608" x1="60.9884" y1="41.8166" x2="59.871" y2="41.8166" gradientUnits="userSpaceOnUse">
<stop offset="0.213542" stop-color="white"/>
<stop offset="0.77495" stop-color="white" stop-opacity="0.14863"/>
<stop offset="1" stop-color="white" stop-opacity="0"/>
</linearGradient>
<linearGradient id="paint31_linear_173_608" x1="30.0121" y1="43.3627" x2="31.1016" y2="43.3627" gradientUnits="userSpaceOnUse">
<stop offset="0.0790508" stop-color="#CAB8DC"/>
<stop offset="0.722078" stop-color="#CAB8DC" stop-opacity="0.150656"/>
<stop offset="1" stop-color="#CAB8DC" stop-opacity="0"/>
</linearGradient>
<linearGradient id="paint32_linear_173_608" x1="41.6217" y1="63.0899" x2="41.6217" y2="61.8875" gradientUnits="userSpaceOnUse">
<stop offset="0.325014" stop-color="#CAB8DC"/>
<stop offset="0.707064" stop-color="#CAB8DC" stop-opacity="0.262727"/>
<stop offset="1" stop-color="#CAB8DC" stop-opacity="0"/>
</linearGradient>
<linearGradient id="paint33_linear_173_608" x1="30.6148" y1="62.5677" x2="30.9035" y2="61.7822" gradientUnits="userSpaceOnUse">
<stop stop-color="#CAB8DC"/>
<stop offset="1" stop-color="#CAB8DC" stop-opacity="0"/>
</linearGradient>
<radialGradient id="paint34_radial_173_608" cx="0" cy="0" r="1" gradientUnits="userSpaceOnUse" gradientTransform="translate(51.4211 59.8573) rotate(-176.952) scale(2.18051 6.93798)">
<stop stop-color="#CAB8DC"/>
<stop offset="0.706917" stop-color="#CAB8DC" stop-opacity="0.116368"/>
<stop offset="1" stop-color="#CAB8DC" stop-opacity="0"/>
</radialGradient>
<radialGradient id="paint35_radial_173_608" cx="0" cy="0" r="1" gradientUnits="userSpaceOnUse" gradientTransform="translate(51.9332 54.9478) rotate(-161.209) scale(1.93297)">
<stop stop-color="#CAB8DC"/>
<stop offset="0.803021" stop-color="#CAB8DC" stop-opacity="0.116368"/>
<stop offset="1" stop-color="#CAB8DC" stop-opacity="0"/>
</radialGradient>
<radialGradient id="paint36_radial_173_608" cx="0" cy="0" r="1" gradientUnits="userSpaceOnUse" gradientTransform="translate(51.5616 56.9501) rotate(179.021) scale(2.00694 3.4675)">
<stop stop-color="#CAB8DC"/>
<stop offset="0.706917" stop-color="#CAB8DC" stop-opacity="0.116368"/>
<stop offset="1" stop-color="#CAB8DC" stop-opacity="0"/>
</radialGradient>
<radialGradient id="paint37_radial_173_608" cx="0" cy="0" r="1" gradientUnits="userSpaceOnUse" gradientTransform="translate(60.2815 24.6812) rotate(128.311) scale(47.8834 31.2833)">
<stop offset="0.957987" stop-color="#CAB8DC" stop-opacity="0"/>
<stop offset="0.972569" stop-color="#CAB8DC" stop-opacity="0.180975"/>
<stop offset="0.996603" stop-color="#CAB8DC"/>
</radialGradient>
<radialGradient id="paint38_radial_173_608" cx="0" cy="0" r="1" gradientUnits="userSpaceOnUse" gradientTransform="translate(30.9088 62.3572) rotate(-52.5073) scale(47.7465 30.9191)">
<stop offset="0.957987" stop-color="white" stop-opacity="0"/>
<stop offset="0.973458" stop-color="white" stop-opacity="0.180975"/>
<stop offset="0.984218" stop-color="white" stop-opacity="0.359888"/>
<stop offset="0.996603" stop-color="white"/>
</radialGradient>
<radialGradient id="paint39_radial_173_608" cx="0" cy="0" r="1" gradientUnits="userSpaceOnUse" gradientTransform="translate(63.4262 59.8506) rotate(-132.683) scale(48.7964 31.8798)">
<stop offset="0.960701" stop-color="#CAB8DC" stop-opacity="0"/>
<stop offset="0.97115" stop-color="#CAB8DC" stop-opacity="0.180975"/>
<stop offset="0.989089" stop-color="#CAB8DC"/>
</radialGradient>
<radialGradient id="paint40_radial_173_608" cx="0" cy="0" r="1" gradientUnits="userSpaceOnUse" gradientTransform="translate(55.655 53.8688) rotate(-90) scale(1.48966 5.33956)">
<stop stop-color="white"/>
<stop offset="0.791858" stop-color="white" stop-opacity="0.138217"/>
<stop offset="1" stop-color="white" stop-opacity="0"/>
</radialGradient>
<radialGradient id="paint41_radial_173_608" cx="0" cy="0" r="1" gradientUnits="userSpaceOnUse" gradientTransform="translate(58.7318 53.2937) rotate(-90) scale(1.01512 7.14699)">
<stop stop-color="white"/>
<stop offset="0.791858" stop-color="white" stop-opacity="0.138217"/>
<stop offset="1" stop-color="white" stop-opacity="0"/>
</radialGradient>
<radialGradient id="paint42_radial_173_608" cx="0" cy="0" r="1" gradientUnits="userSpaceOnUse" gradientTransform="translate(52.9659 53.7334) rotate(-90) scale(1.23816 2.14743)">
<stop stop-color="white"/>
<stop offset="0.824494" stop-color="white" stop-opacity="0.16795"/>
<stop offset="1" stop-color="white" stop-opacity="0"/>
</radialGradient>
<linearGradient id="paint43_linear_173_608" x1="50.9536" y1="55.2425" x2="54.7882" y2="59.8452" gradientUnits="userSpaceOnUse">
<stop stop-color="#D9D1E3"/>
<stop offset="0.900635" stop-color="#C8BDD3"/>
</linearGradient>
<linearGradient id="paint44_linear_173_608" x1="55.6859" y1="52.9119" x2="55.6859" y2="54.6891" gradientUnits="userSpaceOnUse">
<stop offset="0.140064" stop-color="#DDD9E1"/>
<stop offset="0.834955" stop-color="#DDD9E1" stop-opacity="0.0795198"/>
<stop offset="1" stop-color="#DDD9E1" stop-opacity="0"/>
</linearGradient>
<linearGradient id="paint45_linear_173_608" x1="56.0363" y1="58.2906" x2="55.5572" y2="57.8059" gradientUnits="userSpaceOnUse">
<stop offset="0.0993291" stop-color="#AFA5BA"/>
<stop offset="0.718496" stop-color="#AFA5BA" stop-opacity="0.168543"/>
<stop offset="1" stop-color="#AFA5BA" stop-opacity="0"/>
</linearGradient>
<linearGradient id="paint46_linear_173_608" x1="50.8053" y1="58.3957" x2="51.5522" y2="58.3957" gradientUnits="userSpaceOnUse">
<stop stop-color="#AFA5BA"/>
<stop offset="0.72189" stop-color="#AFA5BA" stop-opacity="0.173819"/>
<stop offset="0.854167" stop-color="#AFA5BA" stop-opacity="0.0618489"/>
<stop offset="1" stop-color="#AFA5BA" stop-opacity="0"/>
</linearGradient>
<radialGradient id="paint47_radial_173_608" cx="0" cy="0" r="1" gradientUnits="userSpaceOnUse" gradientTransform="translate(57.2769 58.8121) rotate(-138.282) scale(8.28198 8.5313)">
<stop offset="0.29098" stop-color="#AFA5BA" stop-opacity="0"/>
<stop offset="0.865449" stop-color="#AFA5BA" stop-opacity="0"/>
<stop offset="0.895787" stop-color="#AFA5BA" stop-opacity="0.125865"/>
<stop offset="0.909629" stop-color="#AFA5BA" stop-opacity="0.173819"/>
<stop offset="0.987134" stop-color="#AFA5BA"/>
</radialGradient>
<linearGradient id="paint48_linear_173_608" x1="50.1699" y1="21.499" x2="44.9063" y2="29.126" gradientUnits="userSpaceOnUse">
<stop stop-color="#948A94"/>
<stop offset="1" stop-color="#8D8291"/>
</linearGradient>
<radialGradient id="paint49_radial_173_608" cx="0" cy="0" r="1" gradientUnits="userSpaceOnUse" gradientTransform="translate(45.4819 21.7914) rotate(-75.0499) scale(3.44213)">
<stop offset="0.831658" stop-color="#ACA6AB" stop-opacity="0"/>
<stop offset="0.881911" stop-color="#ACA6AB" stop-opacity="0.32395"/>
<stop offset="0.924879" stop-color="#ACA6AB" stop-opacity="0.724041"/>
<stop offset="0.987826" stop-color="#ACA6AB"/>
<stop offset="1" stop-color="#ACA6AB" stop-opacity="0"/>
</radialGradient>
<radialGradient id="paint50_radial_173_608" cx="0" cy="0" r="1" gradientUnits="userSpaceOnUse" gradientTransform="translate(49.9803 26.3159) rotate(-55.4455) scale(4.79311 4.35106)">
<stop offset="0.831658" stop-color="#ACA6AB" stop-opacity="0"/>
<stop offset="0.881911" stop-color="#ACA6AB" stop-opacity="0.32395"/>
<stop offset="0.924879" stop-color="#ACA6AB" stop-opacity="0.724041"/>
<stop offset="0.987826" stop-color="#ACA6AB"/>
<stop offset="1" stop-color="#ACA6AB" stop-opacity="0"/>
</radialGradient>
<linearGradient id="paint51_linear_173_608" x1="50.1699" y1="21.499" x2="44.9063" y2="29.126" gradientUnits="userSpaceOnUse">
<stop offset="0.000399304" stop-color="#948A94" stop-opacity="0"/>
<stop offset="0.124367" stop-color="#948A94"/>
<stop offset="1" stop-color="#8D8291"/>
</linearGradient>
<linearGradient id="paint52_linear_173_608" x1="44.756" y1="28.8099" x2="44.756" y2="28.188" gradientUnits="userSpaceOnUse">
<stop stop-color="#8E8092"/>
<stop offset="0.4599" stop-color="#8E8092"/>
<stop offset="1" stop-color="#8E8092" stop-opacity="0"/>
</linearGradient>
<radialGradient id="paint53_radial_173_608" cx="0" cy="0" r="1" gradientUnits="userSpaceOnUse" gradientTransform="translate(45.3161 21.9275) rotate(-135) scale(1.84241)">
<stop offset="0.772789" stop-color="#ACA6AB"/>
<stop offset="0.923796" stop-color="#ACA6AB" stop-opacity="0.19"/>
<stop offset="1" stop-color="#ACA6AB" stop-opacity="0"/>
</radialGradient>
<radialGradient id="paint54_radial_173_608" cx="0" cy="0" r="1" gradientUnits="userSpaceOnUse" gradientTransform="translate(49.6093 21.0425) rotate(132.879) scale(1.5949 1.29585)">
<stop stop-color="#ACA6AB"/>
<stop offset="0.194301" stop-color="#ACA6AB"/>
<stop offset="0.821884" stop-color="#ACA6AB" stop-opacity="0.132695"/>
<stop offset="0.871628" stop-color="#ACA6AB" stop-opacity="0.0654085"/>
<stop offset="1" stop-color="#ACA6AB" stop-opacity="0"/>
</radialGradient>
<linearGradient id="paint55_linear_173_608" x1="54.0004" y1="25.7668" x2="53.4631" y2="25.7668" gradientUnits="userSpaceOnUse">
<stop stop-color="#ACA6AB"/>
<stop offset="0.626321" stop-color="#ACA6AB" stop-opacity="0.222234"/>
<stop offset="1" stop-color="#ACA6AB" stop-opacity="0"/>
</linearGradient>
<radialGradient id="paint56_radial_173_608" cx="0" cy="0" r="1" gradientUnits="userSpaceOnUse" gradientTransform="translate(45.6078 21.7004) rotate(-90) scale(1.87205)">
<stop stop-color="#8E8092"/>
<stop offset="0.813394" stop-color="#8E8092"/>
<stop offset="1" stop-color="#8E8092" stop-opacity="0"/>
</radialGradient>
<radialGradient id="paint57_radial_173_608" cx="0" cy="0" r="1" gradientUnits="userSpaceOnUse" gradientTransform="translate(42.5145 19.8832) rotate(41.8227) scale(0.691351 1.81901)">
<stop stop-color="#8E8092"/>
<stop offset="0.494582" stop-color="#8E8092" stop-opacity="0.932292"/>
<stop offset="0.838542" stop-color="#8E8092" stop-opacity="0.172931"/>
<stop offset="1" stop-color="#8E8092" stop-opacity="0"/>
</radialGradient>
<radialGradient id="paint58_radial_173_608" cx="0" cy="0" r="1" gradientUnits="userSpaceOnUse" gradientTransform="translate(43.6675 18.7061) rotate(66.6022) scale(0.760803 2.00174)">
<stop stop-color="#8E8092"/>
<stop offset="0.494582" stop-color="#8E8092" stop-opacity="0.932292"/>
<stop offset="0.838542" stop-color="#8E8092" stop-opacity="0.172931"/>
<stop offset="1" stop-color="#8E8092" stop-opacity="0"/>
</radialGradient>
<radialGradient id="paint59_radial_173_608" cx="0" cy="0" r="1" gradientUnits="userSpaceOnUse" gradientTransform="translate(41.3983 21.8146) rotate(88.6935) scale(0.386458 1.23839)">
<stop stop-color="#ACA6AB" stop-opacity="0.82"/>
<stop offset="0.396971" stop-color="#ACA6AB" stop-opacity="0.636364"/>
<stop offset="0.807797" stop-color="#ACA6AB" stop-opacity="0.125"/>
<stop offset="1" stop-color="#ACA6AB" stop-opacity="0"/>
</radialGradient>
<radialGradient id="paint60_radial_173_608" cx="0" cy="0" r="1" gradientUnits="userSpaceOnUse" gradientTransform="translate(40.3322 21.7195) rotate(85.0303) scale(0.517007 1.95918)">
<stop stop-color="#ACA6AB"/>
<stop offset="0.458338" stop-color="#ACA6AB" stop-opacity="0.636364"/>
<stop offset="0.807797" stop-color="#ACA6AB" stop-opacity="0.125"/>
<stop offset="1" stop-color="#ACA6AB" stop-opacity="0"/>
</radialGradient>
<radialGradient id="paint61_radial_173_608" cx="0" cy="0" r="1" gradientUnits="userSpaceOnUse" gradientTransform="translate(39.3142 21.9278) rotate(69.3011) scale(0.567316 2.14983)">
<stop stop-color="#ACA6AB"/>
<stop offset="0.458338" stop-color="#ACA6AB" stop-opacity="0.636364"/>
<stop offset="0.807797" stop-color="#ACA6AB" stop-opacity="0.125"/>
<stop offset="1" stop-color="#ACA6AB" stop-opacity="0"/>
</radialGradient>
<radialGradient id="paint62_radial_173_608" cx="0" cy="0" r="1" gradientUnits="userSpaceOnUse" gradientTransform="translate(38.5278 22.2407) rotate(51.7091) scale(0.562819 4.02894)">
<stop stop-color="#ACA6AB"/>
<stop offset="0.458338" stop-color="#ACA6AB" stop-opacity="0.636364"/>
<stop offset="0.807797" stop-color="#ACA6AB" stop-opacity="0.125"/>
<stop offset="1" stop-color="#ACA6AB" stop-opacity="0"/>
</radialGradient>
<radialGradient id="paint63_radial_173_608" cx="0" cy="0" r="1" gradientUnits="userSpaceOnUse" gradientTransform="translate(42.2106 21.0559) rotate(8.55039) scale(0.484416 1.27454)">
<stop stop-color="#8E8092"/>
<stop offset="0.494582" stop-color="#8E8092" stop-opacity="0.932292"/>
<stop offset="0.838542" stop-color="#8E8092" stop-opacity="0.172931"/>
<stop offset="1" stop-color="#8E8092" stop-opacity="0"/>
</radialGradient>
<clipPath id="clip0_173_608">
<rect width="50.8797" height="49.8414" fill="white" transform="translate(20.0977 17.9443)"/>
</clipPath>
</defs>
</svg>
