<svg width="297" height="297" viewBox="0 0 297 297" fill="none" xmlns="http://www.w3.org/2000/svg">
<path d="M46.555 102.316C60.41 91.5498 71.9039 98.9748 87.244 116.735C88.9666 118.74 91.2832 116.394 92.6048 115.25C93.9265 114.107 114.152 95.8712 115.147 95.0396C116.127 94.1634 117.315 92.5299 115.756 90.7034C111.999 86.0579 108.321 81.3498 104.722 76.581C77.8736 41.4608 178.171 17.6414 162.771 17.2701C154.93 17.0622 123.478 16.691 118.771 17.2107C99.718 19.2155 75.7946 37.0206 63.7513 45.3218C47.9954 56.1029 42.1148 62.429 41.1496 63.3051C36.6946 67.1958 40.4368 76.1801 32.3584 83.2635C23.8196 90.7331 18.4885 85.0752 13.5434 89.4114C11.0932 91.5795 4.23245 96.7176 2.27225 98.4254C0.297204 100.163 -0.0591956 103.088 1.9604 105.42C1.9604 105.42 20.7308 126.15 22.3049 127.992C23.8642 129.803 28.1113 131.378 30.7249 129.046C33.3533 126.729 40.1101 120.834 41.2387 119.795C42.397 118.814 40.4962 107.009 46.555 102.316ZM131.319 109.994C129.537 107.929 127.324 107.87 125.423 109.563L104.128 128.155C103.31 128.903 102.811 129.938 102.736 131.045C102.661 132.151 103.017 133.244 103.727 134.095L226.893 274.264C229.774 277.576 234.764 277.917 238.046 275.051L252.45 262.978C254.036 261.582 255.006 259.617 255.151 257.509C255.295 255.401 254.602 253.322 253.222 251.722L131.319 109.994ZM295.545 50.3411C294.446 43.0052 290.644 44.5347 288.669 47.6384C286.694 50.7717 277.963 64.0031 274.369 70.0025C270.805 75.9425 262.014 87.6888 245.649 76.091C228.601 64.0476 234.526 55.6425 237.496 49.9847C240.481 44.2971 249.644 28.3482 250.965 26.3732C252.287 24.3684 250.742 18.5472 245.456 20.9826C240.154 23.418 207.989 36.2039 203.534 54.5436C198.975 73.1952 207.351 89.8718 190.912 106.43L170.968 127.22L191.001 150.475L215.563 127.16C221.414 121.28 233.917 115.562 245.233 118.146C269.483 123.626 282.715 114.523 290.689 99.4649C297.847 86.0108 296.659 57.677 295.545 50.3411ZM40.6744 253.237C39.1961 254.737 38.3675 256.759 38.3675 258.865C38.3675 260.971 39.1961 262.993 40.6744 264.493L54.7967 278.303C57.8855 281.407 62.786 280.1 65.8748 276.997L138.744 205.36L116.424 179.907L40.6744 253.237Z" fill="white"/>
</svg>
