<svg width="48" height="48" viewBox="0 0 48 48" fill="none" xmlns="http://www.w3.org/2000/svg">
<path d="M16.114 20.614H25.114C25.3353 20.614 25.538 20.522 25.722 20.338C25.9073 20.1527 26 19.95 26 19.73C26 19.5087 25.9073 19.306 25.722 19.122C25.538 18.9367 25.3353 18.844 25.114 18.844H16.114C15.894 18.844 15.692 18.9367 15.508 19.122C15.3227 19.306 15.23 19.5087 15.23 19.73C15.23 19.9513 15.3227 20.1533 15.508 20.336C15.6933 20.5187 15.8953 20.6113 16.114 20.614ZM16.114 16.382H25.114C25.3353 16.382 25.538 16.29 25.722 16.106C25.9073 15.922 26 15.7193 26 15.498C26 15.2767 25.9073 15.074 25.722 14.89C25.5367 14.706 25.334 14.614 25.114 14.614H16.114C15.894 14.614 15.692 14.706 15.508 14.89C15.324 15.074 15.2313 15.2767 15.23 15.498C15.2287 15.7193 15.3213 15.922 15.508 16.106C15.6947 16.29 15.8967 16.3827 16.114 16.384M33.768 21.998V13.23H35C35.888 13.23 36.648 13.546 37.28 14.178C37.912 14.81 38.2287 15.5707 38.23 16.46V16.614H41.614C41.898 16.614 42.136 16.71 42.328 16.902C42.52 17.094 42.6153 17.332 42.614 17.616C42.6127 17.9 42.5173 18.1373 42.328 18.328C42.1387 18.5187 41.9007 18.614 41.614 18.614H38.23V18.768C38.23 19.656 37.9133 20.416 37.28 21.048C36.6467 21.68 35.8867 21.9967 35 21.998H33.768ZM24.614 28.768H16.614V25.228H15C13.3493 25.228 11.936 24.6413 10.76 23.468C9.58401 22.2947 8.99734 20.8813 9.00001 19.228V16C9.00001 14.3507 9.58668 12.9387 10.76 11.764C11.9333 10.5893 13.3467 10.0013 15 10H29C29.888 10 30.648 10.3167 31.28 10.95C31.912 11.5833 32.2287 12.3427 32.23 13.228V21.998C32.23 22.8873 31.9133 23.648 31.28 24.28C30.6467 24.912 29.8867 25.2287 29 25.23H24.614V28.768ZM15.808 37.228C15.1347 37.228 14.562 36.9927 14.09 36.522C13.6193 36.0513 13.384 35.4793 13.384 34.806V32.73C13.384 32.0567 13.6193 31.484 14.09 31.012C14.562 30.5413 15.1347 30.306 15.808 30.306H25.422C26.0953 30.306 26.6673 30.5413 27.138 31.012C27.61 31.484 27.846 32.0567 27.846 32.73V34.806C27.846 35.4793 27.61 36.0513 27.138 36.522C26.6673 36.994 26.0953 37.23 25.422 37.23L15.808 37.228Z" fill="black"/>
</svg>
