<svg width="84" height="84" viewBox="0 0 84 84" fill="none" xmlns="http://www.w3.org/2000/svg">
<path d="M19.5756 29.5501C23.2478 23.6521 30.8801 21.6376 36.9847 24.955L44.545 29.0637L33.2417 47.6512L29.5292 38.3552L18.1957 58.0937C16.3512 61.3133 12.23 62.4026 9.03573 60.5147L8.72987 60.334C5.54331 58.4506 4.50606 54.3288 6.42162 51.1615L15.9249 35.4479L15.9102 35.4374L16.6473 34.2534L18.1771 31.724C18.6266 30.9811 19.0654 30.2652 19.5756 29.5501Z" fill="url(#paint0_linear_207_3052)"/>
<path d="M19.5756 29.5501C23.2478 23.6521 30.8801 21.6376 36.9847 24.955L44.545 29.0637L33.2417 47.6512L29.5292 38.3552L18.1957 58.0937C16.3512 61.3133 12.23 62.4026 9.03573 60.5147L8.72987 60.334C5.54331 58.4506 4.50606 54.3288 6.42162 51.1615L15.9249 35.4479L15.9102 35.4374L16.6473 34.2534L18.1771 31.724C18.6266 30.9811 19.0654 30.2652 19.5756 29.5501Z" fill="url(#paint1_radial_207_3052)" fill-opacity="0.7"/>
<path d="M19.5756 29.5501C23.2478 23.6521 30.8801 21.6376 36.9847 24.955L44.545 29.0637L33.2417 47.6512L29.5292 38.3552L18.1957 58.0937C16.3512 61.3133 12.23 62.4026 9.03573 60.5147L8.72987 60.334C5.54331 58.4506 4.50606 54.3288 6.42162 51.1615L15.9249 35.4479L15.9102 35.4374L16.6473 34.2534L18.1771 31.724C18.6266 30.9811 19.0654 30.2652 19.5756 29.5501Z" fill="url(#paint2_radial_207_3052)" fill-opacity="0.5"/>
<path d="M19.5756 29.5501C23.2478 23.6521 30.8801 21.6376 36.9847 24.955L44.545 29.0637L33.2417 47.6512L29.5292 38.3552L18.1957 58.0937C16.3512 61.3133 12.23 62.4026 9.03573 60.5147L8.72987 60.334C5.54331 58.4506 4.50606 54.3288 6.42162 51.1615L15.9249 35.4479L15.9102 35.4374L16.6473 34.2534L18.1771 31.724C18.6266 30.9811 19.0654 30.2652 19.5756 29.5501Z" fill="url(#paint3_radial_207_3052)"/>
<path d="M19.5756 29.5501C23.2478 23.6521 30.8801 21.6376 36.9847 24.955L44.545 29.0637L33.2417 47.6512L29.5292 38.3552L18.1957 58.0937C16.3512 61.3133 12.23 62.4026 9.03573 60.5147L8.72987 60.334C5.54331 58.4506 4.50606 54.3288 6.42162 51.1615L15.9249 35.4479L15.9102 35.4374L16.6473 34.2534L18.1771 31.724C18.6266 30.9811 19.0654 30.2652 19.5756 29.5501Z" fill="url(#paint4_radial_207_3052)" fill-opacity="0.6"/>
<path d="M19.5756 29.5501C23.2478 23.6521 30.8801 21.6376 36.9847 24.955L44.545 29.0637L33.2417 47.6512L29.5292 38.3552L18.1957 58.0937C16.3512 61.3133 12.23 62.4026 9.03573 60.5147L8.72987 60.334C5.54331 58.4506 4.50606 54.3288 6.42162 51.1615L15.9249 35.4479L15.9102 35.4374L16.6473 34.2534L18.1771 31.724C18.6266 30.9811 19.0654 30.2652 19.5756 29.5501Z" fill="url(#paint5_radial_207_3052)"/>
<path d="M19.5756 29.5501C23.2478 23.6521 30.8801 21.6376 36.9847 24.955L44.545 29.0637L33.2417 47.6512L29.5292 38.3552L18.1957 58.0937C16.3512 61.3133 12.23 62.4026 9.03573 60.5147L8.72987 60.334C5.54331 58.4506 4.50606 54.3288 6.42162 51.1615L15.9249 35.4479L15.9102 35.4374L16.6473 34.2534L18.1771 31.724C18.6266 30.9811 19.0654 30.2652 19.5756 29.5501Z" fill="url(#paint6_radial_207_3052)"/>
<path d="M19.5756 29.5501C23.2478 23.6521 30.8801 21.6376 36.9847 24.955L44.545 29.0637L33.2417 47.6512L29.5292 38.3552L18.1957 58.0937C16.3512 61.3133 12.23 62.4026 9.03573 60.5147L8.72987 60.334C5.54331 58.4506 4.50606 54.3288 6.42162 51.1615L15.9249 35.4479L15.9102 35.4374L16.6473 34.2534L18.1771 31.724C18.6266 30.9811 19.0654 30.2652 19.5756 29.5501Z" fill="url(#paint7_radial_207_3052)" fill-opacity="0.9"/>
<path d="M19.5756 29.5501C23.2478 23.6521 30.8801 21.6376 36.9847 24.955L44.545 29.0637L33.2417 47.6512L29.5292 38.3552L18.1957 58.0937C16.3512 61.3133 12.23 62.4026 9.03573 60.5147L8.72987 60.334C5.54331 58.4506 4.50606 54.3288 6.42162 51.1615L15.9249 35.4479L15.9102 35.4374L16.6473 34.2534L18.1771 31.724C18.6266 30.9811 19.0654 30.2652 19.5756 29.5501Z" fill="url(#paint8_radial_207_3052)" fill-opacity="0.9"/>
<path d="M19.5756 29.5501C23.2478 23.6521 30.8801 21.6376 36.9847 24.955L44.545 29.0637L33.2417 47.6512L29.5292 38.3552L18.1957 58.0937C16.3512 61.3133 12.23 62.4026 9.03573 60.5147L8.72987 60.334C5.54331 58.4506 4.50606 54.3288 6.42162 51.1615L15.9249 35.4479L15.9102 35.4374L16.6473 34.2534L18.1771 31.724C18.6266 30.9811 19.0654 30.2652 19.5756 29.5501Z" fill="url(#paint9_radial_207_3052)" fill-opacity="0.8"/>
<path d="M19.5756 29.5501C23.2478 23.6521 30.8801 21.6376 36.9847 24.955L44.545 29.0637L33.2417 47.6512L29.5292 38.3552L18.1957 58.0937C16.3512 61.3133 12.23 62.4026 9.03573 60.5147L8.72987 60.334C5.54331 58.4506 4.50606 54.3288 6.42162 51.1615L15.9249 35.4479L15.9102 35.4374L16.6473 34.2534L18.1771 31.724C18.6266 30.9811 19.0654 30.2652 19.5756 29.5501Z" fill="url(#paint10_radial_207_3052)" fill-opacity="0.2"/>
<path d="M19.5756 29.5501C23.2478 23.6521 30.8801 21.6376 36.9847 24.955L44.545 29.0637L33.2417 47.6512L29.5292 38.3552L18.1957 58.0937C16.3512 61.3133 12.23 62.4026 9.03573 60.5147L8.72987 60.334C5.54331 58.4506 4.50606 54.3288 6.42162 51.1615L15.9249 35.4479L15.9102 35.4374L16.6473 34.2534L18.1771 31.724C18.6266 30.9811 19.0654 30.2652 19.5756 29.5501Z" fill="url(#paint11_linear_207_3052)"/>
<path d="M39.829 71.1807L38.0676 66.6535L41.6173 61.4414H78.4454V73.4603C78.4454 76.3598 76.0949 78.7103 73.1954 78.7103H50.8377C45.9666 78.7103 41.5951 75.7203 39.829 71.1807Z" fill="url(#paint12_linear_207_3052)"/>
<path d="M39.829 71.1807L38.0676 66.6535L41.6173 61.4414H78.4454V73.4603C78.4454 76.3598 76.0949 78.7103 73.1954 78.7103H50.8377C45.9666 78.7103 41.5951 75.7203 39.829 71.1807Z" fill="url(#paint13_linear_207_3052)"/>
<path d="M39.829 71.1807L38.0676 66.6535L41.6173 61.4414H78.4454V73.4603C78.4454 76.3598 76.0949 78.7103 73.1954 78.7103H50.8377C45.9666 78.7103 41.5951 75.7203 39.829 71.1807Z" fill="url(#paint14_radial_207_3052)"/>
<rect x="26.0731" y="60.0908" width="12.6848" height="18.3364" rx="3" fill="url(#paint15_radial_207_3052)"/>
<rect x="26.0731" y="60.0908" width="12.6848" height="18.3364" rx="3" fill="url(#paint16_radial_207_3052)"/>
<rect x="26.0731" y="60.0908" width="12.6848" height="18.3364" rx="3" fill="url(#paint17_linear_207_3052)"/>
<rect x="26.0731" y="60.0908" width="12.6848" height="18.3364" rx="3" fill="url(#paint18_radial_207_3052)" fill-opacity="0.8"/>
<rect x="26.0731" y="60.0908" width="12.6848" height="18.3364" rx="3" fill="url(#paint19_radial_207_3052)" fill-opacity="0.8"/>
<path d="M47.6175 5.94938C47.9789 5.31975 48.7828 5.1031 49.4116 5.46587L57.1915 9.95392C57.818 10.3153 58.034 11.1155 57.6746 11.7431L22.1268 73.8113C21.9975 74.037 21.8041 74.2192 21.571 74.3348L13.2345 78.469C12.8107 78.6791 12.4537 78.4706 12.4306 77.9982L11.8371 68.7015C11.8249 68.4508 11.8848 68.2018 12.0098 67.9841L47.6175 5.94938Z" fill="url(#paint20_radial_207_3052)"/>
<path d="M47.6175 5.94938C47.9789 5.31975 48.7828 5.1031 49.4116 5.46587L57.1915 9.95392C57.818 10.3153 58.034 11.1155 57.6746 11.7431L22.1268 73.8113C21.9975 74.037 21.8041 74.2192 21.571 74.3348L13.2345 78.469C12.8107 78.6791 12.4537 78.4706 12.4306 77.9982L11.8371 68.7015C11.8249 68.4508 11.8848 68.2018 12.0098 67.9841L47.6175 5.94938Z" fill="url(#paint21_linear_207_3052)" fill-opacity="0.5"/>
<path d="M47.6175 5.94938C47.9789 5.31975 48.7828 5.1031 49.4116 5.46587L57.1915 9.95392C57.818 10.3153 58.034 11.1155 57.6746 11.7431L22.1268 73.8113C21.9975 74.037 21.8041 74.2192 21.571 74.3348L13.2345 78.469C12.8107 78.6791 12.4537 78.4706 12.4306 77.9982L11.8371 68.7015C11.8249 68.4508 11.8848 68.2018 12.0098 67.9841L47.6175 5.94938Z" fill="url(#paint22_radial_207_3052)"/>
<path d="M47.6175 5.94938C47.9789 5.31975 48.7828 5.1031 49.4116 5.46587L57.1915 9.95392C57.818 10.3153 58.034 11.1155 57.6746 11.7431L22.1268 73.8113C21.9975 74.037 21.8041 74.2192 21.571 74.3348L13.2345 78.469C12.8107 78.6791 12.4537 78.4706 12.4306 77.9982L11.8371 68.7015C11.8249 68.4508 11.8848 68.2018 12.0098 67.9841L47.6175 5.94938Z" fill="url(#paint23_radial_207_3052)"/>
<path d="M47.6175 5.94938C47.9789 5.31975 48.7828 5.1031 49.4116 5.46587L57.1915 9.95392C57.818 10.3153 58.034 11.1155 57.6746 11.7431L22.1268 73.8113C21.9975 74.037 21.8041 74.2192 21.571 74.3348L13.2345 78.469C12.8107 78.6791 12.4537 78.4706 12.4306 77.9982L11.8371 68.7015C11.8249 68.4508 11.8848 68.2018 12.0098 67.9841L47.6175 5.94938Z" fill="url(#paint24_radial_207_3052)"/>
<path d="M47.6175 5.94938C47.9789 5.31975 48.7828 5.1031 49.4116 5.46587L57.1915 9.95392C57.818 10.3153 58.034 11.1155 57.6746 11.7431L22.1268 73.8113C21.9975 74.037 21.8041 74.2192 21.571 74.3348L13.2345 78.469C12.8107 78.6791 12.4537 78.4706 12.4306 77.9982L11.8371 68.7015C11.8249 68.4508 11.8848 68.2018 12.0098 67.9841L47.6175 5.94938Z" fill="url(#paint25_radial_207_3052)"/>
<path d="M47.6175 5.94938C47.9789 5.31975 48.7828 5.1031 49.4116 5.46587L57.1915 9.95392C57.818 10.3153 58.034 11.1155 57.6746 11.7431L22.1268 73.8113C21.9975 74.037 21.8041 74.2192 21.571 74.3348L13.2345 78.469C12.8107 78.6791 12.4537 78.4706 12.4306 77.9982L11.8371 68.7015C11.8249 68.4508 11.8848 68.2018 12.0098 67.9841L47.6175 5.94938Z" fill="url(#paint26_radial_207_3052)"/>
<path d="M47.6175 5.94938C47.9789 5.31975 48.7828 5.1031 49.4116 5.46587L57.1915 9.95392C57.818 10.3153 58.034 11.1155 57.6746 11.7431L22.1268 73.8113C21.9975 74.037 21.8041 74.2192 21.571 74.3348L13.2345 78.469C12.8107 78.6791 12.4537 78.4706 12.4306 77.9982L11.8371 68.7015C11.8249 68.4508 11.8848 68.2018 12.0098 67.9841L47.6175 5.94938Z" fill="url(#paint27_radial_207_3052)"/>
<path d="M47.6175 5.94938C47.9789 5.31975 48.7828 5.1031 49.4116 5.46587L57.1915 9.95392C57.818 10.3153 58.034 11.1155 57.6746 11.7431L22.1268 73.8113C21.9975 74.037 21.8041 74.2192 21.571 74.3348L13.2345 78.469C12.8107 78.6791 12.4537 78.4706 12.4306 77.9982L11.8371 68.7015C11.8249 68.4508 11.8848 68.2018 12.0098 67.9841L47.6175 5.94938Z" fill="url(#paint28_radial_207_3052)" fill-opacity="0.2"/>
<path d="M47.6175 5.94938C47.9789 5.31975 48.7828 5.1031 49.4116 5.46587L57.1915 9.95392C57.818 10.3153 58.034 11.1155 57.6746 11.7431L22.1268 73.8113C21.9975 74.037 21.8041 74.2192 21.571 74.3348L13.2345 78.469C12.8107 78.6791 12.4537 78.4706 12.4306 77.9982L11.8371 68.7015C11.8249 68.4508 11.8848 68.2018 12.0098 67.9841L47.6175 5.94938Z" fill="url(#paint29_radial_207_3052)" fill-opacity="0.7"/>
<path d="M47.6175 5.94938C47.9789 5.31975 48.7828 5.1031 49.4116 5.46587L57.1915 9.95392C57.818 10.3153 58.034 11.1155 57.6746 11.7431L22.1268 73.8113C21.9975 74.037 21.8041 74.2192 21.571 74.3348L13.2345 78.469C12.8107 78.6791 12.4537 78.4706 12.4306 77.9982L11.8371 68.7015C11.8249 68.4508 11.8848 68.2018 12.0098 67.9841L47.6175 5.94938Z" fill="url(#paint30_radial_207_3052)"/>
<path d="M26.0743 57.8303C22.7911 60.1256 21.7346 64.7434 23.8764 68.1288C26.0707 71.5974 30.8946 72.615 34.3897 70.4632L43.6543 64.7594C44.7944 64.0576 46.2886 64.4269 46.9703 65.5792C50.5391 71.6116 57.2916 75.0161 64.2638 74.2984L74.3227 73.263C76.6653 73.0218 78.4461 71.0483 78.4461 68.6934V49.9762C78.4461 47.0057 76.6276 44.3361 73.886 43.1927C68.04 40.7547 57.3961 36.1337 46.8613 30.6309L34.4163 52.3665L26.0743 57.8303Z" fill="url(#paint31_linear_207_3052)"/>
<path d="M26.0743 57.8303C22.7911 60.1256 21.7346 64.7434 23.8764 68.1288C26.0707 71.5974 30.8946 72.615 34.3897 70.4632L43.6543 64.7594C44.7944 64.0576 46.2886 64.4269 46.9703 65.5792C50.5391 71.6116 57.2916 75.0161 64.2638 74.2984L74.3227 73.263C76.6653 73.0218 78.4461 71.0483 78.4461 68.6934V49.9762C78.4461 47.0057 76.6276 44.3361 73.886 43.1927C68.04 40.7547 57.3961 36.1337 46.8613 30.6309L34.4163 52.3665L26.0743 57.8303Z" fill="url(#paint32_radial_207_3052)"/>
<path d="M26.0743 57.8303C22.7911 60.1256 21.7346 64.7434 23.8764 68.1288C26.0707 71.5974 30.8946 72.615 34.3897 70.4632L43.6543 64.7594C44.7944 64.0576 46.2886 64.4269 46.9703 65.5792C50.5391 71.6116 57.2916 75.0161 64.2638 74.2984L74.3227 73.263C76.6653 73.0218 78.4461 71.0483 78.4461 68.6934V49.9762C78.4461 47.0057 76.6276 44.3361 73.886 43.1927C68.04 40.7547 57.3961 36.1337 46.8613 30.6309L34.4163 52.3665L26.0743 57.8303Z" fill="url(#paint33_linear_207_3052)"/>
<path d="M26.0743 57.8303C22.7911 60.1256 21.7346 64.7434 23.8764 68.1288C26.0707 71.5974 30.8946 72.615 34.3897 70.4632L43.6543 64.7594C44.7944 64.0576 46.2886 64.4269 46.9703 65.5792C50.5391 71.6116 57.2916 75.0161 64.2638 74.2984L74.3227 73.263C76.6653 73.0218 78.4461 71.0483 78.4461 68.6934V49.9762C78.4461 47.0057 76.6276 44.3361 73.886 43.1927C68.04 40.7547 57.3961 36.1337 46.8613 30.6309L34.4163 52.3665L26.0743 57.8303Z" fill="url(#paint34_linear_207_3052)"/>
<path d="M26.0743 57.8303C22.7911 60.1256 21.7346 64.7434 23.8764 68.1288C26.0707 71.5974 30.8946 72.615 34.3897 70.4632L43.6543 64.7594C44.7944 64.0576 46.2886 64.4269 46.9703 65.5792C50.5391 71.6116 57.2916 75.0161 64.2638 74.2984L74.3227 73.263C76.6653 73.0218 78.4461 71.0483 78.4461 68.6934V49.9762C78.4461 47.0057 76.6276 44.3361 73.886 43.1927C68.04 40.7547 57.3961 36.1337 46.8613 30.6309L34.4163 52.3665L26.0743 57.8303Z" fill="url(#paint35_linear_207_3052)"/>
<path d="M26.0743 57.8303C22.7911 60.1256 21.7346 64.7434 23.8764 68.1288C26.0707 71.5974 30.8946 72.615 34.3897 70.4632L43.6543 64.7594C44.7944 64.0576 46.2886 64.4269 46.9703 65.5792C50.5391 71.6116 57.2916 75.0161 64.2638 74.2984L74.3227 73.263C76.6653 73.0218 78.4461 71.0483 78.4461 68.6934V49.9762C78.4461 47.0057 76.6276 44.3361 73.886 43.1927C68.04 40.7547 57.3961 36.1337 46.8613 30.6309L34.4163 52.3665L26.0743 57.8303Z" fill="url(#paint36_radial_207_3052)" fill-opacity="0.7"/>
<path d="M26.0743 57.8303C22.7911 60.1256 21.7346 64.7434 23.8764 68.1288C26.0707 71.5974 30.8946 72.615 34.3897 70.4632L43.6543 64.7594C44.7944 64.0576 46.2886 64.4269 46.9703 65.5792C50.5391 71.6116 57.2916 75.0161 64.2638 74.2984L74.3227 73.263C76.6653 73.0218 78.4461 71.0483 78.4461 68.6934V49.9762C78.4461 47.0057 76.6276 44.3361 73.886 43.1927C68.04 40.7547 57.3961 36.1337 46.8613 30.6309L34.4163 52.3665L26.0743 57.8303Z" fill="url(#paint37_radial_207_3052)" fill-opacity="0.8"/>
<path d="M26.0743 57.8303C22.7911 60.1256 21.7346 64.7434 23.8764 68.1288C26.0707 71.5974 30.8946 72.615 34.3897 70.4632L43.6543 64.7594C44.7944 64.0576 46.2886 64.4269 46.9703 65.5792C50.5391 71.6116 57.2916 75.0161 64.2638 74.2984L74.3227 73.263C76.6653 73.0218 78.4461 71.0483 78.4461 68.6934V49.9762C78.4461 47.0057 76.6276 44.3361 73.886 43.1927C68.04 40.7547 57.3961 36.1337 46.8613 30.6309L34.4163 52.3665L26.0743 57.8303Z" fill="url(#paint38_radial_207_3052)" fill-opacity="0.8"/>
<path d="M26.0743 57.8303C22.7911 60.1256 21.7346 64.7434 23.8764 68.1288C26.0707 71.5974 30.8946 72.615 34.3897 70.4632L43.6543 64.7594C44.7944 64.0576 46.2886 64.4269 46.9703 65.5792C50.5391 71.6116 57.2916 75.0161 64.2638 74.2984L74.3227 73.263C76.6653 73.0218 78.4461 71.0483 78.4461 68.6934V49.9762C78.4461 47.0057 76.6276 44.3361 73.886 43.1927C68.04 40.7547 57.3961 36.1337 46.8613 30.6309L34.4163 52.3665L26.0743 57.8303Z" fill="url(#paint39_radial_207_3052)" fill-opacity="0.8"/>
<path d="M26.0743 57.8303C22.7911 60.1256 21.7346 64.7434 23.8764 68.1288C26.0707 71.5974 30.8946 72.615 34.3897 70.4632L43.6543 64.7594C44.7944 64.0576 46.2886 64.4269 46.9703 65.5792C50.5391 71.6116 57.2916 75.0161 64.2638 74.2984L74.3227 73.263C76.6653 73.0218 78.4461 71.0483 78.4461 68.6934V49.9762C78.4461 47.0057 76.6276 44.3361 73.886 43.1927C68.04 40.7547 57.3961 36.1337 46.8613 30.6309L34.4163 52.3665L26.0743 57.8303Z" fill="url(#paint40_radial_207_3052)"/>
<path d="M26.0743 57.8303C22.7911 60.1256 21.7346 64.7434 23.8764 68.1288C26.0707 71.5974 30.8946 72.615 34.3897 70.4632L43.6543 64.7594C44.7944 64.0576 46.2886 64.4269 46.9703 65.5792C50.5391 71.6116 57.2916 75.0161 64.2638 74.2984L74.3227 73.263C76.6653 73.0218 78.4461 71.0483 78.4461 68.6934V49.9762C78.4461 47.0057 76.6276 44.3361 73.886 43.1927C68.04 40.7547 57.3961 36.1337 46.8613 30.6309L34.4163 52.3665L26.0743 57.8303Z" fill="url(#paint41_radial_207_3052)" fill-opacity="0.8"/>
<path d="M26.0743 57.8303C22.7911 60.1256 21.7346 64.7434 23.8764 68.1288C26.0707 71.5974 30.8946 72.615 34.3897 70.4632L43.6543 64.7594C44.7944 64.0576 46.2886 64.4269 46.9703 65.5792C50.5391 71.6116 57.2916 75.0161 64.2638 74.2984L74.3227 73.263C76.6653 73.0218 78.4461 71.0483 78.4461 68.6934V49.9762C78.4461 47.0057 76.6276 44.3361 73.886 43.1927C68.04 40.7547 57.3961 36.1337 46.8613 30.6309L34.4163 52.3665L26.0743 57.8303Z" fill="url(#paint42_radial_207_3052)" fill-opacity="0.3"/>
<path d="M26.0743 57.8303C22.7911 60.1256 21.7346 64.7434 23.8764 68.1288C26.0707 71.5974 30.8946 72.615 34.3897 70.4632L43.6543 64.7594C44.7944 64.0576 46.2886 64.4269 46.9703 65.5792C50.5391 71.6116 57.2916 75.0161 64.2638 74.2984L74.3227 73.263C76.6653 73.0218 78.4461 71.0483 78.4461 68.6934V49.9762C78.4461 47.0057 76.6276 44.3361 73.886 43.1927C68.04 40.7547 57.3961 36.1337 46.8613 30.6309L34.4163 52.3665L26.0743 57.8303Z" fill="url(#paint43_radial_207_3052)"/>
<path d="M26.0743 57.8303C22.7911 60.1256 21.7346 64.7434 23.8764 68.1288C26.0707 71.5974 30.8946 72.615 34.3897 70.4632L43.6543 64.7594C44.7944 64.0576 46.2886 64.4269 46.9703 65.5792C50.5391 71.6116 57.2916 75.0161 64.2638 74.2984L74.3227 73.263C76.6653 73.0218 78.4461 71.0483 78.4461 68.6934V49.9762C78.4461 47.0057 76.6276 44.3361 73.886 43.1927C68.04 40.7547 57.3961 36.1337 46.8613 30.6309L34.4163 52.3665L26.0743 57.8303Z" fill="url(#paint44_radial_207_3052)"/>
<path d="M26.0743 57.8303C22.7911 60.1256 21.7346 64.7434 23.8764 68.1288C26.0707 71.5974 30.8946 72.615 34.3897 70.4632L43.6543 64.7594C44.7944 64.0576 46.2886 64.4269 46.9703 65.5792C50.5391 71.6116 57.2916 75.0161 64.2638 74.2984L74.3227 73.263C76.6653 73.0218 78.4461 71.0483 78.4461 68.6934V49.9762C78.4461 47.0057 76.6276 44.3361 73.886 43.1927C68.04 40.7547 57.3961 36.1337 46.8613 30.6309L34.4163 52.3665L26.0743 57.8303Z" fill="url(#paint45_radial_207_3052)"/>
<path d="M26.0743 57.8303C22.7911 60.1256 21.7346 64.7434 23.8764 68.1288C26.0707 71.5974 30.8946 72.615 34.3897 70.4632L43.6543 64.7594C44.7944 64.0576 46.2886 64.4269 46.9703 65.5792C50.5391 71.6116 57.2916 75.0161 64.2638 74.2984L74.3227 73.263C76.6653 73.0218 78.4461 71.0483 78.4461 68.6934V49.9762C78.4461 47.0057 76.6276 44.3361 73.886 43.1927C68.04 40.7547 57.3961 36.1337 46.8613 30.6309L34.4163 52.3665L26.0743 57.8303Z" fill="url(#paint46_radial_207_3052)" fill-opacity="0.4"/>
<path d="M26.0743 57.8303C22.7911 60.1256 21.7346 64.7434 23.8764 68.1288C26.0707 71.5974 30.8946 72.615 34.3897 70.4632L43.6543 64.7594C44.7944 64.0576 46.2886 64.4269 46.9703 65.5792C50.5391 71.6116 57.2916 75.0161 64.2638 74.2984L74.3227 73.263C76.6653 73.0218 78.4461 71.0483 78.4461 68.6934V49.9762C78.4461 47.0057 76.6276 44.3361 73.886 43.1927C68.04 40.7547 57.3961 36.1337 46.8613 30.6309L34.4163 52.3665L26.0743 57.8303Z" fill="url(#paint47_radial_207_3052)" fill-opacity="0.1"/>
<path d="M26.0743 57.8303C22.7911 60.1256 21.7346 64.7434 23.8764 68.1288C26.0707 71.5974 30.8946 72.615 34.3897 70.4632L43.6543 64.7594C44.7944 64.0576 46.2886 64.4269 46.9703 65.5792C50.5391 71.6116 57.2916 75.0161 64.2638 74.2984L74.3227 73.263C76.6653 73.0218 78.4461 71.0483 78.4461 68.6934V49.9762C78.4461 47.0057 76.6276 44.3361 73.886 43.1927C68.04 40.7547 57.3961 36.1337 46.8613 30.6309L34.4163 52.3665L26.0743 57.8303Z" fill="url(#paint48_radial_207_3052)" fill-opacity="0.1"/>
<path d="M26.0743 57.8303C22.7911 60.1256 21.7346 64.7434 23.8764 68.1288C26.0707 71.5974 30.8946 72.615 34.3897 70.4632L43.6543 64.7594C44.7944 64.0576 46.2886 64.4269 46.9703 65.5792C50.5391 71.6116 57.2916 75.0161 64.2638 74.2984L74.3227 73.263C76.6653 73.0218 78.4461 71.0483 78.4461 68.6934V49.9762C78.4461 47.0057 76.6276 44.3361 73.886 43.1927C68.04 40.7547 57.3961 36.1337 46.8613 30.6309L34.4163 52.3665L26.0743 57.8303Z" fill="url(#paint49_radial_207_3052)"/>
<path d="M26.0743 57.8303C22.7911 60.1256 21.7346 64.7434 23.8764 68.1288C26.0707 71.5974 30.8946 72.615 34.3897 70.4632L43.6543 64.7594C44.7944 64.0576 46.2886 64.4269 46.9703 65.5792C50.5391 71.6116 57.2916 75.0161 64.2638 74.2984L74.3227 73.263C76.6653 73.0218 78.4461 71.0483 78.4461 68.6934V49.9762C78.4461 47.0057 76.6276 44.3361 73.886 43.1927C68.04 40.7547 57.3961 36.1337 46.8613 30.6309L34.4163 52.3665L26.0743 57.8303Z" fill="url(#paint50_linear_207_3052)" fill-opacity="0.2"/>
<path d="M26.0743 57.8303C22.7911 60.1256 21.7346 64.7434 23.8764 68.1288C26.0707 71.5974 30.8946 72.615 34.3897 70.4632L43.6543 64.7594C44.7944 64.0576 46.2886 64.4269 46.9703 65.5792C50.5391 71.6116 57.2916 75.0161 64.2638 74.2984L74.3227 73.263C76.6653 73.0218 78.4461 71.0483 78.4461 68.6934V49.9762C78.4461 47.0057 76.6276 44.3361 73.886 43.1927C68.04 40.7547 57.3961 36.1337 46.8613 30.6309L34.4163 52.3665L26.0743 57.8303Z" fill="url(#paint51_radial_207_3052)" fill-opacity="0.4"/>
<path d="M26.0743 57.8303C22.7911 60.1256 21.7346 64.7434 23.8764 68.1288C26.0707 71.5974 30.8946 72.615 34.3897 70.4632L43.6543 64.7594C44.7944 64.0576 46.2886 64.4269 46.9703 65.5792C50.5391 71.6116 57.2916 75.0161 64.2638 74.2984L74.3227 73.263C76.6653 73.0218 78.4461 71.0483 78.4461 68.6934V49.9762C78.4461 47.0057 76.6276 44.3361 73.886 43.1927C68.04 40.7547 57.3961 36.1337 46.8613 30.6309L34.4163 52.3665L26.0743 57.8303Z" fill="url(#paint52_radial_207_3052)" fill-opacity="0.5"/>
<path d="M26.0743 57.8303C22.7911 60.1256 21.7346 64.7434 23.8764 68.1288C26.0707 71.5974 30.8946 72.615 34.3897 70.4632L43.6543 64.7594C44.7944 64.0576 46.2886 64.4269 46.9703 65.5792C50.5391 71.6116 57.2916 75.0161 64.2638 74.2984L74.3227 73.263C76.6653 73.0218 78.4461 71.0483 78.4461 68.6934V49.9762C78.4461 47.0057 76.6276 44.3361 73.886 43.1927C68.04 40.7547 57.3961 36.1337 46.8613 30.6309L34.4163 52.3665L26.0743 57.8303Z" fill="url(#paint53_radial_207_3052)" fill-opacity="0.7"/>
<path d="M26.0743 57.8303C22.7911 60.1256 21.7346 64.7434 23.8764 68.1288C26.0707 71.5974 30.8946 72.615 34.3897 70.4632L43.6543 64.7594C44.7944 64.0576 46.2886 64.4269 46.9703 65.5792C50.5391 71.6116 57.2916 75.0161 64.2638 74.2984L74.3227 73.263C76.6653 73.0218 78.4461 71.0483 78.4461 68.6934V49.9762C78.4461 47.0057 76.6276 44.3361 73.886 43.1927C68.04 40.7547 57.3961 36.1337 46.8613 30.6309L34.4163 52.3665L26.0743 57.8303Z" fill="url(#paint54_radial_207_3052)"/>
<path d="M26.0743 57.8303C22.7911 60.1256 21.7346 64.7434 23.8764 68.1288C26.0707 71.5974 30.8946 72.615 34.3897 70.4632L43.6543 64.7594C44.7944 64.0576 46.2886 64.4269 46.9703 65.5792C50.5391 71.6116 57.2916 75.0161 64.2638 74.2984L74.3227 73.263C76.6653 73.0218 78.4461 71.0483 78.4461 68.6934V49.9762C78.4461 47.0057 76.6276 44.3361 73.886 43.1927C68.04 40.7547 57.3961 36.1337 46.8613 30.6309L34.4163 52.3665L26.0743 57.8303Z" fill="url(#paint55_radial_207_3052)" fill-opacity="0.5"/>
<path d="M44.4286 34.8789L34.4352 52.3327L39.0483 49.4357C41.7821 47.7189 45.032 47.0163 48.2309 47.4505L54.6144 48.317L44.4286 34.8789Z" fill="url(#paint56_radial_207_3052)"/>
<path d="M44.4286 34.8789L34.4352 52.3327L39.0483 49.4357C41.7821 47.7189 45.032 47.0163 48.2309 47.4505L54.6144 48.317L44.4286 34.8789Z" fill="url(#paint57_radial_207_3052)" fill-opacity="0.6"/>
<path d="M44.4286 34.8789L34.4352 52.3327L39.0483 49.4357C41.7821 47.7189 45.032 47.0163 48.2309 47.4505L54.6144 48.317L44.4286 34.8789Z" fill="url(#paint58_radial_207_3052)" fill-opacity="0.4"/>
<path d="M44.4286 34.8789L34.4352 52.3327L39.0483 49.4357C41.7821 47.7189 45.032 47.0163 48.2309 47.4505L54.6144 48.317L44.4286 34.8789Z" fill="url(#paint59_radial_207_3052)" fill-opacity="0.4"/>
<path d="M42 15.7366L44.8158 10.8311L54.8526 16.6711L52.0416 21.5793L42 15.7366Z" fill="url(#paint60_linear_207_3052)"/>
<path d="M42 15.7366L44.8158 10.8311L54.8526 16.6711L52.0416 21.5793L42 15.7366Z" fill="url(#paint61_linear_207_3052)"/>
<path d="M22.0138 73.9779C21.8946 74.1273 21.7437 74.2496 21.571 74.3352L13.2344 78.4693C12.8108 78.6795 12.4537 78.471 12.4306 77.9985L11.8371 68.7019C11.8298 68.5515 11.8484 68.4016 11.8915 68.2588L22.0138 73.9779Z" fill="url(#paint62_linear_207_3052)"/>
<path d="M22.0138 73.9779C21.8946 74.1273 21.7437 74.2496 21.571 74.3352L13.2344 78.4693C12.8108 78.6795 12.4537 78.471 12.4306 77.9985L11.8371 68.7019C11.8298 68.5515 11.8484 68.4016 11.8915 68.2588L22.0138 73.9779Z" fill="url(#paint63_linear_207_3052)"/>
<path d="M22.0138 73.9779C21.8946 74.1273 21.7437 74.2496 21.571 74.3352L13.2344 78.4693C12.8108 78.6795 12.4537 78.471 12.4306 77.9985L11.8371 68.7019C11.8298 68.5515 11.8484 68.4016 11.8915 68.2588L22.0138 73.9779Z" fill="url(#paint64_linear_207_3052)"/>
<path d="M15.3799 77.405L13.2349 78.4687C12.8113 78.6788 12.4542 78.4703 12.4311 77.9979L12.2791 75.6172L15.3799 77.405Z" fill="url(#paint65_linear_207_3052)"/>
<path d="M34.4358 52.3326L39.049 49.4356C41.7827 47.7188 45.0326 47.0162 48.2315 47.4504L52.0857 47.9736L46.9964 65.6234L46.9703 65.5794C46.2886 64.4271 44.7944 64.0577 43.6543 64.7596L34.3897 70.4634C30.8946 72.6152 26.0707 71.5976 23.8764 68.129C21.7346 64.7436 22.7911 60.1258 26.0743 57.8305L34.4163 52.3667L34.4358 52.3326Z" fill="url(#paint66_linear_207_3052)"/>
<path d="M34.4358 52.3326L39.049 49.4356C41.7827 47.7188 45.0326 47.0162 48.2315 47.4504L52.0857 47.9736L46.9964 65.6234L46.9703 65.5794C46.2886 64.4271 44.7944 64.0577 43.6543 64.7596L34.3897 70.4634C30.8946 72.6152 26.0707 71.5976 23.8764 68.129C21.7346 64.7436 22.7911 60.1258 26.0743 57.8305L34.4163 52.3667L34.4358 52.3326Z" fill="url(#paint67_radial_207_3052)"/>
<path d="M34.4358 52.3326L39.049 49.4356C41.7827 47.7188 45.0326 47.0162 48.2315 47.4504L52.0857 47.9736L46.9964 65.6234L46.9703 65.5794C46.2886 64.4271 44.7944 64.0577 43.6543 64.7596L34.3897 70.4634C30.8946 72.6152 26.0707 71.5976 23.8764 68.129C21.7346 64.7436 22.7911 60.1258 26.0743 57.8305L34.4163 52.3667L34.4358 52.3326Z" fill="url(#paint68_radial_207_3052)"/>
<path d="M34.4358 52.3326L39.049 49.4356C41.7827 47.7188 45.0326 47.0162 48.2315 47.4504L52.0857 47.9736L46.9964 65.6234L46.9703 65.5794C46.2886 64.4271 44.7944 64.0577 43.6543 64.7596L34.3897 70.4634C30.8946 72.6152 26.0707 71.5976 23.8764 68.129C21.7346 64.7436 22.7911 60.1258 26.0743 57.8305L34.4163 52.3667L34.4358 52.3326Z" fill="url(#paint69_radial_207_3052)" fill-opacity="0.8"/>
<defs>
<linearGradient id="paint0_linear_207_3052" x1="32.1013" y1="25.8644" x2="13.9121" y2="57.1269" gradientUnits="userSpaceOnUse">
<stop stop-color="#ECB8A0"/>
<stop offset="1" stop-color="#DE9F93"/>
</linearGradient>
<radialGradient id="paint1_radial_207_3052" cx="0" cy="0" r="1" gradientUnits="userSpaceOnUse" gradientTransform="translate(26.2812 23.4326) rotate(60.9342) scale(11.766 20.9463)">
<stop stop-color="#FFD9C5"/>
<stop offset="0.797218" stop-color="#FFD9C5" stop-opacity="0.111445"/>
<stop offset="1" stop-color="#FFD9C5" stop-opacity="0"/>
</radialGradient>
<radialGradient id="paint2_radial_207_3052" cx="0" cy="0" r="1" gradientUnits="userSpaceOnUse" gradientTransform="translate(18.342 38.8607) rotate(30.9073) scale(6.39163 34.1047)">
<stop offset="0.0620676" stop-color="#FFCCB2"/>
<stop offset="0.42422" stop-color="#FFCCB2" stop-opacity="0.803966"/>
<stop offset="0.779474" stop-color="#FFCCB2" stop-opacity="0.155166"/>
<stop offset="0.908693" stop-color="#FFCCB2" stop-opacity="0.0541375"/>
<stop offset="1" stop-color="#FFCCB2" stop-opacity="0"/>
</radialGradient>
<radialGradient id="paint3_radial_207_3052" cx="0" cy="0" r="1" gradientUnits="userSpaceOnUse" gradientTransform="translate(34.34 47.7757) rotate(168.229) scale(29.5521 31.3038)">
<stop stop-color="#FFD9C5" stop-opacity="0"/>
<stop offset="0.886171" stop-color="#FFD9C5" stop-opacity="0"/>
<stop offset="0.920504" stop-color="#FFD9C5" stop-opacity="0.174398"/>
<stop offset="0.988845" stop-color="#FFD9C5"/>
</radialGradient>
<radialGradient id="paint4_radial_207_3052" cx="0" cy="0" r="1" gradientUnits="userSpaceOnUse" gradientTransform="translate(7.5377 62.045) rotate(-62.9728) scale(10.9288 27.0771)">
<stop stop-color="#AF6C6A"/>
<stop offset="0.738803" stop-color="#AF6C6A" stop-opacity="0.158912"/>
<stop offset="1" stop-color="#AF6C6A" stop-opacity="0"/>
</radialGradient>
<radialGradient id="paint5_radial_207_3052" cx="0" cy="0" r="1" gradientUnits="userSpaceOnUse" gradientTransform="translate(20.9571 44.8696) rotate(-148.134) scale(4.71638 18.4861)">
<stop offset="0.212492" stop-color="#D67965" stop-opacity="0.28"/>
<stop offset="0.755371" stop-color="#D67965" stop-opacity="0.0693487"/>
<stop offset="1" stop-color="#D67965" stop-opacity="0"/>
</radialGradient>
<radialGradient id="paint6_radial_207_3052" cx="0" cy="0" r="1" gradientUnits="userSpaceOnUse" gradientTransform="translate(37.8991 26.3191) rotate(151.144) scale(6.3601 6.28085)">
<stop offset="0.237633" stop-color="#D89F83"/>
<stop offset="1" stop-color="#D89F83" stop-opacity="0"/>
</radialGradient>
<radialGradient id="paint7_radial_207_3052" cx="0" cy="0" r="1" gradientUnits="userSpaceOnUse" gradientTransform="translate(27.8853 45.1628) rotate(40.3585) scale(4.52165 15.84)">
<stop offset="0.654649" stop-color="#BF6E62"/>
<stop offset="0.904681" stop-color="#BF6E62" stop-opacity="0.116105"/>
<stop offset="1" stop-color="#BF6E62" stop-opacity="0"/>
</radialGradient>
<radialGradient id="paint8_radial_207_3052" cx="0" cy="0" r="1" gradientUnits="userSpaceOnUse" gradientTransform="translate(30.253 40.1813) rotate(47.0037) scale(4.52738 12.4006)">
<stop offset="0.481598" stop-color="#BF6E62"/>
<stop offset="0.840948" stop-color="#BF6E62" stop-opacity="0.214501"/>
<stop offset="0.921574" stop-color="#BF6E62" stop-opacity="0.0780084"/>
<stop offset="1" stop-color="#BF6E62" stop-opacity="0"/>
</radialGradient>
<radialGradient id="paint9_radial_207_3052" cx="0" cy="0" r="1" gradientUnits="userSpaceOnUse" gradientTransform="translate(19.0728 58.7668) rotate(31.4009) scale(8.11366 41.5707)">
<stop offset="0.248011" stop-color="#BF6E62"/>
<stop offset="0.531638" stop-color="#B05F54" stop-opacity="0.63496"/>
<stop offset="0.898173" stop-color="#BF6E62" stop-opacity="0.0723506"/>
<stop offset="1" stop-color="#BF6E62" stop-opacity="0"/>
</radialGradient>
<radialGradient id="paint10_radial_207_3052" cx="0" cy="0" r="1" gradientUnits="userSpaceOnUse" gradientTransform="translate(28.9356 41.3043) rotate(26.4175) scale(4.91848 9.49099)">
<stop offset="0.543114" stop-color="#6D3539"/>
<stop offset="0.840948" stop-color="#6D3539" stop-opacity="0.214501"/>
<stop offset="0.921574" stop-color="#6D3539" stop-opacity="0.0780084"/>
<stop offset="1" stop-color="#6D3539" stop-opacity="0"/>
</radialGradient>
<linearGradient id="paint11_linear_207_3052" x1="10.043" y1="42.7678" x2="13.0618" y2="44.6255" gradientUnits="userSpaceOnUse">
<stop stop-color="#FFD9C5"/>
<stop offset="0.74475" stop-color="#FFD9C5" stop-opacity="0.143518"/>
<stop offset="1" stop-color="#FFD9C5" stop-opacity="0"/>
</linearGradient>
<linearGradient id="paint12_linear_207_3052" x1="43.3896" y1="63.7566" x2="60.621" y2="79.8259" gradientUnits="userSpaceOnUse">
<stop stop-color="#D48F8B"/>
<stop offset="1" stop-color="#B27A98"/>
</linearGradient>
<linearGradient id="paint13_linear_207_3052" x1="78.9179" y1="78.7103" x2="76.1047" y2="78.7103" gradientUnits="userSpaceOnUse">
<stop stop-color="#F3CCB9"/>
<stop offset="1" stop-color="#F3CCB9" stop-opacity="0"/>
</linearGradient>
<radialGradient id="paint14_radial_207_3052" cx="0" cy="0" r="1" gradientUnits="userSpaceOnUse" gradientTransform="translate(38.0676 69.0155) rotate(-25.5703) scale(3.22289 7.53572)">
<stop stop-color="#AF6C6A"/>
<stop offset="1" stop-color="#AF6C6A" stop-opacity="0"/>
</radialGradient>
<radialGradient id="paint15_radial_207_3052" cx="0" cy="0" r="1" gradientUnits="userSpaceOnUse" gradientTransform="translate(36.8168 68.1302) rotate(121.322) scale(12.0537 14.5237)">
<stop stop-color="#9F5A57"/>
<stop offset="1" stop-color="#B47079"/>
</radialGradient>
<radialGradient id="paint16_radial_207_3052" cx="0" cy="0" r="1" gradientUnits="userSpaceOnUse" gradientTransform="translate(32.4155 67.0673) rotate(90) scale(11.8054 10.3809)">
<stop offset="0.775862" stop-color="#B46D8C" stop-opacity="0"/>
<stop offset="0.909527" stop-color="#B46D8C"/>
</radialGradient>
<linearGradient id="paint17_linear_207_3052" x1="24.4995" y1="71.5637" x2="29.216" y2="71.5637" gradientUnits="userSpaceOnUse">
<stop offset="0.277046" stop-color="#D69983"/>
<stop offset="0.865174" stop-color="#D69983" stop-opacity="0.143762"/>
<stop offset="1" stop-color="#D69983" stop-opacity="0"/>
</linearGradient>
<radialGradient id="paint18_radial_207_3052" cx="0" cy="0" r="1" gradientUnits="userSpaceOnUse" gradientTransform="translate(37.57 70.0644) rotate(135.406) scale(5.73631 11.6295)">
<stop stop-color="#EC5047"/>
<stop offset="0.752058" stop-color="#EC5047" stop-opacity="0.0700207"/>
<stop offset="1" stop-color="#EC5047" stop-opacity="0"/>
</radialGradient>
<radialGradient id="paint19_radial_207_3052" cx="0" cy="0" r="1" gradientUnits="userSpaceOnUse" gradientTransform="translate(40.1846 67.9926) rotate(131.405) scale(9.51893 12.6827)">
<stop offset="0.173856" stop-color="#473046" stop-opacity="0.85"/>
<stop offset="0.502287" stop-color="#473046" stop-opacity="0.559067"/>
<stop offset="0.877422" stop-color="#473046" stop-opacity="0.0556958"/>
<stop offset="1" stop-color="#473046" stop-opacity="0"/>
</radialGradient>
<radialGradient id="paint20_radial_207_3052" cx="0" cy="0" r="1" gradientUnits="userSpaceOnUse" gradientTransform="translate(20.4621 68.3134) rotate(-61.9872) scale(61.5829 25.9794)">
<stop stop-color="#FF762E"/>
<stop offset="1" stop-color="#EC5047"/>
</radialGradient>
<linearGradient id="paint21_linear_207_3052" x1="16.3833" y1="72.1215" x2="41.3735" y2="33.7545" gradientUnits="userSpaceOnUse">
<stop stop-color="#F9B32F"/>
<stop offset="1" stop-color="#F9B32F" stop-opacity="0"/>
</linearGradient>
<radialGradient id="paint22_radial_207_3052" cx="0" cy="0" r="1" gradientUnits="userSpaceOnUse" gradientTransform="translate(39.0443 46.9209) rotate(-138.121) scale(7.49192 47.0891)">
<stop stop-color="#FF762E"/>
<stop offset="1" stop-color="#FF762E" stop-opacity="0"/>
</radialGradient>
<radialGradient id="paint23_radial_207_3052" cx="0" cy="0" r="1" gradientUnits="userSpaceOnUse" gradientTransform="translate(25.43 69.326) rotate(178.221) scale(6.74053 8.32326)">
<stop offset="0.343922" stop-color="#FF762E"/>
<stop offset="1" stop-color="#FF762E" stop-opacity="0"/>
</radialGradient>
<radialGradient id="paint24_radial_207_3052" cx="0" cy="0" r="1" gradientUnits="userSpaceOnUse" gradientTransform="translate(33.1262 56.8738) rotate(-65.3915) scale(13.1214 9.04984)">
<stop stop-color="#B94D0B"/>
<stop offset="0.708981" stop-color="#B94D0B" stop-opacity="0.177258"/>
<stop offset="1" stop-color="#B94D0B" stop-opacity="0"/>
</radialGradient>
<radialGradient id="paint25_radial_207_3052" cx="0" cy="0" r="1" gradientUnits="userSpaceOnUse" gradientTransform="translate(26.4843 66.9616) rotate(10.2651) scale(6.70168 8.10453)">
<stop offset="0.386508" stop-color="#B94D0B" stop-opacity="0.85"/>
<stop offset="0.801897" stop-color="#B94D0B" stop-opacity="0.230857"/>
<stop offset="0.933669" stop-color="#B94D0B" stop-opacity="0.0574676"/>
<stop offset="1" stop-color="#B94D0B" stop-opacity="0"/>
</radialGradient>
<radialGradient id="paint26_radial_207_3052" cx="0" cy="0" r="1" gradientUnits="userSpaceOnUse" gradientTransform="translate(53.4818 5.29004) rotate(117.732) scale(8.10918 22.1843)">
<stop stop-color="#FB433A"/>
<stop offset="1" stop-color="#FB433A" stop-opacity="0"/>
</radialGradient>
<radialGradient id="paint27_radial_207_3052" cx="0" cy="0" r="1" gradientUnits="userSpaceOnUse" gradientTransform="translate(54.6302 9.35058) rotate(120.256) scale(1.13961 5.24223)">
<stop stop-color="#FF766F"/>
<stop offset="1" stop-color="#FF766F" stop-opacity="0"/>
</radialGradient>
<radialGradient id="paint28_radial_207_3052" cx="0" cy="0" r="1" gradientUnits="userSpaceOnUse" gradientTransform="translate(19.767 55.6982) rotate(29.3578) scale(3.01179 66.5624)">
<stop stop-color="white"/>
<stop offset="1" stop-color="white" stop-opacity="0"/>
</radialGradient>
<radialGradient id="paint29_radial_207_3052" cx="0" cy="0" r="1" gradientUnits="userSpaceOnUse" gradientTransform="translate(52.0052 14.0264) rotate(30.6506) scale(2.57452 47.2929)">
<stop stop-color="#FF6454"/>
<stop offset="0.848958" stop-color="#FF8150" stop-opacity="0.0833333"/>
<stop offset="1" stop-color="#FF8450" stop-opacity="0"/>
</radialGradient>
<radialGradient id="paint30_radial_207_3052" cx="0" cy="0" r="1" gradientUnits="userSpaceOnUse" gradientTransform="translate(25.3451 58.9795) rotate(29.9315) scale(3.12366 38.8885)">
<stop stop-color="#FF8255"/>
<stop offset="1" stop-color="#FF8450" stop-opacity="0"/>
</radialGradient>
<linearGradient id="paint31_linear_207_3052" x1="47.1169" y1="35.3685" x2="74.5227" y2="62.9558" gradientUnits="userSpaceOnUse">
<stop offset="0.0622556" stop-color="#FFCDB2"/>
<stop offset="1" stop-color="#F4C1B3"/>
</linearGradient>
<radialGradient id="paint32_radial_207_3052" cx="0" cy="0" r="1" gradientUnits="userSpaceOnUse" gradientTransform="translate(59.7886 79.6802) rotate(-135.161) scale(25.8816 16.4853)">
<stop offset="0.212492" stop-color="#C88A97"/>
<stop offset="1" stop-color="#C88A97" stop-opacity="0"/>
</radialGradient>
<linearGradient id="paint33_linear_207_3052" x1="63.9852" y1="36.3396" x2="61.3602" y2="41.4255" gradientUnits="userSpaceOnUse">
<stop stop-color="#FFD3B5"/>
<stop offset="1" stop-color="#FFD3B5" stop-opacity="0"/>
</linearGradient>
<linearGradient id="paint34_linear_207_3052" x1="62.512" y1="37.0779" x2="57.7542" y2="46.9216" gradientUnits="userSpaceOnUse">
<stop stop-color="#F9D5BC"/>
<stop offset="1" stop-color="#F9D5BC" stop-opacity="0"/>
</linearGradient>
<linearGradient id="paint35_linear_207_3052" x1="79.7385" y1="55.617" x2="73.012" y2="55.617" gradientUnits="userSpaceOnUse">
<stop stop-color="#F9D5BC"/>
<stop offset="1" stop-color="#F9D5BC" stop-opacity="0"/>
</linearGradient>
<radialGradient id="paint36_radial_207_3052" cx="0" cy="0" r="1" gradientUnits="userSpaceOnUse" gradientTransform="translate(52.0723 38.4017) rotate(121.114) scale(5.90916 23.0935)">
<stop stop-color="#FFE8CA"/>
<stop offset="0.368695" stop-color="#FFE8CA" stop-opacity="0.726275"/>
<stop offset="0.845999" stop-color="#FFE8CA" stop-opacity="0.130075"/>
<stop offset="1" stop-color="#FFE8CA" stop-opacity="0"/>
</radialGradient>
<radialGradient id="paint37_radial_207_3052" cx="0" cy="0" r="1" gradientUnits="userSpaceOnUse" gradientTransform="translate(66.1301 57.115) rotate(106.474) scale(11.9732 25.8598)">
<stop stop-color="#FFE8CA"/>
<stop offset="0.177833" stop-color="#FFE8CA" stop-opacity="0.869719"/>
<stop offset="0.574643" stop-color="#FFE8CA" stop-opacity="0.340671"/>
<stop offset="0.706518" stop-color="#FFE8CA" stop-opacity="0.173443"/>
<stop offset="0.947917" stop-color="#FFE8CA" stop-opacity="0.0273396"/>
<stop offset="1" stop-color="#FFE8CA" stop-opacity="0"/>
</radialGradient>
<radialGradient id="paint38_radial_207_3052" cx="0" cy="0" r="1" gradientUnits="userSpaceOnUse" gradientTransform="translate(56.9958 55.3765) rotate(108.838) scale(8.22294 21.1332)">
<stop stop-color="#FFE8CA"/>
<stop offset="0.177833" stop-color="#FFE8CA" stop-opacity="0.869719"/>
<stop offset="0.578035" stop-color="#FFE8CA" stop-opacity="0.340671"/>
<stop offset="0.722656" stop-color="#FFE8CA" stop-opacity="0.173443"/>
<stop offset="1" stop-color="#FFE8CA" stop-opacity="0"/>
</radialGradient>
<radialGradient id="paint39_radial_207_3052" cx="0" cy="0" r="1" gradientUnits="userSpaceOnUse" gradientTransform="translate(69.6235 58.3958) rotate(-83.9589) scale(9.94728 12.2856)">
<stop stop-color="#FFE8CA"/>
<stop offset="0.177833" stop-color="#FFE8CA" stop-opacity="0.869719"/>
<stop offset="0.578035" stop-color="#FFE8CA" stop-opacity="0.340671"/>
<stop offset="0.722656" stop-color="#FFE8CA" stop-opacity="0.173443"/>
<stop offset="1" stop-color="#FFE8CA" stop-opacity="0"/>
</radialGradient>
<radialGradient id="paint40_radial_207_3052" cx="0" cy="0" r="1" gradientUnits="userSpaceOnUse" gradientTransform="translate(46.4337 55.7264) rotate(7.12501) scale(5.57774 9.48145)">
<stop stop-color="#FFE8CA"/>
<stop offset="0.350751" stop-color="#FFE8CA" stop-opacity="0.721844"/>
<stop offset="0.804981" stop-color="#FFE8CA" stop-opacity="0.123243"/>
<stop offset="1" stop-color="#FFE8CA" stop-opacity="0"/>
</radialGradient>
<radialGradient id="paint41_radial_207_3052" cx="0" cy="0" r="1" gradientUnits="userSpaceOnUse" gradientTransform="translate(45.1248 72.9399) rotate(-76.9666) scale(23.3387 29.6971)">
<stop stop-color="#D48F8B"/>
<stop offset="1" stop-color="#D48F8B" stop-opacity="0"/>
</radialGradient>
<radialGradient id="paint42_radial_207_3052" cx="0" cy="0" r="1" gradientUnits="userSpaceOnUse" gradientTransform="translate(45.3953 71.8389) rotate(-84.2933) scale(17.4071 14.218)">
<stop offset="0.211377" stop-color="#985785"/>
<stop offset="0.884302" stop-color="#985785" stop-opacity="0.0749988"/>
<stop offset="1" stop-color="#985785" stop-opacity="0"/>
</radialGradient>
<radialGradient id="paint43_radial_207_3052" cx="0" cy="0" r="1" gradientUnits="userSpaceOnUse" gradientTransform="translate(58.9481 74.2967) rotate(-70.7139) scale(3.09641 14.5776)">
<stop stop-color="#BC7F9C"/>
<stop offset="0.831591" stop-color="#BC7F9C" stop-opacity="0.11857"/>
<stop offset="1" stop-color="#BC7F9C" stop-opacity="0"/>
</radialGradient>
<radialGradient id="paint44_radial_207_3052" cx="0" cy="0" r="1" gradientUnits="userSpaceOnUse" gradientTransform="translate(69.8572 74.0843) rotate(-96.0979) scale(3.03189 50.2505)">
<stop stop-color="#BC7F9C"/>
<stop offset="0.60793" stop-color="#BC7F9C" stop-opacity="0.246949"/>
<stop offset="0.810409" stop-color="#BC7F9C" stop-opacity="0.106301"/>
<stop offset="1" stop-color="#BC7F9C" stop-opacity="0"/>
</radialGradient>
<radialGradient id="paint45_radial_207_3052" cx="0" cy="0" r="1" gradientUnits="userSpaceOnUse" gradientTransform="translate(40.2424 67.1828) rotate(-123.652) scale(2.89847 9.36428)">
<stop offset="0.0399519" stop-color="#BC7F9C"/>
<stop offset="0.785559" stop-color="#BC7F9C" stop-opacity="0.156248"/>
<stop offset="1" stop-color="#BC7F9C" stop-opacity="0"/>
</radialGradient>
<radialGradient id="paint46_radial_207_3052" cx="0" cy="0" r="1" gradientUnits="userSpaceOnUse" gradientTransform="translate(46.7406 67.718) rotate(6.91124) scale(6.83665 8.53913)">
<stop stop-color="#713A59"/>
<stop offset="0.340786" stop-color="#713A59" stop-opacity="0.492037"/>
<stop offset="0.747852" stop-color="#713A59" stop-opacity="0.0749988"/>
<stop offset="0.880606" stop-color="#713A59" stop-opacity="0.0237612"/>
<stop offset="1" stop-color="#713A59" stop-opacity="0"/>
</radialGradient>
<radialGradient id="paint47_radial_207_3052" cx="0" cy="0" r="1" gradientUnits="userSpaceOnUse" gradientTransform="translate(52.296 72.8011) rotate(-66.6656) scale(7.72411 13.9416)">
<stop stop-color="#713A59"/>
<stop offset="0.707839" stop-color="#713A59" stop-opacity="0.0749988"/>
<stop offset="0.942651" stop-color="#713A59" stop-opacity="0.0237612"/>
<stop offset="1" stop-color="#713A59" stop-opacity="0"/>
</radialGradient>
<radialGradient id="paint48_radial_207_3052" cx="0" cy="0" r="1" gradientUnits="userSpaceOnUse" gradientTransform="translate(60.2355 76.975) rotate(-99.2507) scale(7.21687 22.3428)">
<stop offset="0.0489921" stop-color="#713A59"/>
<stop offset="0.707839" stop-color="#713A59" stop-opacity="0.0749988"/>
<stop offset="0.900589" stop-color="#713A59" stop-opacity="0.0237612"/>
<stop offset="1" stop-color="#713A59" stop-opacity="0"/>
</radialGradient>
<radialGradient id="paint49_radial_207_3052" cx="0" cy="0" r="1" gradientUnits="userSpaceOnUse" gradientTransform="translate(75.6667 47.9241) rotate(149.931) scale(13.5816 4.13089)">
<stop stop-color="#FFE5C6"/>
<stop offset="1" stop-color="#FFE5C6" stop-opacity="0"/>
</radialGradient>
<linearGradient id="paint50_linear_207_3052" x1="79.159" y1="60.0553" x2="76.3884" y2="60.0553" gradientUnits="userSpaceOnUse">
<stop offset="0.23264" stop-color="#BA6857"/>
<stop offset="0.793033" stop-color="#BA6857" stop-opacity="0.100827"/>
<stop offset="1" stop-color="#BA6857" stop-opacity="0"/>
</linearGradient>
<radialGradient id="paint51_radial_207_3052" cx="0" cy="0" r="1" gradientUnits="userSpaceOnUse" gradientTransform="translate(49.0126 46.8347) rotate(-80.3263) scale(1.79228 15.5376)">
<stop stop-color="#D67965"/>
<stop offset="0.560668" stop-color="#D67965" stop-opacity="0.237621"/>
<stop offset="0.801553" stop-color="#D67965" stop-opacity="0.0477219"/>
<stop offset="0.990503" stop-color="#D67965" stop-opacity="0"/>
</radialGradient>
<radialGradient id="paint52_radial_207_3052" cx="0" cy="0" r="1" gradientUnits="userSpaceOnUse" gradientTransform="translate(44.8277 45.9518) rotate(-71.7749) scale(2.80109 6.0822)">
<stop stop-color="#D67965"/>
<stop offset="0.729148" stop-color="#D67965" stop-opacity="0.0477219"/>
<stop offset="0.990503" stop-color="#D67965" stop-opacity="0"/>
</radialGradient>
<radialGradient id="paint53_radial_207_3052" cx="0" cy="0" r="1" gradientUnits="userSpaceOnUse" gradientTransform="translate(52.9417 52.0198) rotate(85.2347) scale(5.01316 25.4872)">
<stop stop-color="#FFE8CA"/>
<stop offset="0.626931" stop-color="#FFE8CA" stop-opacity="0.431524"/>
<stop offset="0.804981" stop-color="#FFE8CA" stop-opacity="0.123243"/>
<stop offset="1" stop-color="#FFE8CA" stop-opacity="0"/>
</radialGradient>
<radialGradient id="paint54_radial_207_3052" cx="0" cy="0" r="1" gradientUnits="userSpaceOnUse" gradientTransform="translate(38.8299 58.0614) rotate(60.2892) scale(5.77723 34.3919)">
<stop stop-color="#FFE8CA"/>
<stop offset="0.151042" stop-color="#FFE8CA" stop-opacity="0.92"/>
<stop offset="0.291667" stop-color="#FFE8CA" stop-opacity="0.729205"/>
<stop offset="0.592061" stop-color="#FFE8CA" stop-opacity="0.340671"/>
<stop offset="0.739453" stop-color="#FFE8CA" stop-opacity="0.173443"/>
<stop offset="1" stop-color="#FFE8CA" stop-opacity="0"/>
</radialGradient>
<radialGradient id="paint55_radial_207_3052" cx="0" cy="0" r="1" gradientUnits="userSpaceOnUse" gradientTransform="translate(38.6451 53.9956) rotate(68.3604) scale(15.5703 92.6901)">
<stop stop-color="#FFE8CA"/>
<stop offset="0.151042" stop-color="#FFE8CA" stop-opacity="0.92"/>
<stop offset="0.291667" stop-color="#FFE8CA" stop-opacity="0.729205"/>
<stop offset="0.592061" stop-color="#FFE8CA" stop-opacity="0.340671"/>
<stop offset="0.739453" stop-color="#FFE8CA" stop-opacity="0.173443"/>
<stop offset="1" stop-color="#FFE8CA" stop-opacity="0"/>
</radialGradient>
<radialGradient id="paint56_radial_207_3052" cx="0" cy="0" r="1" gradientUnits="userSpaceOnUse" gradientTransform="translate(34.5774 53.4035) rotate(-46.1701) scale(18.5364 21.9021)">
<stop offset="0.116714" stop-color="#D78F83"/>
<stop offset="0.576302" stop-color="#D67965"/>
<stop offset="0.95519" stop-color="#D67965" stop-opacity="0.0475328"/>
<stop offset="1" stop-color="#D67965" stop-opacity="0"/>
</radialGradient>
<radialGradient id="paint57_radial_207_3052" cx="0" cy="0" r="1" gradientUnits="userSpaceOnUse" gradientTransform="translate(32.9416 51.8933) rotate(-31.2291) scale(8.71026 29.9965)">
<stop stop-color="white" stop-opacity="0.14"/>
<stop offset="0.895294" stop-color="white" stop-opacity="0.15"/>
<stop offset="1" stop-color="white" stop-opacity="0"/>
</radialGradient>
<radialGradient id="paint58_radial_207_3052" cx="0" cy="0" r="1" gradientUnits="userSpaceOnUse" gradientTransform="translate(41.9021 42.9713) rotate(-14.7746) scale(4.02403 8.72604)">
<stop stop-color="#D67965"/>
<stop offset="0.834015" stop-color="#D67965" stop-opacity="0.06"/>
<stop offset="1" stop-color="#D67965" stop-opacity="0"/>
</radialGradient>
<radialGradient id="paint59_radial_207_3052" cx="0" cy="0" r="1" gradientUnits="userSpaceOnUse" gradientTransform="translate(40.8593 43.516) rotate(146.535) scale(3.43076 7.02944)">
<stop offset="0.190871" stop-color="#6D3539"/>
<stop offset="0.730086" stop-color="#6D3539" stop-opacity="0.188105"/>
<stop offset="1" stop-color="#6D3539" stop-opacity="0"/>
</radialGradient>
<linearGradient id="paint60_linear_207_3052" x1="40.7886" y1="11.7794" x2="51.2528" y2="17.0663" gradientUnits="userSpaceOnUse">
<stop stop-color="#9E999F"/>
<stop offset="1" stop-color="#D9CCEC"/>
</linearGradient>
<linearGradient id="paint61_linear_207_3052" x1="54.8526" y1="19.5646" x2="52.418" y2="18.047" gradientUnits="userSpaceOnUse">
<stop stop-color="#9C979A"/>
<stop offset="1" stop-color="#D4C5DE" stop-opacity="0"/>
<stop offset="1" stop-color="#9C979A" stop-opacity="0"/>
</linearGradient>
<linearGradient id="paint62_linear_207_3052" x1="12.9638" y1="73.4049" x2="16.3127" y2="74.422" gradientUnits="userSpaceOnUse">
<stop stop-color="#CE8C7F"/>
<stop offset="1" stop-color="#E79196"/>
</linearGradient>
<linearGradient id="paint63_linear_207_3052" x1="20.1849" y1="77.461" x2="16.4247" y2="75.2896" gradientUnits="userSpaceOnUse">
<stop stop-color="#E086A3"/>
<stop offset="1" stop-color="#E086A3" stop-opacity="0"/>
</linearGradient>
<linearGradient id="paint64_linear_207_3052" x1="17.1441" y1="70.9575" x2="16.6763" y2="71.7148" gradientUnits="userSpaceOnUse">
<stop stop-color="#EB947F"/>
<stop offset="1" stop-color="#EB947F" stop-opacity="0"/>
</linearGradient>
<linearGradient id="paint65_linear_207_3052" x1="12.9724" y1="77.2374" x2="14.2797" y2="78.2889" gradientUnits="userSpaceOnUse">
<stop stop-color="#3B1A3B"/>
<stop offset="1" stop-color="#5A1870"/>
<stop offset="1" stop-color="#3F0C46"/>
</linearGradient>
<linearGradient id="paint66_linear_207_3052" x1="27.7307" y1="51.9257" x2="35.0315" y2="59.4571" gradientUnits="userSpaceOnUse">
<stop stop-color="#F19D7C"/>
<stop offset="0.822255" stop-color="#F19D7C" stop-opacity="0.0640039"/>
<stop offset="1" stop-color="#F19D7C" stop-opacity="0"/>
</linearGradient>
<radialGradient id="paint67_radial_207_3052" cx="0" cy="0" r="1" gradientUnits="userSpaceOnUse" gradientTransform="translate(22.7611 68.1679) rotate(-34.4393) scale(11.8942 15.4617)">
<stop stop-color="#BF8288"/>
<stop offset="0.744706" stop-color="#BF8288" stop-opacity="0.151759"/>
<stop offset="1" stop-color="#BF8288" stop-opacity="0"/>
</radialGradient>
<radialGradient id="paint68_radial_207_3052" cx="0" cy="0" r="1" gradientUnits="userSpaceOnUse" gradientTransform="translate(31.5828 73.582) rotate(-47.2026) scale(6.03696 7.50589)">
<stop stop-color="#B97C93"/>
<stop offset="0.725883" stop-color="#B97C93" stop-opacity="0.152897"/>
<stop offset="1" stop-color="#B97C93" stop-opacity="0"/>
</radialGradient>
<radialGradient id="paint69_radial_207_3052" cx="0" cy="0" r="1" gradientUnits="userSpaceOnUse" gradientTransform="translate(41.3075 63.4616) rotate(-166.988) scale(19.9317 24.089)">
<stop stop-color="#FFE8CA" stop-opacity="0"/>
<stop offset="0.717042" stop-color="#FFE8CA" stop-opacity="0"/>
<stop offset="0.783251" stop-color="#FFE8CA" stop-opacity="0.12511"/>
<stop offset="1" stop-color="#FFE8CA"/>
</radialGradient>
</defs>
</svg>
