<svg width="203" height="79" viewBox="0 0 203 79" fill="none" xmlns="http://www.w3.org/2000/svg">
<path d="M27.9609 19.0381L8.00144 56.7394" stroke="#fff" stroke-width="16" stroke-linecap="round"/>
<path d="M27.9609 19.0381L47.9204 56.7394" stroke="#fff" stroke-width="16" stroke-linecap="round"/>
<path d="M94.168 19.0381L74.2085 56.7394" stroke="#fff" stroke-width="16" stroke-linecap="round"/>
<path d="M115.707 18.7197L73.0001 18.7197" stroke="#fff" stroke-width="16" stroke-linecap="round"/>
<path d="M94.168 19.0381L114.127 56.7394" stroke="#fff" stroke-width="16" stroke-linecap="round"/>
<path d="M145.44 17.7495C157.347 8.04876 174.865 9.83803 184.565 21.7459C194.266 33.6538 192.477 51.1711 180.569 60.8718C168.661 70.5725 151.144 68.7833 141.443 56.8754C131.742 44.9675 133.532 27.4502 145.44 17.7495ZM171.787 50.0912C177.741 45.2409 178.635 36.4822 173.785 30.5283C168.934 24.5743 160.176 23.6797 154.222 28.5301C148.268 33.3804 147.373 42.1391 152.224 48.093C157.074 54.047 165.833 54.9416 171.787 50.0912Z" fill="#fff"/>
</svg>
