<svg width="37" height="36" viewBox="0 0 37 36" fill="none" xmlns="http://www.w3.org/2000/svg">
<g clip-path="url(#clip0_42_1168)">
<path d="M27.9526 0H8.82764C4.16773 0 0.390137 3.7776 0.390137 8.4375V27.5625C0.390137 32.2224 4.16773 36 8.82764 36H27.9526C32.6125 36 36.3901 32.2224 36.3901 27.5625V8.4375C36.3901 3.7776 32.6125 0 27.9526 0Z" fill="#F4F2ED"/>
<mask id="mask0_42_1168" style="mask-type:luminance" maskUnits="userSpaceOnUse" x="8" y="3" width="20" height="30">
<path d="M8.96826 3.9375H27.722V32.0625H8.96826V3.9375Z" fill="white"/>
</mask>
<g mask="url(#mask0_42_1168)">
<path d="M13.6578 32.0625C16.2453 32.0625 18.3453 29.9626 18.3453 27.3751V22.6875H13.6578C11.0703 22.6875 8.97021 24.7876 8.97021 27.3751C8.97021 29.9626 11.0703 32.0625 13.6578 32.0625Z" fill="#0ACF83"/>
<path d="M8.97021 18C8.97021 15.4125 11.0703 13.3125 13.6578 13.3125H18.3453V22.6874H13.6578C11.0703 22.6874 8.97021 20.5875 8.97021 18Z" fill="#A259FF"/>
<path d="M8.96997 8.62495C8.96997 6.03745 11.0701 3.9375 13.6576 3.9375H18.345V13.3125H13.6576C11.0701 13.3125 8.96997 11.2125 8.96997 8.62495Z" fill="#F24E1E"/>
<path d="M18.3452 3.9375H23.0327C25.6202 3.9375 27.7203 6.03745 27.7203 8.62495C27.7203 11.2125 25.6202 13.3125 23.0327 13.3125H18.3452V3.9375Z" fill="#FF7262"/>
<path d="M27.7203 18C27.7203 20.5875 25.6202 22.6874 23.0327 22.6874C20.4452 22.6874 18.3452 20.5875 18.3452 18C18.3452 15.4125 20.4452 13.3125 23.0327 13.3125C25.6202 13.3125 27.7203 15.4125 27.7203 18Z" fill="#1ABCFE"/>
</g>
</g>
<defs>
<clipPath id="clip0_42_1168">
<rect width="36" height="36" fill="white" transform="translate(0.390137)"/>
</clipPath>
</defs>
</svg>
