<svg width="36" height="36" viewBox="0 0 36 36" fill="none" xmlns="http://www.w3.org/2000/svg">
<g clip-path="url(#clip0_42_1185)">
<path d="M6.37509 0.449951H29.6249C33.1501 0.449951 36 3.29986 36 6.82504V29.1749C36 32.7 33.1501 35.55 29.6249 35.55H6.37509C2.84991 35.55 0 32.7 0 29.1749V6.82504C0 3.29986 2.84991 0.449951 6.37509 0.449951Z" fill="#001E36"/>
<path d="M12.9002 9.37488C12.4502 9.37488 12.0002 9.37488 11.5353 9.39007C11.0701 9.40497 10.635 9.40497 10.23 9.42016C9.825 9.43507 9.4501 9.43506 9.0901 9.44997C8.745 9.46488 8.5051 9.46488 8.25 9.46488C8.1451 9.46488 8.1001 9.52478 8.1001 9.62997V25.065C8.1001 25.2 8.16 25.2602 8.2801 25.2602H11.1902C11.2951 25.245 11.3702 25.155 11.355 25.0501V20.2351C11.6399 20.2351 11.85 20.2351 12.0002 20.25C12.1501 20.2649 12.39 20.2649 12.75 20.2649C13.9802 20.2649 15.1052 20.1299 16.125 19.755C17.1001 19.395 17.9402 18.765 18.5401 17.9249C19.1401 17.0849 19.4401 16.0199 19.4401 14.7299C19.4401 14.0549 19.3203 13.41 19.0953 12.78C18.8569 12.1381 18.4834 11.555 18.0001 11.07C17.4297 10.5158 16.743 10.0956 15.99 9.83978C15.1499 9.52478 14.1301 9.37488 12.9002 9.37488ZM13.2349 12.3294C13.7693 12.3395 14.2896 12.4329 14.775 12.6298C15.2101 12.7949 15.5701 13.095 15.8252 13.4848C16.0644 13.8882 16.1841 14.3513 16.1703 14.8202C16.1703 15.48 16.0201 15.9902 15.7051 16.3651C15.3749 16.74 14.955 17.0252 14.4752 17.1602C13.92 17.3402 13.335 17.4299 12.75 17.4299H11.9549C11.7749 17.4299 11.5803 17.415 11.3702 17.4001V12.3601C11.4751 12.3449 11.6852 12.33 11.9853 12.3452C12.2702 12.33 12.615 12.33 13.0051 12.33C13.082 12.3281 13.1586 12.3279 13.2349 12.3294ZM25.8152 13.0953C24.7501 13.0953 23.865 13.2601 23.1602 13.6201C22.5153 13.9202 21.9601 14.4 21.5852 14.9999C21.2553 15.5551 21.075 16.1699 21.075 16.8151C21.0622 17.3457 21.1807 17.8713 21.4201 18.3451C21.7006 18.8495 22.0901 19.2851 22.5603 19.62C23.2201 20.0713 23.9362 20.4344 24.6902 20.7C25.4251 20.9849 25.9201 21.2099 26.1603 21.4048C26.4002 21.6 26.5203 21.7949 26.5203 22.005C26.5203 22.275 26.3552 22.5301 26.1153 22.635C25.8453 22.77 25.4403 22.8451 24.8702 22.8451C24.2703 22.8451 23.6701 22.77 23.1 22.6201C22.4454 22.4739 21.8178 22.2259 21.2401 21.8852C21.1951 21.8551 21.1501 21.8402 21.1051 21.8703C21.0601 21.9001 21.0452 21.96 21.0452 22.005V24.615C21.0303 24.7351 21.1051 24.84 21.2103 24.8999C21.6967 25.1271 22.2112 25.2886 22.7403 25.38C23.4153 25.515 24.09 25.5749 24.7799 25.5749C25.8599 25.5749 26.7602 25.4101 27.4951 25.0951C28.1701 24.8251 28.7551 24.3602 29.175 23.76C29.5683 23.1699 29.7723 22.474 29.76 21.7651C29.7748 21.2295 29.6563 20.6986 29.4152 20.2202C29.13 19.71 28.725 19.2901 28.23 18.9751C27.5059 18.5203 26.7305 18.1527 25.9201 17.8799C25.5582 17.7301 25.2028 17.5649 24.855 17.3849C24.6601 17.28 24.4801 17.145 24.3451 16.9799C24.2551 16.8598 24.1952 16.7251 24.1952 16.5901C24.1952 16.4551 24.2402 16.3052 24.315 16.1851C24.4202 16.0352 24.585 15.93 24.7799 15.885C25.0651 15.8102 25.3801 15.7649 25.6799 15.7798C26.25 15.7798 26.8049 15.8549 27.3601 15.975C27.8703 16.0799 28.3501 16.245 28.8001 16.4852C28.86 16.515 28.9351 16.515 29.0701 16.4852C29.0935 16.4678 29.1126 16.4451 29.1256 16.419C29.1386 16.3929 29.1454 16.3641 29.1452 16.335V13.8901C29.1452 13.8299 29.13 13.77 29.1151 13.7101C29.085 13.6502 29.0251 13.59 28.9652 13.5751C28.5515 13.406 28.118 13.29 27.6751 13.23C27.0592 13.1403 26.4376 13.0955 25.8152 13.0953Z" fill="#31A8FF"/>
</g>
<defs>
<clipPath id="clip0_42_1185">
<rect width="36" height="36" fill="white"/>
</clipPath>
</defs>
</svg>
