<svg width="36" height="36" viewBox="0 0 36 36" fill="none" xmlns="http://www.w3.org/2000/svg">
<path d="M30.0069 0.671387H17.3057C17.3057 3.8377 19.869 6.40045 23.0339 6.40045H25.3708V8.6617C25.3708 11.828 27.9338 14.391 31.1001 14.391V1.76432C31.0998 1.4745 30.9846 1.19664 30.7796 0.99173C30.5746 0.786821 30.2967 0.67161 30.0069 0.671387Z" fill="#2684FF"/>
<path d="M23.713 7.00366H11.0117C11.0117 10.17 13.5736 12.7322 16.7399 12.7322H19.0766V14.994C19.0766 18.1603 21.6396 20.7236 24.8059 20.7236V8.09688C24.8057 7.80706 24.6905 7.52917 24.4856 7.3242C24.2807 7.11924 24.0028 7.00396 23.713 7.00366Z" fill="url(#paint0_linear_42_1180)"/>
<path d="M17.4189 13.3352H4.71655C4.71655 16.5015 7.27958 19.0645 10.4456 19.0645H12.7828V21.3266C12.7828 24.4918 15.3456 27.0549 18.5119 27.0549V14.4284C18.5116 14.1386 18.3964 13.8607 18.1915 13.6557C17.9866 13.4508 17.7087 13.3355 17.4189 13.3352Z" fill="url(#paint1_linear_42_1180)"/>
<path d="M12.9374 28.4743H13.9032V33.25C13.9032 34.5103 13.3286 35.3892 11.9946 35.3892C11.494 35.3892 11.1017 35.3056 10.8325 35.2111V34.2959C11.127 34.4146 11.4816 34.474 11.8366 34.474C12.6561 34.474 12.9374 33.9995 12.9374 33.3096V28.4743ZM15.6773 28.1053C16.0565 28.1053 16.3256 28.3315 16.3256 28.7348C16.3256 29.1268 16.0565 29.3653 15.6773 29.3653C15.2985 29.3653 15.0293 29.1389 15.0293 28.7348C15.0293 28.3438 15.2985 28.1053 15.6773 28.1053ZM15.2006 30.1135H16.1301V35.3419H15.2006V30.1135ZM18.4294 35.3419H17.5246V30.1135H18.4296V31.0287C18.7483 30.4102 19.2866 29.9709 20.3379 30.0302V30.91C19.1516 30.7913 18.4296 31.1353 18.4296 32.2527L18.4294 35.3419ZM24.6818 34.4025C24.339 35.0924 23.6907 35.4488 22.8579 35.4488C21.4278 35.4488 20.7058 34.2718 20.7058 32.7271C20.7058 31.2539 21.4638 30.0069 22.969 30.0069C23.7512 30.0069 24.3632 30.3508 24.6818 31.0287V30.1135H25.6114V35.3419H24.6818V34.4025ZM23.1032 34.6168C23.9348 34.6168 24.6686 34.1061 24.6686 32.9414V32.526C24.6686 31.3617 23.9964 30.8506 23.2008 30.8506C22.1616 30.8506 21.623 31.5155 21.623 32.7271C21.6353 33.9871 22.1495 34.6168 23.1032 34.6168Z" fill="#253858"/>
<defs>
<linearGradient id="paint0_linear_42_1180" x1="24.5418" y1="7.0179" x2="19.1376" y2="12.5903" gradientUnits="userSpaceOnUse">
<stop offset="0.176" stop-color="#0052CC"/>
<stop offset="1" stop-color="#2684FF"/>
</linearGradient>
<linearGradient id="paint1_linear_42_1180" x1="18.6133" y1="13.3841" x2="12.3647" y2="19.4633" gradientUnits="userSpaceOnUse">
<stop offset="0.176" stop-color="#0052CC"/>
<stop offset="1" stop-color="#2684FF"/>
</linearGradient>
</defs>
</svg>
