<svg width="36" height="36" viewBox="0 0 36 36" fill="none" xmlns="http://www.w3.org/2000/svg">
<path d="M5.35419 32.0276L2.54028 0.467163H33.4598L30.6428 32.0229L17.9812 35.5328L5.35419 32.0276Z" fill="#E44D26"/>
<path d="M18 32.85L28.2313 30.0133L30.6385 3.04761H18V32.85Z" fill="#F16529"/>
<path d="M17.9999 14.753H12.8778L12.524 10.789H17.9999V6.91846H8.2937L8.38651 7.95683L9.3377 18.6238H17.9999V14.753ZM17.9999 24.8057L17.9828 24.8105L13.672 23.6461L13.3967 20.5594H9.51067L10.0529 26.6369L17.9822 28.838L17.9999 28.8332V24.8057Z" fill="#EBEBEB"/>
<path d="M17.9866 14.753V18.6238H22.7529L22.3038 23.6438L17.9866 24.8091V28.8363L25.922 26.6369L25.9803 25.983L26.8898 15.7925L26.984 14.753H25.9412H17.9866ZM17.9866 6.91846V10.789H27.3364L27.4141 9.91939L27.5907 7.95683L27.6832 6.91846H17.9866Z" fill="white"/>
</svg>
