<svg width="32" height="36" viewBox="0 0 32 36" fill="none" xmlns="http://www.w3.org/2000/svg">
<g clip-path="url(#clip0_42_1195)">
<path d="M15.772 35.888L2.92339 32.3383L0.0600586 0.377808H31.5225L28.6562 32.3334L15.772 35.888Z" fill="#264DE4"/>
<path d="M26.2026 30.2985L28.6519 2.99097H15.7915V33.1709L26.2026 30.2985Z" fill="#2965F1"/>
<path d="M6.62418 14.8447L6.97715 18.7645H15.7913V14.8447H6.62418ZM5.91479 6.91089L6.27282 10.8307H15.7913V6.91089H5.91479ZM15.7913 25.0249L15.7741 25.0294L11.3875 23.8507L11.1071 20.7245H7.15314L7.70491 26.8792L15.7732 29.1081L15.7913 29.1032V25.0249Z" fill="#EBEBEB"/>
<path d="M24.9333 14.8447L25.6443 6.91089H15.7777V10.8307H21.3278L20.9694 14.8447H15.7777V18.7645H20.6279L20.1706 23.8482L15.7776 25.0282V29.1062L23.8523 26.8792L23.9115 26.2169L24.8372 15.8973L24.9333 14.8447Z" fill="white"/>
</g>
<defs>
<clipPath id="clip0_42_1195">
<rect width="32" height="36" fill="white"/>
</clipPath>
</defs>
</svg>
