<svg width="36" height="36" viewBox="0 0 36 36" fill="none" xmlns="http://www.w3.org/2000/svg">
<g clip-path="url(#clip0_42_1201)">
<path d="M27.5625 0H8.4375C3.7776 0 0 3.7776 0 8.4375V27.5625C0 32.2224 3.7776 36 8.4375 36H27.5625C32.2224 36 36 32.2224 36 27.5625V8.4375C36 3.7776 32.2224 0 27.5625 0Z" fill="#CD6799"/>
<mask id="mask0_42_1201" style="mask-type:luminance" maskUnits="userSpaceOnUse" x="3" y="7" width="30" height="22">
<path d="M3.9375 7.45312H32.0625V28.5341H3.9375V7.45312Z" fill="white"/>
</mask>
<g mask="url(#mask0_42_1201)">
<path d="M28.1401 19.57C27.1594 19.575 26.3072 19.8113 25.5935 20.1603C25.3317 19.6418 25.0699 19.1797 25.0236 18.8408C24.9723 18.4455 24.9107 18.2042 24.9723 17.7318C25.0339 17.2595 25.3112 16.587 25.306 16.5357C25.3008 16.4844 25.2444 16.2431 24.6796 16.2378C24.1149 16.2326 23.6272 16.3457 23.5707 16.4946C23.5141 16.6434 23.4064 16.9823 23.3345 17.3315C23.237 17.8449 22.2049 19.6778 21.6146 20.6379C21.4246 20.2631 21.2603 19.9345 21.2243 19.6726C21.173 19.2773 21.1114 19.036 21.173 18.5636C21.2346 18.0913 21.5119 17.4187 21.5067 17.3673C21.5015 17.316 21.4451 17.0747 20.8804 17.0696C20.3156 17.0646 19.8278 17.1774 19.7714 17.3263C19.7149 17.4752 19.6533 17.8244 19.5351 18.1631C19.4172 18.502 18.0463 21.562 17.6869 22.3526C17.5417 22.6726 17.3894 22.9893 17.23 23.3024C17.23 23.3024 17.2248 23.3179 17.2095 23.3435C17.1594 23.4417 17.108 23.5392 17.0554 23.6361V23.6413C16.9784 23.78 16.8962 23.9082 16.8551 23.9082C16.8243 23.9082 16.7679 23.5387 16.8654 23.0355C17.0708 21.9727 17.5585 20.3195 17.5535 20.2631C17.5535 20.2323 17.6458 19.9447 17.2351 19.7958C16.8346 19.6469 16.6909 19.8934 16.6549 19.8934C16.619 19.8934 16.5933 19.9807 16.5933 19.9807C16.5933 19.9807 17.04 18.1221 15.7411 18.1221C14.9298 18.1221 13.8106 19.0103 13.2562 19.8113C12.6258 20.1543 11.996 20.4982 11.3667 20.8432C11.0639 21.0126 10.7507 21.1821 10.4579 21.3413C10.4374 21.3207 10.4169 21.295 10.3963 21.2745C8.82528 19.5955 5.9194 18.4097 6.04259 16.1557C6.08886 15.3342 6.37123 13.1778 11.6234 10.5594C15.9464 8.4288 19.3864 9.01914 19.9819 10.3284C20.8341 12.1973 18.1387 15.6679 13.6721 16.1711C11.9674 16.361 11.0742 15.7039 10.8483 15.4575C10.6121 15.2007 10.5761 15.1854 10.4887 15.2367C10.345 15.3137 10.4374 15.5447 10.4887 15.6782C10.6223 16.0273 11.1716 16.6434 12.1009 16.9463C12.9224 17.2134 14.9195 17.3623 17.3377 16.4278C20.0435 15.3805 22.1588 12.4692 21.5375 10.0307C20.9164 7.55594 16.809 6.73961 12.9224 8.12069C10.6119 8.94222 8.10655 10.236 6.30444 11.92C4.16342 13.9225 3.82465 15.6628 3.96331 16.3918C4.46126 18.9795 8.02948 20.6635 9.45683 21.9111C9.38497 21.9521 9.31817 21.9881 9.26178 22.0189C8.54811 22.3732 5.82701 23.7953 5.1492 25.2997C4.37914 27.0042 5.27253 28.2261 5.86287 28.3904C7.69578 28.8987 9.58001 27.9848 10.5915 26.4753C11.603 24.9659 11.4797 23.0047 11.0124 22.1063C11.0073 22.0949 11.0004 22.0845 10.9919 22.0755C11.1768 21.9676 11.3667 21.8547 11.5516 21.7468C11.8914 21.5461 12.2354 21.3526 12.5835 21.1666C12.409 21.6442 12.2806 22.214 12.219 23.0355C12.1421 24.0008 12.5374 25.2535 13.0558 25.7463C13.2869 25.9619 13.559 25.9671 13.7337 25.9671C14.3395 25.9671 14.6116 25.464 14.9145 24.8684C15.284 24.1393 15.6179 23.2922 15.6179 23.2922C15.6179 23.2922 15.2019 25.5821 16.3314 25.5821C16.7422 25.5821 17.158 25.0481 17.3429 24.776V24.7811C17.3429 24.7811 17.3532 24.7658 17.3737 24.7298C17.4148 24.663 17.4404 24.6219 17.4404 24.6219V24.6116C17.6048 24.3242 17.9743 23.6721 18.5238 22.5888C19.2322 21.1923 19.9151 19.4468 19.9151 19.4468C19.9151 19.4468 19.9767 19.8729 20.1872 20.5813C20.3104 20.9973 20.5672 21.4542 20.7725 21.8958C20.6082 22.1268 20.5056 22.2551 20.5056 22.2551L20.5107 22.2603C20.3772 22.4348 20.2335 22.6248 20.0743 22.8095C19.5146 23.4771 18.8472 24.2421 18.7548 24.4629C18.647 24.7247 18.6727 24.9145 18.878 25.0687C19.0269 25.1816 19.2938 25.1969 19.5659 25.1816C20.0691 25.1456 20.4235 25.0224 20.598 24.9453C20.8701 24.8479 21.1885 24.699 21.4862 24.4782C22.0356 24.0726 22.3693 23.4924 22.3385 22.7274C22.323 22.3064 22.1844 21.8855 22.0151 21.49C22.0664 21.4182 22.1125 21.3463 22.1638 21.2745C23.0316 20.0063 23.7041 18.615 23.7041 18.615C23.7041 18.615 23.7657 19.0411 23.9762 19.7497C24.0789 20.109 24.2894 20.4992 24.4743 20.8792C23.658 21.5415 23.1548 22.3116 22.9751 22.8147C22.6517 23.7492 22.9032 24.1701 23.3807 24.2677C23.5964 24.3139 23.9044 24.2113 24.1303 24.1137C24.4178 24.0213 24.7567 23.8621 25.0801 23.6259C25.6294 23.2203 26.1583 22.6555 26.1275 21.8905C26.112 21.5415 26.0196 21.1974 25.8913 20.8637C26.5844 20.5763 27.4778 20.4171 28.6175 20.5505C31.0615 20.8381 31.5441 22.3629 31.4516 23.0047C31.3592 23.6464 30.8457 23.9956 30.6763 24.1034C30.507 24.2113 30.4505 24.2471 30.4659 24.3242C30.4865 24.4371 30.5686 24.4319 30.7123 24.4114C30.9125 24.3755 31.9958 23.8929 32.042 22.7121C32.1191 21.2026 30.6815 19.5545 28.1401 19.57ZM9.28737 25.9261C8.47625 26.809 7.34675 27.1429 6.85892 26.8605C6.33523 26.5575 6.54055 25.2535 7.53673 24.319C8.14241 23.7492 8.92287 23.2203 9.44136 22.8969C9.55948 22.825 9.734 22.7223 9.94451 22.594C9.98051 22.5734 10.001 22.5632 10.001 22.5632L10.1242 22.4861C10.4887 23.821 10.1396 24.9968 9.28737 25.9261ZM15.1918 21.9111C14.9094 22.5992 14.3191 24.3601 13.9596 24.2626C13.6517 24.1803 13.4617 22.8455 13.898 21.526C14.1188 20.8637 14.586 20.0731 14.8581 19.765C15.2997 19.2721 15.7873 19.1079 15.9055 19.3081C16.0544 19.57 15.3665 21.4798 15.1918 21.9111ZM20.0642 24.2421C19.946 24.3037 19.8331 24.3447 19.7818 24.3139C19.7458 24.2934 19.8331 24.2113 19.8331 24.2113C19.8331 24.2113 20.4441 23.554 20.6854 23.2563C20.824 23.0816 20.9884 22.8763 21.1629 22.6453V22.7121C21.1629 23.4976 20.4031 24.0264 20.0642 24.2421ZM23.8224 23.3846C23.735 23.323 23.7505 23.1176 24.0432 22.4758C24.1561 22.2243 24.4231 21.8034 24.88 21.3977C24.9313 21.562 24.9673 21.7211 24.9621 21.87C24.9571 22.861 24.2485 23.2306 23.8224 23.3846Z" fill="white"/>
</g>
</g>
<defs>
<clipPath id="clip0_42_1201">
<rect width="36" height="36" fill="white"/>
</clipPath>
</defs>
</svg>
