<svg width="115" height="32" viewBox="0 0 115 32" fill="none" xmlns="http://www.w3.org/2000/svg">
<path fill-rule="evenodd" clip-rule="evenodd" d="M17.8788 2.98682L2.61691 18.7739L2.58852 18.8013C-0.318199 15.2841 -0.896297 10.1784 1.46478 5.93944C4.45669 0.567232 11.0977 -1.26896 16.2885 1.83054C16.8603 2.17259 17.3918 2.56082 17.8788 2.98682ZM26.956 2.21035L25.5604 0.766577L20.3697 6.13669C20.0534 5.54071 19.684 4.97405 19.2621 4.44103L21.2967 2.33622L19.9012 0.89244L17.8788 2.98466C18.388 3.42954 18.8504 3.9185 19.2621 4.43893V4.44103L4.0124 20.2177L4.00228 20.2367C4.44446 20.6122 4.94345 20.9795 5.43637 21.2775C5.49925 21.3153 5.56415 21.3529 5.62905 21.3887L20.3697 6.13669C20.7126 6.78302 20.9924 7.45874 21.2053 8.15754L26.9539 2.21035H26.956ZM31.347 6.24889L32.7426 7.6927L12.3253 28.8157L10.9297 27.3718L31.347 6.24889ZM30.9832 12.3421L32.3788 13.7859L15.0868 31.6755L13.6912 30.2317L30.9832 12.3421ZM6.78123 23.0823L5.38569 21.6383L5.62707 21.3887C6.25994 21.7497 6.91307 22.0393 7.57839 22.2574L6.78123 23.0823ZM8.13838 24.4839L9.83197 22.7318C9.07538 22.6562 8.32083 22.4989 7.58046 22.2554L21.2073 8.15764C21.4386 8.9131 21.5948 9.69586 21.6679 10.487L9.83399 22.7297C10.8387 22.8281 11.8434 22.7795 12.8239 22.5931L21.5379 13.5781C21.321 14.8099 20.8991 16.0207 20.26 17.1665C18.6048 20.1317 15.8421 22.0205 12.8239 22.5954L9.5684 25.9634L8.13838 24.4839ZM21.54 13.5801L21.5425 13.5775L21.5421 13.5801H21.54ZM21.5425 13.5775L30.6416 4.16406L29.2115 2.68461L21.6698 10.4869C21.7651 11.508 21.7247 12.548 21.5425 13.5775ZM74.9705 0.371744L71.6599 3.79442L71.656 3.79651L71.6844 11.3868C71.2482 11.0952 70.587 10.7909 69.7047 10.4719C68.8202 10.1529 67.7999 9.99344 66.6479 9.99344C65.2116 9.99344 63.9358 10.2578 62.8223 10.7888C61.7066 11.3197 60.7653 12.0626 59.9967 13.0174C59.2259 13.9701 58.6438 15.1117 58.246 16.4379C57.8486 17.7642 57.6213 19.1807 57.6213 20.8531C57.6213 22.5258 57.8586 24.0303 58.3334 25.3691C58.8101 26.7081 59.4814 27.8434 60.3537 28.771C61.2257 29.7006 62.2766 30.4161 63.5078 30.9198C64.7371 31.4234 66.1225 31.6754 67.6601 31.6754C69.3253 31.6754 70.8 31.5555 72.0819 31.3163C73.3659 31.0794 74.4166 30.8399 75.2362 30.6007V0.485064C75.2362 0.342365 75.0678 0.271014 74.9705 0.371744ZM69.8039 13.7707C70.6235 14.1149 71.2503 14.4738 71.6885 14.8451L71.6864 14.8473L71.658 27.9755C71.2989 28.0826 70.7919 28.1813 70.1388 28.2735C69.4855 28.3659 68.6702 28.4122 67.6965 28.4122C65.7756 28.4122 64.236 27.7574 63.0838 26.4438C61.9297 25.1299 61.3537 23.2665 61.3537 20.8531C61.3537 19.7913 61.4835 18.7589 61.6904 17.8293C61.8952 16.9017 62.2298 16.1001 62.6903 15.4223C63.1528 14.7466 63.7493 14.2157 64.4793 13.8317C65.2096 13.4475 66.088 13.2545 67.1124 13.2545C68.0859 13.2545 68.9826 13.4266 69.8039 13.7707ZM52.3171 28.1539C52.7024 29.3082 53.1123 30.4814 53.5484 31.6754V31.6731H57.6253C56.599 28.7562 55.6375 26.0577 54.7411 23.5771C53.8425 21.0966 52.9662 18.7443 52.1061 16.5155C51.2482 14.287 50.3942 12.1591 49.5483 10.1299C49.2304 9.36718 48.9069 8.53964 48.5781 7.6984C48.0322 6.30145 47.4712 4.8661 46.8951 3.62449H43.4733C42.8941 4.87014 42.3307 6.31079 41.7829 7.71205L41.7778 7.72506C41.4525 8.5572 41.1326 9.37518 40.818 10.1299C39.9721 12.1591 39.1202 14.287 38.2602 16.5155C37.4022 18.7443 36.5239 21.0966 35.6273 23.5771C34.7288 26.0577 33.7673 28.7562 32.7429 31.6731H36.6274L39.0491 24.6327H51.1242C51.5361 25.8267 51.9316 26.9998 52.3171 28.1539ZM47.6072 14.7487C48.4143 16.9102 49.2278 19.145 50.0493 21.4514H50.0473H40.1263C40.9215 19.145 41.7227 16.9102 42.5299 14.7487C42.7567 14.1423 42.9871 13.5043 43.2208 12.857L43.2239 12.8487C43.8217 11.1934 44.4426 9.47426 45.0878 8.04606C45.6855 9.40812 46.2687 11.0375 46.8359 12.6231L46.8386 12.6307C47.0981 13.3555 47.3541 14.0714 47.6072 14.7487ZM81.3867 31.6749L83.9218 29.0522C84.0109 28.9598 83.9603 28.8003 83.8346 28.7793C83.4046 28.7079 83.0313 28.6241 82.719 28.5275C82.3355 28.4079 82.0273 28.2295 81.7959 27.9903C81.5647 27.7511 81.3985 27.4342 81.295 27.0355C81.1934 26.6367 81.1428 25.7995 81.1428 25.1887V0.485064C81.1428 0.342365 80.9745 0.271014 80.8771 0.371744L77.5688 3.79442V26.1226C77.5688 28.0847 78.0292 29.5306 78.9523 30.4582C79.5197 31.0307 80.3307 31.4357 81.3867 31.6749ZM94.0436 31.6754C94.5404 31.6754 95.0192 31.6563 95.4778 31.6229H95.4797L98.001 29.0145C98.1106 28.899 98.0071 28.7079 97.855 28.7437C92.3479 30.009 89.506 26.7418 89.506 26.7418C88.4552 25.6274 87.8529 23.9967 87.6987 21.8479H101.388C101.413 21.6361 101.427 21.4031 101.427 21.1514V20.5343C101.427 16.9815 100.709 14.3353 99.2729 12.5977C97.8367 10.8602 95.7737 9.99138 93.0822 9.99138C91.9299 9.99138 90.8022 10.2159 89.6987 10.6671C88.5953 11.1183 87.6217 11.7961 86.7758 12.6964C85.93 13.5987 85.2524 14.7319 84.7393 16.0979C84.224 17.4663 83.9684 19.0631 83.9684 20.8931C83.9684 22.4587 84.1672 23.8962 84.5648 25.2098C84.9624 26.5235 85.571 27.6567 86.3924 28.6115C87.2119 29.5663 88.2566 30.3155 89.5263 30.859C90.7941 31.4025 92.3013 31.6754 94.0436 31.6754ZM96.4858 14.7466C97.3174 15.821 97.7212 17.1934 97.6967 18.8639H87.7758C87.8529 18.1483 88.0131 17.4453 88.2565 16.755C88.4999 16.0666 88.8387 15.4559 89.2748 14.925C89.711 14.3962 90.2422 13.9638 90.8712 13.6323C91.5 13.3007 92.2242 13.135 93.0436 13.135C94.5061 13.135 95.6521 13.6722 96.4858 14.7466ZM112.498 13.3238C111.959 13.2504 111.328 13.2147 110.604 13.2147C109.936 13.2147 109.275 13.2882 108.622 13.433C107.969 13.5798 107.539 13.6785 107.334 13.731V28.1897L104.023 31.6291C103.926 31.7299 103.758 31.6438 103.758 31.5011V11.3051C104.604 10.9861 105.654 10.6881 106.912 10.4111C108.167 10.132 109.577 9.99348 111.141 9.99348C111.449 9.99348 111.8 10.0124 112.2 10.0543C112.596 10.0942 112.987 10.1467 113.372 10.2138C113.758 10.281 114.111 10.346 114.431 10.4132C114.606 10.4489 114.756 10.4845 114.882 10.516C114.999 10.5454 115.04 10.6965 114.955 10.7867L112.498 13.328V13.3238Z" fill="#FC2D7C"/>
</svg>
