<svg width="37" height="36" viewBox="0 0 37 36" fill="none" xmlns="http://www.w3.org/2000/svg">
<path d="M8.19702 5.74344C6.12927 8.71484 6.38662 12.5812 7.9664 15.7391L8.08199 15.9635L8.15596 16.1058L8.20208 16.1877L8.28449 16.335C8.33343 16.4213 8.38368 16.5074 8.43524 16.5935L8.5213 16.7353C8.5783 16.8269 8.63662 16.9182 8.69624 17.0089L8.77077 17.1239C8.85309 17.2469 8.93755 17.3689 9.02418 17.4898L9.03149 17.4991L9.07424 17.5568C9.14943 17.6603 9.2264 17.7628 9.30515 17.8642L9.39205 17.9747C9.46218 18.0627 9.53333 18.1502 9.60552 18.2374L9.68708 18.3347C9.78412 18.4489 9.8834 18.5631 9.98437 18.6745L9.99027 18.6807L10.0018 18.6933C10.1005 18.801 10.2015 18.9065 10.3041 19.012L10.4009 19.1096C10.4804 19.1893 10.5608 19.2681 10.6422 19.3461L10.7409 19.44C10.8495 19.5426 10.9597 19.6429 11.0717 19.741L11.0767 19.7455L11.1344 19.7944C11.2332 19.8801 11.3333 19.9647 11.4348 20.0481L11.5591 20.1474C11.6418 20.2136 11.7252 20.2788 11.8094 20.3431L11.9436 20.4447C12.0364 20.5129 12.13 20.5801 12.2245 20.6463L12.3266 20.7189L12.355 20.7391C12.4445 20.801 12.5364 20.8603 12.6278 20.9197L12.746 20.9984C12.8866 21.087 13.0292 21.1751 13.1732 21.26L13.2913 21.3267C13.3972 21.3878 13.5041 21.4477 13.6119 21.5064L13.7894 21.5981L14.0189 21.7173L14.0718 21.7429L14.1657 21.7882C14.2857 21.8458 14.4069 21.9019 14.5294 21.9567L14.6061 21.991C14.7462 22.0523 14.8876 22.1112 15.0303 22.1676L15.1338 22.2081C15.266 22.2595 15.3994 22.3089 15.534 22.3563L15.5843 22.3738C15.7317 22.4255 15.8808 22.473 16.0307 22.52L16.1384 22.5521C16.2908 22.5982 16.4419 22.6528 16.5991 22.682C26.5984 24.5053 29.5028 16.6734 29.5028 16.6734C27.0633 19.8515 22.7334 20.6896 18.6308 19.7564C18.4753 19.7213 18.3246 19.6726 18.173 19.6282L18.0588 19.5933C17.9109 19.5482 17.7639 19.5004 17.6178 19.4499L17.5573 19.4282C17.427 19.382 17.2975 19.3339 17.1686 19.2839L17.0595 19.2412C16.9183 19.1855 16.7784 19.1274 16.6399 19.0668L16.5561 19.0294C16.4373 18.9761 16.3193 18.9212 16.202 18.8649L16.0996 18.8157C16.0076 18.7709 15.9168 18.7234 15.8256 18.6764L15.6431 18.5805C15.5323 18.5213 15.4229 18.46 15.3149 18.3966L15.2041 18.335C15.0603 18.2498 14.9177 18.1624 14.7766 18.0729L14.6613 17.9961C14.5589 17.9303 14.4575 17.8629 14.3572 17.7939L14.2591 17.725C14.1625 17.6569 14.0666 17.5877 13.9716 17.5174L13.8442 17.4209C13.7569 17.3544 13.6704 17.2868 13.5849 17.2182L13.4693 17.1253C13.3602 17.0361 13.2525 16.9453 13.1462 16.8528L13.1107 16.8233C12.996 16.722 12.8827 16.6191 12.771 16.5145L12.6754 16.4222C12.5925 16.3439 12.5111 16.2641 12.4312 16.1829L12.3356 16.0873C12.2338 15.9832 12.134 15.8776 12.0361 15.7706L12.0212 15.7545C11.9177 15.6413 11.8164 15.5261 11.7174 15.4089L11.6378 15.3144C11.5638 15.2253 11.4909 15.1352 11.4193 15.0441L11.3391 14.9443C11.2534 14.8334 11.1692 14.7214 11.0866 14.6082C8.80902 11.5012 7.99059 7.21606 9.81112 3.69706M14.6151 3.23975C13.12 5.39131 13.201 8.27216 14.3676 10.5475C14.563 10.9299 14.7839 11.2987 15.0289 11.6514C15.2527 11.9728 15.5014 12.3548 15.7986 12.6127C15.9064 12.7314 16.0191 12.8473 16.1342 12.9609L16.2225 13.0483C16.3339 13.1569 16.4481 13.263 16.5651 13.3667L16.5791 13.3788L16.5825 13.3822C16.7124 13.4961 16.8466 13.6055 16.9827 13.7135L17.0736 13.7844C17.2102 13.889 17.3495 13.9919 17.4923 14.0901L17.5044 14.0994L17.6957 14.2251L17.7862 14.285C17.8882 14.3506 17.9917 14.414 18.0967 14.4751L18.1406 14.501C18.2314 14.5531 18.3228 14.6042 18.4148 14.6543L18.5124 14.7049L18.7042 14.8045L18.7332 14.8177C18.8646 14.8828 18.9981 14.9449 19.1337 15.0042L19.222 15.0407C19.3306 15.0868 19.44 15.1312 19.5502 15.1738L19.6909 15.2255C19.791 15.2626 19.8911 15.2967 19.9924 15.3304L20.1285 15.374C20.2722 15.4184 20.4145 15.475 20.5641 15.5C28.2845 16.7788 30.0667 10.8346 30.0667 10.8346C28.4602 13.1488 25.3488 14.2527 22.0286 13.3909C21.8819 13.3522 21.7361 13.3101 21.5913 13.2646L21.4599 13.2222C21.3573 13.1891 21.2554 13.154 21.1542 13.117L21.0161 13.0655C20.9056 13.0229 20.7958 12.9786 20.6868 12.9325L20.5982 12.8951C20.4625 12.8358 20.3282 12.7734 20.1954 12.7078L19.9935 12.6051L19.8771 12.5452C19.7908 12.4983 19.7056 12.4501 19.6214 12.4006L19.5604 12.366C19.4559 12.3052 19.3528 12.2422 19.251 12.177L19.1576 12.1149L18.9574 11.9821C18.8157 11.8839 18.6766 11.7821 18.54 11.677L18.4461 11.6027C16.9928 10.4555 15.8408 8.88725 15.2932 7.10919C14.7192 5.26503 14.843 3.19503 15.8375 1.51484M20.0132 1.36916C19.1317 2.66628 19.0451 4.27756 19.6568 5.71025C20.3017 7.23097 21.6233 8.42375 23.166 8.98963L23.3578 9.05572L23.4422 9.08272C23.533 9.11141 23.6233 9.14459 23.7172 9.16203C27.9801 9.98581 29.1364 6.97475 29.4441 6.53122C28.4313 7.9895 26.7291 8.33966 24.6406 7.83256C24.4697 7.7889 24.3012 7.7368 24.1355 7.67647C23.9312 7.60398 23.7308 7.5208 23.5353 7.42728C23.1641 7.24889 22.8116 7.03389 22.4831 6.78547C20.6142 5.36741 19.4535 2.66263 20.673 0.459595" fill="#0868AC"/>
<path d="M19.0536 27.083H17.865C17.8314 27.0845 17.7992 27.0966 17.7731 27.1178C17.7469 27.1389 17.7282 27.1678 17.7196 27.2003L17.2977 29.1522L16.8759 31.104C16.8676 31.1366 16.849 31.1657 16.8228 31.1868C16.7966 31.2079 16.7643 31.22 16.7307 31.2213H15.8895C15.0573 31.2213 15.1535 30.6456 15.3239 29.857L15.329 29.8331L15.3476 29.7335L15.3509 29.7149L15.3889 29.5124L15.4297 29.2956L15.473 29.0748L15.6648 28.1377L15.8569 27.2006C15.8606 27.1862 15.8608 27.1713 15.8577 27.1568C15.8545 27.1424 15.848 27.1289 15.8386 27.1175C15.8293 27.106 15.8174 27.0969 15.804 27.0909C15.7905 27.0848 15.7758 27.082 15.761 27.0827H14.5412C14.5076 27.0839 14.4753 27.0961 14.4492 27.1173C14.4232 27.1385 14.4047 27.1676 14.3966 27.2003L14.1342 28.4445L13.8721 29.6891L13.8716 29.6907L13.8474 29.8066C13.5453 31.1856 13.6252 32.501 15.2671 32.5423L15.3149 32.5432H17.892C17.9256 32.5419 17.9579 32.5298 17.9841 32.5087C18.0102 32.4875 18.0289 32.4585 18.0371 32.4259L18.5929 29.8134L19.1486 27.2006C19.1624 27.1359 19.1197 27.0833 19.0536 27.083ZM6.32533 27.0692H5.02033C4.9866 27.0704 4.95414 27.0825 4.92776 27.1035C4.90138 27.1246 4.88246 27.1536 4.8738 27.1862L4.75005 27.7324L4.6263 28.2786C4.61196 28.343 4.65387 28.3956 4.71996 28.3956H6.03508C6.06871 28.3942 6.101 28.382 6.12722 28.3609C6.15344 28.3398 6.17221 28.3109 6.18077 28.2783L6.3003 27.7324L6.41983 27.1865C6.43362 27.1221 6.39143 27.0692 6.32533 27.0692ZM5.94677 28.7691H4.63137C4.59763 28.7703 4.56517 28.7823 4.53879 28.8034C4.51241 28.8245 4.49349 28.8535 4.48483 28.8861L4.30005 29.7045L4.11555 30.5227L4.06408 30.7572L3.88662 31.5926L3.70943 32.4282C3.69565 32.4926 3.66724 32.5966 3.64615 32.6591C3.64615 32.6591 3.40033 33.3903 2.98718 33.3819L2.93543 33.3807L2.57796 33.3743C2.5444 33.3752 2.51172 33.3867 2.48521 33.4073C2.4587 33.4279 2.43946 33.4564 2.4303 33.4887L2.2939 34.0622L2.15777 34.6354C2.1423 34.6995 2.18393 34.7524 2.24946 34.7535C2.48374 34.7563 3.00855 34.7622 3.32608 34.7622C4.35799 34.7622 4.90221 34.1905 5.25068 32.5452L5.65877 30.6568L6.04155 28.8858C6.05533 28.822 6.01258 28.7691 5.94677 28.7691ZM30.1672 28.3264L30.1126 28.1011L30.0589 27.8705L30.0316 27.7541C29.9247 27.3387 29.6111 27.0993 28.93 27.0993L27.8696 27.0982L26.8931 27.0968H25.7943C25.7607 27.0979 25.7284 27.11 25.7022 27.1312C25.6761 27.1523 25.6576 27.1814 25.6495 27.2141L25.6008 27.4436L25.5434 27.7147L25.5274 27.7909L25.0327 30.1084L24.563 32.3083C24.5489 32.373 24.5444 32.4523 24.5523 32.4844C24.5602 32.5167 24.687 32.5432 24.7528 32.5432H25.744C25.8101 32.5432 25.8936 32.5314 25.9296 32.5167C25.9656 32.5021 26.0187 32.3725 26.032 32.3081L26.208 31.4365L26.3844 30.5646L26.3846 30.5632L26.4083 30.447L26.622 29.4458L26.8107 28.5615C26.8191 28.529 26.8376 28.5 26.8637 28.4789C26.8898 28.4578 26.922 28.4456 26.9556 28.4442L30.0744 28.4428C30.1405 28.4434 30.1821 28.3908 30.1672 28.3264ZM34.182 26.2901L33.9418 26.291H32.9437C32.9071 26.293 32.8714 26.3029 32.839 26.32C32.8066 26.3372 32.7783 26.3611 32.7561 26.3903L30.5486 29.6241C30.5114 29.6787 30.469 29.6708 30.4543 29.6066L30.2918 28.8942C30.2831 28.8616 30.2641 28.8325 30.2377 28.8115C30.2113 28.7904 30.1787 28.7784 30.145 28.7772H28.7261C28.66 28.7772 28.6209 28.829 28.6389 28.8923L29.2748 31.1201C29.2928 31.1836 29.2942 31.2877 29.2779 31.3518L29.0008 32.4298C28.9842 32.494 29.0247 32.546 29.0908 32.546H30.4934C30.5274 32.5446 30.56 32.5327 30.5868 32.5119C30.6136 32.491 30.6333 32.4624 30.6431 32.4298L30.9204 31.3518C30.9422 31.2758 30.9767 31.204 31.0225 31.1395L34.6061 26.3832C34.6461 26.3304 34.6244 26.2873 34.5586 26.2879L34.182 26.2901ZM22.9078 29.0799V29.0787C22.903 29.1127 22.8862 29.1438 22.8605 29.1666C22.8348 29.1893 22.8018 29.2021 22.7675 29.2028H20.9683C20.9059 29.2028 20.8744 29.1606 20.8837 29.1083L20.8854 29.1041L20.8842 29.1046L20.8851 29.0987L20.8932 29.0681C21.0651 28.6113 21.415 28.3115 22.0728 28.3115C22.8136 28.3112 22.9582 28.6729 22.9078 29.0799ZM22.3799 27.0031C20.0706 27.0031 19.5233 28.4049 19.2161 29.8198C18.9093 31.2621 18.9355 32.6101 21.3255 32.6101H21.6152L21.6872 32.6098H21.7041L21.991 32.609H21.996C22.6271 32.6065 23.2602 32.6017 23.5165 32.5997C23.5499 32.5982 23.5819 32.5858 23.6077 32.5645C23.6335 32.5432 23.6517 32.5141 23.6596 32.4816L23.7564 32.0088L23.7752 31.9168L23.8905 31.3526C23.8942 31.3384 23.8945 31.3234 23.8913 31.309C23.8881 31.2945 23.8816 31.2811 23.8723 31.2696C23.8629 31.2582 23.8511 31.2491 23.8376 31.2431C23.8241 31.2371 23.8094 31.2344 23.7946 31.2351H21.6461C20.7914 31.2351 20.5377 31.0081 20.6314 30.3404H24.0657L24.0655 30.3407L24.0677 30.3404C24.0949 30.3394 24.1212 30.3304 24.1434 30.3147C24.1656 30.299 24.1828 30.2771 24.1929 30.2518L24.201 30.222L24.2007 30.2223C24.7106 28.2988 24.5644 27.0034 22.3799 27.0031ZM11.4646 29.0726L11.432 29.1876L11.1727 30.107L10.9134 31.0258C10.9026 31.0583 10.8823 31.0868 10.855 31.1074C10.8277 31.128 10.7948 31.1399 10.7606 31.1414H9.38815C8.34696 31.1414 8.09327 30.3269 8.34696 29.126C8.60037 27.8975 9.09733 27.1339 10.1222 27.0566C11.5228 26.9508 11.803 27.9357 11.4646 29.0726ZM12.4062 31.0708C12.4062 31.0708 13.0534 29.4992 13.2002 28.5919C13.4007 27.3772 12.7924 25.6149 10.4428 25.6149C8.10677 25.6149 7.09202 27.297 6.70502 29.126C6.31802 30.9682 6.82512 32.5834 9.14796 32.5702L10.9806 32.5634L12.6931 32.5572C12.7271 32.5556 12.7597 32.5435 12.7865 32.5227C12.8134 32.5018 12.8332 32.4733 12.8433 32.4408L13.1417 31.3029C13.1583 31.2387 13.1181 31.1864 13.052 31.1859L12.766 31.1842L12.4799 31.1825C12.424 31.1822 12.3919 31.1457 12.3986 31.0976L12.4062 31.0708ZM23.9712 30.0187C23.9713 30.029 23.9692 30.0393 23.9653 30.0488C23.9614 30.0584 23.9556 30.0671 23.9483 30.0744C23.941 30.0817 23.9323 30.0875 23.9228 30.0915C23.9132 30.0955 23.903 30.0976 23.8926 30.0976C23.8823 30.0976 23.872 30.0956 23.8625 30.0916C23.8529 30.0877 23.8442 30.0819 23.8369 30.0746C23.8296 30.0673 23.8238 30.0586 23.8198 30.0491C23.8158 30.0395 23.8138 30.0293 23.8137 30.019C23.8137 29.9981 23.822 29.978 23.8367 29.9632C23.8514 29.9484 23.8715 29.9401 23.8923 29.9401C23.9132 29.94 23.9333 29.9483 23.9481 29.963C23.9629 29.9778 23.9712 29.9978 23.9712 30.0187Z" fill="#131B28"/>
</svg>
