<svg width="35" height="36" viewBox="0 0 35 36" fill="none" xmlns="http://www.w3.org/2000/svg">
<g clip-path="url(#clip0_42_1220)">
<path d="M2.16259 1.54987L22.0429 0.0816628C24.4849 -0.127889 25.1123 0.013424 26.6477 1.12956L32.9938 5.60028C34.0406 6.36904 34.389 6.57872 34.389 7.41586V31.9344C34.389 33.471 33.8309 34.3799 31.8776 34.5189L8.79142 35.9164C7.3255 35.9859 6.6274 35.7763 5.85971 34.7979L1.18656 28.7213C0.34835 27.6027 0.000976562 26.7655 0.000976562 25.787V3.99304C0.000976562 2.7368 0.559111 1.6889 2.16259 1.54987Z" fill="white"/>
<path d="M22.0429 0.0816628L2.16259 1.54987C0.559111 1.6889 0.000976562 2.7368 0.000976562 3.99304V25.7871C0.000976562 26.7656 0.348215 27.6027 1.18656 28.7213L5.85971 34.7979C6.6274 35.7763 7.3255 35.9859 8.79142 35.9164L31.8776 34.5189C33.8297 34.3799 34.389 33.471 34.389 31.9344V7.41586C34.389 6.62184 34.0752 6.39308 33.1519 5.71526L32.9927 5.60028L26.6477 1.12956C25.1123 0.013424 24.485 -0.127889 22.0429 0.0816628ZM9.31356 7.01462C7.42853 7.14156 7.00096 7.1703 5.93036 6.29959L3.2082 4.13435C2.93148 3.85414 3.07038 3.50435 3.76741 3.4349L22.8788 2.03856C24.4837 1.89845 25.3196 2.45766 25.9472 2.94635L29.2249 5.32127C29.365 5.3918 29.7136 5.80983 29.2944 5.80983L9.5579 6.99783L9.31356 7.01462ZM7.11595 31.7249V10.9104C7.11595 10.0014 7.39495 9.5823 8.23087 9.51165L30.8992 8.18462C31.6681 8.11517 32.0155 8.60372 32.0155 9.51165V30.1871C32.0155 31.0961 31.8752 31.8648 30.6202 31.9344L8.9279 33.1919C7.67287 33.2613 7.11595 32.8434 7.11595 31.7249ZM28.5292 12.0264C28.6681 12.6552 28.5292 13.284 27.9004 13.3559L26.855 13.563V28.9307C25.9472 29.4192 25.1112 29.6984 24.4129 29.6984C23.2969 29.6984 23.0177 29.3486 22.1818 28.3019L15.3448 17.545V27.9522L17.5075 28.442C17.5075 28.442 17.5075 29.6996 15.7627 29.6996L10.9518 29.9786C10.8117 29.6984 10.9518 29.0001 11.4394 28.8612L12.6955 28.5127V14.7523L10.952 14.611C10.8117 13.9824 11.1602 13.0744 12.1375 13.0038L17.2992 12.6565L24.413 23.5523V13.9129L22.5998 13.7044C22.4597 12.9343 23.0177 12.3751 23.7148 12.3069L28.5292 12.0264Z" fill="black"/>
</g>
<defs>
<clipPath id="clip0_42_1220">
<rect width="34.39" height="36" fill="white"/>
</clipPath>
</defs>
</svg>
