<svg width="36" height="36" viewBox="0 0 36 36" fill="none" xmlns="http://www.w3.org/2000/svg">
<g clip-path="url(#clip0_42_1215)">
<path d="M7.57141 22.6856C7.57141 24.7713 5.88574 26.4572 3.79999 26.4572C1.71424 26.4572 0.0285645 24.7713 0.0285645 22.6856C0.0285645 20.6 1.71424 18.9143 3.80013 18.9143H7.57127L7.57141 22.6856ZM9.45719 22.6856C9.45719 20.6 11.1429 18.9143 13.2286 18.9143C15.3144 18.9143 17 20.6 17 22.6857V32.1142C17 34.2 15.3144 35.8858 13.2285 35.8858C11.143 35.8858 9.45719 34.2 9.45719 32.1142V22.6856Z" fill="#E01E5A"/>
<path d="M13.2286 7.54284C11.1428 7.54284 9.45703 5.85717 9.45703 3.77142C9.45703 1.68567 11.143 0 13.2286 0C15.3142 0 17 1.68567 17 3.77142V7.54298L13.2286 7.54284ZM13.2286 9.45717C15.3143 9.45717 17 11.1428 17 13.2286C17 15.3143 15.3143 17 13.2285 17H3.77156C1.68567 17 0 15.3143 0 13.2285C0 11.143 1.68567 9.45717 3.77142 9.45717H13.2286Z" fill="#36C5F0"/>
<path d="M28.3429 13.2286C28.3429 11.1428 30.0286 9.45703 32.1142 9.45703C34.1998 9.45703 35.8858 11.1428 35.8858 13.2286C35.8858 15.3143 34.2 17 32.1142 17H28.3429V13.2286ZM26.4572 13.2286C26.4572 15.3143 24.7713 17 22.6856 17C20.6 17 18.9143 15.3143 18.9143 13.2285V3.77156C18.9143 1.68567 20.6 0 22.6856 0C24.7712 0 26.457 1.68567 26.457 3.77142L26.4572 13.2286Z" fill="#2EB67D"/>
<path d="M22.6856 28.3429C24.7713 28.3429 26.4572 30.0286 26.4572 32.1142C26.4572 34.1998 24.7713 35.8858 22.6856 35.8858C20.6 35.8858 18.9143 34.2 18.9143 32.1142V28.3429H22.6856ZM22.6856 26.4572C20.6 26.4572 18.9143 24.7713 18.9143 22.6856C18.9143 20.6 20.6 18.9143 22.6857 18.9143H32.1428C34.2285 18.9143 35.9143 20.6 35.9143 22.6857C35.9143 24.7715 34.2285 26.4572 32.1428 26.4572H22.6856Z" fill="#ECB22E"/>
</g>
<defs>
<clipPath id="clip0_42_1215">
<rect width="36" height="36" fill="white"/>
</clipPath>
</defs>
</svg>
