<svg width="36" height="36" viewBox="0 0 36 36" fill="none" xmlns="http://www.w3.org/2000/svg">
<g clip-path="url(#clip0_42_1193)">
<path d="M27.5625 0H8.4375C3.7776 0 0 3.7776 0 8.4375V27.5625C0 32.2224 3.7776 36 8.4375 36H27.5625C32.2224 36 36 32.2224 36 27.5625V8.4375C36 3.7776 32.2224 0 27.5625 0Z" fill="#F4F2ED"/>
<path d="M18.0002 20.665C19.4492 20.665 20.6237 19.4903 20.6237 18.0415C20.6237 16.5926 19.4492 15.418 18.0002 15.418C16.5512 15.418 15.3767 16.5926 15.3767 18.0415C15.3767 19.4903 16.5514 20.665 18.0002 20.665Z" fill="#00D8FF"/>
<path d="M18.0003 12.7073C21.5227 12.7073 24.7949 13.2127 27.2621 14.0622C30.2348 15.0855 32.0625 16.6368 32.0625 18.0415C32.0625 19.5052 30.1255 21.1532 26.9332 22.2109C24.5198 23.0104 21.3439 23.4278 18.0003 23.4278C14.5721 23.4278 11.3258 23.036 8.88511 22.202C5.79727 21.1466 3.9375 19.4774 3.9375 18.0415C3.9375 16.6482 5.68266 15.1089 8.61356 14.0871C11.09 13.2237 14.4429 12.7073 17.9997 12.7073H18.0003Z" stroke="#00D8FF" stroke-width="1.25311"/>
<path d="M13.3568 15.3897C15.1166 12.3384 17.189 9.75628 19.1574 8.04347C21.5289 5.97951 23.786 5.1712 25.0027 5.87278C26.2707 6.60403 26.7307 9.10547 26.0521 12.3992C25.5396 14.8892 24.3141 17.8488 22.6437 20.7454C20.931 23.7151 18.97 26.3316 17.0284 28.0287C14.5715 30.1763 12.1962 30.9535 10.9524 30.2362C9.7454 29.5407 9.28387 27.2596 9.86296 24.2101C10.3522 21.6335 11.58 18.471 13.3562 15.3897H13.3568Z" stroke="#00D8FF" stroke-width="1.25311"/>
<path d="M13.3612 20.7531C11.5965 17.7052 10.395 14.6196 9.89349 12.0588C9.28978 8.97338 9.71658 6.6144 10.9323 5.91071C12.1992 5.17721 14.5958 6.02799 17.1105 8.26083C19.0118 9.9489 20.9641 12.4882 22.6393 15.3819C24.3569 18.3488 25.6442 21.3547 26.145 23.8843C26.7786 27.0855 26.2658 29.5313 25.023 30.2506C23.8173 30.9487 21.6108 30.2097 19.258 28.185C17.2701 26.4744 15.1433 23.8314 13.3612 20.7531Z" stroke="#00D8FF" stroke-width="1.25311"/>
</g>
<defs>
<clipPath id="clip0_42_1193">
<rect width="36" height="36" fill="white"/>
</clipPath>
</defs>
</svg>
