<svg width="36" height="36" viewBox="0 0 36 36" fill="none" xmlns="http://www.w3.org/2000/svg">
<path d="M2 0H36V34H2V0Z" fill="#F5DE19"/>
<path d="M23.4101 26.8594C23.6789 27.4042 24.096 27.8622 24.6134 28.1806C25.1308 28.499 25.7276 28.665 26.3351 28.6594C27.5613 28.6594 28.3455 28.0463 28.3455 27.1969C28.3455 26.1844 27.54 25.8221 26.19 25.2315L25.4497 24.9143C23.3122 24.0041 21.8947 22.8645 21.8947 20.4548C21.8947 18.2351 23.5822 16.5443 26.2293 16.5443C27.0862 16.4825 27.9423 16.6744 28.6909 17.0959C29.4395 17.5174 30.0475 18.15 30.4391 18.9146L28.125 20.394C27.9741 20.0149 27.7116 19.6906 27.3723 19.4639C27.033 19.2373 26.6328 19.1191 26.2248 19.125C26.0468 19.1072 25.867 19.1267 25.697 19.1822C25.5269 19.2377 25.3702 19.328 25.237 19.4474C25.1037 19.5667 24.9968 19.7126 24.923 19.8756C24.8492 20.0386 24.8102 20.2151 24.8085 20.394C24.8085 21.2816 25.3586 21.6416 26.6287 22.194L27.369 22.5113C29.8845 23.5901 31.3065 24.6893 31.3065 27.1609C31.3065 29.826 29.2128 31.2863 26.4015 31.2863C25.3062 31.3554 24.2142 31.1064 23.2572 30.5692C22.3001 30.0321 21.5187 29.2298 21.0071 28.2589L23.4101 26.8594ZM12.9532 27.1159C13.4178 27.9405 13.8408 28.638 14.8578 28.638C15.8298 28.638 16.4441 28.2578 16.4441 26.7784V16.713H19.404V26.8178C19.404 29.8823 17.604 31.2773 14.9838 31.2773C14.0577 31.3279 13.1379 31.0971 12.3454 30.6152C11.5528 30.1333 10.9247 29.4229 10.5435 28.5773L12.9532 27.1159Z" fill="black"/>
</svg>
